<svg width="76" height="76" viewBox="0 0 76 76" fill="none" xmlns="http://www.w3.org/2000/svg">
<rect width="76" height="76" rx="7" fill="#28D0F5"/>
<path fill-rule="evenodd" clip-rule="evenodd" d="M50.5547 21.2203L50.2896 25.1426C46.9079 21.7031 42.2396 19.666 37.2175 19.666C30.5973 19.666 24.5921 23.2059 21.3379 28.8315L24.2232 30.5006C26.8876 25.8947 31.7994 22.9993 37.2175 22.9993C41.5741 22.9993 45.6034 24.8713 48.4002 27.9993H43.8842V31.3327H53.2124L53.8804 21.445L50.5547 21.2203ZM23.0756 41.3331L37.2177 27.191L51.3598 41.3331L37.2177 55.4753L23.0756 41.3331ZM46.6456 41.3329L37.2175 31.9048L27.7894 41.3329L37.2175 50.761L46.6456 41.3329Z" fill="white"/>
</svg>
