<svg width="76" height="76" viewBox="0 0 76 76" fill="none" xmlns="http://www.w3.org/2000/svg">
<rect width="76" height="76" rx="7" fill="#00F261"/>
<path fill-rule="evenodd" clip-rule="evenodd" d="M24.6673 21.334H33.0007C34.8416 21.334 36.334 22.8264 36.334 24.6673V33.0007C36.334 34.8416 34.8416 36.334 33.0007 36.334H24.6673C22.8264 36.334 21.334 34.8416 21.334 33.0007V24.6673C21.334 22.8264 22.8264 21.334 24.6673 21.334ZM24.6673 39.6673H33.0007C34.8416 39.6673 36.334 41.1597 36.334 43.0007V51.334C36.334 53.1749 34.8416 54.6673 33.0007 54.6673H24.6673C22.8264 54.6673 21.334 53.1749 21.334 51.334V43.0007C21.334 41.1597 22.8264 39.6673 24.6673 39.6673ZM48.0006 39.6673H44.6673V44.6673H39.6673V48.0006H44.6673V53.0006H48.0006V48.0006H53.0006V44.6673H48.0006V39.6673ZM24.6673 51.334V43.0006H33.0007V51.334H24.6673ZM24.6673 33.0007V24.6673H33.0007V33.0007H24.6673ZM43.0007 21.334H51.334C53.1749 21.334 54.6673 22.8264 54.6673 24.6673V33.0007C54.6673 34.8416 53.1749 36.334 51.334 36.334H43.0007C41.1597 36.334 39.6673 34.8416 39.6673 33.0007V24.6673C39.6673 22.8264 41.1597 21.334 43.0007 21.334ZM43.0007 33.0007V24.6673H51.334V33.0007H43.0007Z" fill="white"/>
</svg>
