<svg width="76" height="76" viewBox="0 0 76 76" fill="none" xmlns="http://www.w3.org/2000/svg">
<rect width="76" height="76" rx="7" fill="#FF464E"/>
<path fill-rule="evenodd" clip-rule="evenodd" d="M56.3327 49.6673C56.3327 47.4903 54.9413 45.6382 52.9994 44.9518V31.0495C54.9413 30.3631 56.3327 28.511 56.3327 26.334C56.3327 23.5726 54.0941 21.334 51.3327 21.334C49.1557 21.334 47.3036 22.7253 46.6172 24.6673H29.3815C28.6951 22.7253 26.843 21.334 24.666 21.334C21.9046 21.334 19.666 23.5726 19.666 26.334C19.666 28.511 21.0574 30.3631 22.9993 31.0495V44.9518C21.0574 45.6382 19.666 47.4903 19.666 49.6673C19.666 52.4287 21.9046 54.6673 24.666 54.6673C26.843 54.6673 28.6951 53.276 29.3815 51.334H46.6172C47.3036 53.276 49.1557 54.6673 51.3327 54.6673C54.0941 54.6673 56.3327 52.4287 56.3327 49.6673ZM49.666 31.0495V44.9518C48.2453 45.454 47.1193 46.58 46.6172 48.0006H29.3815C28.8794 46.58 27.7534 45.454 26.3327 44.9518V31.0495C27.7534 30.5473 28.8794 29.4213 29.3815 28.0006H46.6172C47.1193 29.4213 48.2453 30.5473 49.666 31.0495ZM24.666 28.0007C25.5865 28.0007 26.3327 27.2545 26.3327 26.334C26.3327 25.4135 25.5865 24.6673 24.666 24.6673C23.7455 24.6673 22.9993 25.4135 22.9993 26.334C22.9993 27.2545 23.7455 28.0007 24.666 28.0007ZM52.9994 26.334C52.9994 27.2545 52.2532 28.0007 51.3327 28.0007C50.4122 28.0007 49.666 27.2545 49.666 26.334C49.666 25.4135 50.4122 24.6673 51.3327 24.6673C52.2532 24.6673 52.9994 25.4135 52.9994 26.334ZM24.666 51.334C25.5865 51.334 26.3327 50.5878 26.3327 49.6673C26.3327 48.7468 25.5865 48.0007 24.666 48.0007C23.7455 48.0007 22.9993 48.7468 22.9993 49.6673C22.9993 50.5878 23.7455 51.334 24.666 51.334ZM52.9994 49.6673C52.9994 50.5878 52.2532 51.334 51.3327 51.334C50.4122 51.334 49.666 50.5878 49.666 49.6673C49.666 48.7468 50.4122 48.0007 51.3327 48.0007C52.2532 48.0007 52.9994 48.7468 52.9994 49.6673Z" fill="white"/>
</svg>
