<svg width="76" height="76" viewBox="0 0 76 76" fill="none" xmlns="http://www.w3.org/2000/svg">
<rect width="76" height="76" rx="7" fill="#FF00E5"/>
<path fill-rule="evenodd" clip-rule="evenodd" d="M53.0007 24.6673V41.334C53.0007 43.1749 51.5083 44.6673 49.6673 44.6673H39.6673V47.057L47.1915 51.5715L45.4765 54.4298L39.6673 50.9443V54.6673H36.334V50.9443L30.5248 54.4298L28.8098 51.5715L36.334 47.057V44.6673H26.334C24.493 44.6673 23.0007 43.1749 23.0007 41.334V24.6673H21.334V21.334H54.6673V24.6673H53.0007ZM26.334 24.6673V41.334H49.6673V24.6673H26.334ZM31.334 38.0006H34.6673V31.334H31.334V38.0006ZM39.6673 38.0006H36.334V28.0006H39.6673V38.0006ZM41.334 38.0006H44.6673V33.0006H41.334V38.0006Z" fill="white"/>
</svg>
