<svg width="76" height="76" viewBox="0 0 76 76" fill="none" xmlns="http://www.w3.org/2000/svg">
<rect width="76" height="76" rx="7" fill="#BBF02C"/>
<path fill-rule="evenodd" clip-rule="evenodd" d="M24.6673 48V26.3333H44.6673V48C44.6673 48.5844 44.7676 49.1454 44.9518 49.6667H26.334C25.4135 49.6667 24.6673 48.9205 24.6673 48ZM49.6673 53H26.334C23.5726 53 21.334 50.7614 21.334 48V23H44.6673H46.334H48.0007L48.0007 31.3333H54.6673V33V34.6667V48C54.6673 50.7614 52.4287 53 49.6673 53ZM49.6673 49.6667C50.5878 49.6667 51.334 48.9205 51.334 48V34.6667H48.0007L48.0007 48C48.0007 48.9205 48.7468 49.6667 49.6673 49.6667ZM34.6673 29.6667V36.3333H28.0006V29.6667H34.6673ZM41.334 34.6667V31.3333H36.334V34.6667H41.334ZM41.334 38V41.3333H28.0006V38H41.334ZM41.334 46.3333V43H28.0006V46.3333H41.334Z" fill="white"/>
</svg>
