<svg width="405" height="360" viewBox="0 0 405 360" fill="none" xmlns="http://www.w3.org/2000/svg">
<g clip-path="url(#clip0)">
<g filter="url(#filter0_d)">
<rect x="81.7188" y="102.633" width="259.449" height="198.358" rx="15.8742" fill="white"/>
</g>
<g opacity="0.3" filter="url(#filter1_f)">
<rect x="370.863" y="90.0898" width="28.3796" height="34.461" fill="#A0A0A0"/>
</g>
<rect x="365.676" y="81.125" width="38.7668" height="38.7668" rx="7.75336" fill="white"/>
<path fill-rule="evenodd" clip-rule="evenodd" d="M393.172 89.6703L393.001 92.2045C390.816 89.9822 387.8 88.666 384.555 88.666C380.278 88.666 376.398 90.9532 374.295 94.5879L376.159 95.6664C377.881 92.6904 381.054 90.8197 384.555 90.8197C387.37 90.8197 389.973 92.0292 391.78 94.0503H388.862V96.204H394.889L395.321 89.8155L393.172 89.6703ZM375.42 102.666L384.557 93.5286L393.695 102.666L384.557 111.803L375.42 102.666ZM390.645 102.664L384.554 96.5725L378.462 102.664L384.554 108.756L390.645 102.664Z" fill="#393939"/>
<g opacity="0.3" filter="url(#filter2_f)">
<rect x="8.14648" y="302.436" width="46.8406" height="56.8779" fill="#A0A0A0"/>
</g>
<rect y="288.18" width="63.9846" height="63.9846" rx="12.7969" fill="white"/>
<path fill-rule="evenodd" clip-rule="evenodd" d="M17.7735 302.398H14.2188V337.945H17.7735V302.398ZM49.7668 316.364V323.981C49.7668 325.87 48.1198 327.282 46.2121 327.282H23.1066C21.199 327.282 19.5519 325.87 19.5519 323.981V316.364C19.5519 314.475 21.199 313.063 23.1066 313.063H46.2121C48.1198 313.063 49.7668 314.475 49.7668 316.364ZM23.1057 316.616V323.725H46.2113V316.616H23.1057Z" fill="#FF464E"/>
<g opacity="0.3" filter="url(#filter3_f)">
<rect x="71.7754" y="13.3027" width="43.7042" height="53.0694" fill="#A0A0A0"/>
</g>
<rect x="64.1738" width="59.7003" height="59.7003" rx="11.9401" fill="white"/>
<path fill-rule="evenodd" clip-rule="evenodd" d="M78.7984 14.9238H109.252C110.917 14.9238 112.267 16.4088 112.267 18.2405V41.4573C112.267 43.289 110.917 44.774 109.252 44.774H78.7984C77.1331 44.774 75.7832 43.289 75.7832 41.4573V18.2405C75.7832 16.4088 77.1331 14.9238 78.7984 14.9238ZM79.0989 18.2415V41.4583H108.949V18.2415H79.0989ZM84.0764 31.5085H92.3681V36.4835H90.7097V39.8002H97.3431V36.4835H95.6848V31.5085H103.976V33.1668H107.293V26.5334H103.976V28.1918H95.6848V23.2167H97.3431V19.9001H90.7097V23.2167H92.3681V28.1918H84.0764V26.5334H80.7597V33.1668H84.0764V31.5085Z" fill="#FFAB5F"/>
<g opacity="0.3" filter="url(#filter4_f)">
<rect x="217.883" y="74.5352" width="38.5587" height="46.8212" fill="#A0A0A0"/>
</g>
<rect x="210.688" y="62.6602" width="52.6715" height="52.6715" rx="10.5343" fill="white"/>
<path fill-rule="evenodd" clip-rule="evenodd" d="M253.116 99.2398C253.116 97.3287 251.894 95.7028 250.19 95.1003V82.896C251.894 82.2934 253.116 80.6676 253.116 78.7565C253.116 76.3323 251.151 74.3672 248.727 74.3672C246.815 74.3672 245.19 75.5886 244.587 77.2934H229.457C228.854 75.5886 227.228 74.3672 225.317 74.3672C222.893 74.3672 220.928 76.3323 220.928 78.7565C220.928 80.6676 222.149 82.2934 223.854 82.896V95.1003C222.149 95.7028 220.928 97.3287 220.928 99.2398C220.928 101.664 222.893 103.629 225.317 103.629C227.228 103.629 228.854 102.408 229.457 100.703H244.587C245.19 102.408 246.815 103.629 248.727 103.629C251.151 103.629 253.116 101.664 253.116 99.2398ZM247.266 82.8951V95.0994C246.019 95.5402 245.031 96.5286 244.59 97.7758H229.46C229.019 96.5286 228.03 95.5402 226.783 95.0994V82.8951C228.03 82.4543 229.019 81.4658 229.46 80.2186H244.59C245.031 81.4658 246.019 82.4543 247.266 82.8951ZM225.317 80.2178C226.125 80.2178 226.78 79.5628 226.78 78.7547C226.78 77.9467 226.125 77.2916 225.317 77.2916C224.509 77.2916 223.854 77.9467 223.854 78.7547C223.854 79.5628 224.509 80.2178 225.317 80.2178ZM250.19 78.7547C250.19 79.5628 249.535 80.2178 248.727 80.2178C247.919 80.2178 247.263 79.5628 247.263 78.7547C247.263 77.9467 247.919 77.2916 248.727 77.2916C249.535 77.2916 250.19 77.9467 250.19 78.7547ZM225.317 100.705C226.125 100.705 226.78 100.05 226.78 99.2416C226.78 98.4336 226.125 97.7785 225.317 97.7785C224.509 97.7785 223.854 98.4336 223.854 99.2416C223.854 100.05 224.509 100.705 225.317 100.705ZM250.19 99.2416C250.19 100.05 249.535 100.705 248.727 100.705C247.919 100.705 247.263 100.05 247.263 99.2416C247.263 98.4336 247.919 97.7785 248.727 97.7785C249.535 97.7785 250.19 98.4336 250.19 99.2416Z" fill="#5F00D9"/>
<rect x="106.507" y="168.149" width="209.869" height="62.7975" fill="white" stroke="#5F00D9" stroke-width="1.31055" stroke-dasharray="5.62 5.62"/>
<path d="M137.298 188.842C140.473 188.842 143.069 189.82 145.086 191.777C147.103 193.734 148.112 196.251 148.112 199.326C148.112 202.382 147.093 204.898 145.056 206.875C143.039 208.832 140.453 209.811 137.298 209.811H128.82V188.842H137.298ZM137.028 204.508C138.566 204.508 139.814 204.029 140.773 203.071C141.731 202.112 142.21 200.854 142.21 199.296C142.21 197.758 141.731 196.52 140.773 195.582C139.834 194.623 138.586 194.144 137.028 194.144H134.602V204.508H137.028Z" fill="#FF464E"/>
<path d="M167.526 201.573C167.526 202.032 167.486 202.521 167.407 203.041H155.394C155.574 203.959 155.944 204.658 156.503 205.137C157.082 205.617 157.811 205.856 158.689 205.856C159.129 205.856 159.538 205.796 159.918 205.677C160.297 205.557 160.627 205.387 160.906 205.167C161.206 204.928 161.445 204.648 161.625 204.329H167.167C166.608 206.186 165.559 207.654 164.022 208.732C162.504 209.811 160.726 210.35 158.689 210.35C156.173 210.35 154.076 209.531 152.399 207.893C150.741 206.236 149.913 204.179 149.913 201.723C149.913 200.085 150.292 198.607 151.051 197.289C151.81 195.971 152.858 194.943 154.196 194.204C155.534 193.465 157.032 193.095 158.689 193.095C160.407 193.095 161.935 193.475 163.273 194.234C164.631 194.973 165.679 195.991 166.418 197.289C167.157 198.567 167.526 199.995 167.526 201.573ZM158.689 197.469C157.891 197.469 157.212 197.689 156.653 198.128C156.113 198.547 155.724 199.156 155.484 199.955H162.045C161.545 198.298 160.427 197.469 158.689 197.469Z" fill="#FF464E"/>
<path d="M176.292 210.35C174.095 210.35 172.358 209.821 171.08 208.762C169.822 207.704 169.183 206.286 169.163 204.508H174.525C174.525 205.068 174.694 205.497 175.034 205.796C175.373 206.096 175.823 206.246 176.382 206.246C176.662 206.246 176.921 206.206 177.161 206.126C177.4 206.026 177.59 205.876 177.73 205.677C177.89 205.477 177.97 205.247 177.97 204.988C177.97 204.688 177.83 204.438 177.55 204.239C177.291 204.039 176.991 203.899 176.652 203.819C176.312 203.72 175.823 203.62 175.184 203.52C174.565 203.42 174.035 203.32 173.596 203.22C173.177 203.12 172.677 202.951 172.098 202.711C171.519 202.451 171.05 202.152 170.69 201.812C170.331 201.473 170.021 201.014 169.762 200.434C169.502 199.855 169.372 199.186 169.372 198.427C169.372 196.81 170.001 195.522 171.26 194.563C172.518 193.585 174.185 193.095 176.262 193.095C178.319 193.095 179.967 193.595 181.205 194.593C182.463 195.592 183.102 196.92 183.122 198.577H177.91C177.91 198.238 177.83 197.958 177.67 197.738C177.53 197.499 177.331 197.329 177.071 197.229C176.831 197.109 176.542 197.049 176.202 197.049C175.743 197.049 175.373 197.159 175.094 197.379C174.834 197.599 174.704 197.888 174.704 198.248C174.704 198.407 174.734 198.547 174.794 198.667C174.854 198.787 174.954 198.897 175.094 198.997C175.254 199.076 175.393 199.146 175.513 199.206C175.633 199.266 175.823 199.326 176.082 199.386C176.362 199.446 176.582 199.496 176.741 199.536C176.901 199.556 177.151 199.596 177.49 199.656C177.91 199.735 178.199 199.795 178.359 199.835C178.539 199.855 178.838 199.915 179.258 200.015C179.677 200.115 179.987 200.205 180.186 200.285C180.386 200.345 180.656 200.454 180.995 200.614C181.355 200.774 181.624 200.934 181.804 201.093C181.984 201.253 182.193 201.463 182.433 201.723C182.693 201.962 182.882 202.222 183.002 202.501C183.122 202.781 183.222 203.12 183.302 203.52C183.402 203.899 183.451 204.309 183.451 204.748C183.451 206.446 182.792 207.803 181.474 208.822C180.176 209.84 178.449 210.35 176.292 210.35Z" fill="#FF464E"/>
<path d="M186.093 191.598V186.895H191.575V191.598H186.093ZM186.063 209.811V193.635H191.635V209.811H186.063Z" fill="#FF464E"/>
<path d="M208.072 193.635H211.847V208.013C211.847 210.549 211.068 212.556 209.51 214.034C207.953 215.512 205.846 216.251 203.19 216.251C201.652 216.251 200.284 216.001 199.086 215.502C197.887 215.023 196.909 214.314 196.15 213.375C195.391 212.457 194.882 211.368 194.622 210.11H200.014C200.194 210.629 200.573 211.029 201.153 211.308C201.752 211.608 202.411 211.758 203.13 211.758C204.088 211.758 204.887 211.468 205.526 210.889C206.165 210.33 206.485 209.581 206.485 208.642V208.163C205.207 208.982 203.799 209.391 202.261 209.391C199.944 209.391 198.017 208.622 196.48 207.085C194.942 205.527 194.173 203.58 194.173 201.243C194.173 198.947 194.942 197.02 196.48 195.462C198.037 193.904 199.964 193.125 202.261 193.125C204.198 193.125 205.906 193.744 207.383 194.983L208.072 193.635ZM203.19 204.808C204.188 204.808 205.007 204.478 205.646 203.819C206.305 203.14 206.634 202.282 206.634 201.243C206.634 200.225 206.305 199.386 205.646 198.727C205.007 198.068 204.188 197.738 203.19 197.738C202.191 197.738 201.362 198.068 200.703 198.727C200.064 199.386 199.745 200.225 199.745 201.243C199.745 202.282 200.064 203.14 200.703 203.819C201.362 204.478 202.191 204.808 203.19 204.808Z" fill="#FF464E"/>
<path d="M225.14 193.155C227.018 193.155 228.515 193.774 229.634 195.012C230.772 196.251 231.341 197.898 231.341 199.955V209.811H225.77V200.704C225.77 198.827 225.071 197.888 223.673 197.888C223.094 197.888 222.594 198.018 222.175 198.278C221.775 198.537 221.466 198.917 221.246 199.416C221.047 199.895 220.947 200.484 220.947 201.183V209.811H215.375V193.635H219.269L220.048 195.312C221.326 193.874 223.024 193.155 225.14 193.155Z" fill="#FF464E"/>
<circle cx="316.615" cy="167.832" r="5.61666" fill="#5F00D9"/>
<circle cx="106.187" cy="167.832" r="5.61666" fill="#5F00D9"/>
<circle cx="106.187" cy="231.49" r="5.61666" fill="#5F00D9"/>
<circle cx="316.615" cy="231.49" r="5.61666" fill="#5F00D9"/>
<g opacity="0.3" filter="url(#filter5_f)">
<rect x="233.664" y="300.777" width="150.223" height="32.0002" fill="#A0A0A0"/>
</g>
<g clip-path="url(#clip1)">
<rect x="223" y="283" width="171.556" height="44.4447" rx="22.2223" fill="white"/>
<rect x="223" y="283" width="171.556" height="44.4447" rx="22.2223" fill="white"/>
<rect x="301.221" y="293.664" width="82.6671" height="23.1112" rx="6.22225" fill="#F9F9FA"/>
<path d="M338.851 310.999H340.718V300.352H338.836L336.055 302.307V304.056L338.807 302.167H338.851V310.999Z" fill="#393939"/>
<path d="M348.288 310.999H350.103V308.955H351.55V307.391H350.103V300.352H347.395C345.086 303.709 343.898 305.598 342.976 307.332V308.955H348.288V310.999ZM344.688 307.383C345.536 305.834 346.569 304.233 348.288 301.768H348.318V307.435H344.688V307.383Z" fill="#393939"/>
<rect x="233.664" y="293.664" width="23.1112" height="23.1112" rx="6.22225" fill="#F9F9FA"/>
<path fill-rule="evenodd" clip-rule="evenodd" d="M248.063 304.804C249.402 305.306 250.355 306.597 250.355 308.111C250.355 310.061 248.774 311.642 246.824 311.642H241.367V298.803H245.54C247.49 298.803 249.071 300.384 249.071 302.334C249.071 303.295 248.686 304.167 248.063 304.804ZM245.54 304.58C246.781 304.58 247.787 303.574 247.787 302.333C247.787 301.092 246.781 300.086 245.54 300.086H242.651V304.58H245.54ZM242.651 310.358V305.864H246.824C248.065 305.864 249.071 306.87 249.071 308.111C249.071 309.352 248.065 310.358 246.824 310.358H242.651Z" fill="#393939"/>
<rect x="267.443" y="293.664" width="23.1112" height="23.1112" rx="6.22225" fill="#F9F9FA"/>
<path d="M280.796 300.087L278.513 310.358H280.923V311.642H274.824V310.358H277.198L279.481 300.087H277.392V298.803H283.491V300.087H280.796Z" fill="#393939"/>
<rect x="360.775" y="293.664" width="23.1112" height="23.1112" rx="6.22225" fill="#F9F9FA"/>
<path fill-rule="evenodd" clip-rule="evenodd" d="M372.335 312.286C368.435 312.286 365.273 309.124 365.273 305.224C365.273 301.324 368.435 298.162 372.335 298.162C376.235 298.162 379.397 301.324 379.397 305.224C379.397 309.124 376.235 312.286 372.335 312.286ZM372.333 310.999C375.524 310.999 378.111 308.412 378.111 305.221C378.111 302.03 375.524 299.443 372.333 299.443C369.142 299.443 366.556 302.03 366.556 305.221C366.556 308.412 369.142 310.999 372.333 310.999ZM375.543 304.581H372.975V302.013H371.691V304.581H369.123V305.865H371.691V308.433H372.975V305.865H375.543V304.581Z" fill="#393939"/>
<rect x="301.221" y="293.664" width="23.1112" height="23.1112" rx="6.22225" fill="#F9F9FA"/>
<path fill-rule="evenodd" clip-rule="evenodd" d="M312.777 312.286C308.877 312.286 305.715 309.124 305.715 305.224C305.715 301.324 308.877 298.162 312.777 298.162C316.677 298.162 319.838 301.324 319.838 305.224C319.838 309.124 316.677 312.286 312.777 312.286ZM312.778 310.999C315.969 310.999 318.556 308.412 318.556 305.221C318.556 302.03 315.969 299.443 312.778 299.443C309.587 299.443 307 302.03 307 305.221C307 308.412 309.587 310.999 312.778 310.999ZM309.569 304.58V305.864H315.989V304.58H309.569Z" fill="#393939"/>
</g>
</g>
<defs>
<filter id="filter0_d" x="71.1598" y="95.0907" width="280.567" height="219.476" filterUnits="userSpaceOnUse" color-interpolation-filters="sRGB">
<feFlood flood-opacity="0" result="BackgroundImageFix"/>
<feColorMatrix in="SourceAlpha" type="matrix" values="0 0 0 0 0 0 0 0 0 0 0 0 0 0 0 0 0 0 127 0"/>
<feOffset dy="3.01685"/>
<feGaussianBlur stdDeviation="5.27949"/>
<feColorMatrix type="matrix" values="0 0 0 0 0 0 0 0 0 0 0 0 0 0 0 0 0 0 0.07 0"/>
<feBlend mode="normal" in2="BackgroundImageFix" result="effect1_dropShadow"/>
<feBlend mode="normal" in="SourceGraphic" in2="effect1_dropShadow" result="shape"/>
</filter>
<filter id="filter1_f" x="350.532" y="69.7591" width="69.0412" height="75.1226" filterUnits="userSpaceOnUse" color-interpolation-filters="sRGB">
<feFlood flood-opacity="0" result="BackgroundImageFix"/>
<feBlend mode="normal" in="SourceGraphic" in2="BackgroundImageFix" result="shape"/>
<feGaussianBlur stdDeviation="10.1654" result="effect1_foregroundBlur"/>
</filter>
<filter id="filter2_f" x="-25.4095" y="268.88" width="113.953" height="123.99" filterUnits="userSpaceOnUse" color-interpolation-filters="sRGB">
<feFlood flood-opacity="0" result="BackgroundImageFix"/>
<feBlend mode="normal" in="SourceGraphic" in2="BackgroundImageFix" result="shape"/>
<feGaussianBlur stdDeviation="16.778" result="effect1_foregroundBlur"/>
</filter>
<filter id="filter3_f" x="40.4663" y="-18.0064" width="106.322" height="115.688" filterUnits="userSpaceOnUse" color-interpolation-filters="sRGB">
<feFlood flood-opacity="0" result="BackgroundImageFix"/>
<feBlend mode="normal" in="SourceGraphic" in2="BackgroundImageFix" result="shape"/>
<feGaussianBlur stdDeviation="15.6546" result="effect1_foregroundBlur"/>
</filter>
<filter id="filter4_f" x="190.26" y="46.9122" width="93.8045" height="102.067" filterUnits="userSpaceOnUse" color-interpolation-filters="sRGB">
<feFlood flood-opacity="0" result="BackgroundImageFix"/>
<feBlend mode="normal" in="SourceGraphic" in2="BackgroundImageFix" result="shape"/>
<feGaussianBlur stdDeviation="13.8115" result="effect1_foregroundBlur"/>
</filter>
<filter id="filter5_f" x="194.553" y="261.666" width="228.446" height="110.223" filterUnits="userSpaceOnUse" color-interpolation-filters="sRGB">
<feFlood flood-opacity="0" result="BackgroundImageFix"/>
<feBlend mode="normal" in="SourceGraphic" in2="BackgroundImageFix" result="shape"/>
<feGaussianBlur stdDeviation="19.5556" result="effect1_foregroundBlur"/>
</filter>
<clipPath id="clip0">
<rect width="404.442" height="359.314" fill="white"/>
</clipPath>
<clipPath id="clip1">
<rect x="223" y="283" width="171.556" height="44.4447" rx="22.2223" fill="white"/>
</clipPath>
</defs>
</svg>
