<svg width="824" height="484" viewBox="0 0 824 484" fill="none" xmlns="http://www.w3.org/2000/svg">
<g filter="url(#filter0_d)">
<rect x="89" y="70" width="631" height="338" rx="9" fill="#F9F9FA"/>
<rect x="88" y="67" width="148" height="341" fill="white"/>
<rect x="236" y="67" width="484" height="46" fill="white"/>
<rect x="236" y="362" width="484" height="46" fill="white"/>
</g>
<rect x="99" y="130" width="39" height="39" fill="#F9F9FA"/>
<rect x="99" y="174" width="39" height="39" fill="#F9F9FA"/>
<rect x="99" y="218" width="39" height="39" fill="#F9F9FA"/>
<rect x="99" y="262" width="39" height="39" fill="#F9F9FA"/>
<rect x="99" y="306" width="39" height="39" fill="#F9F9FA"/>
<rect x="99" y="350" width="39" height="39" fill="#F9F9FA"/>
<rect x="143" y="130" width="39" height="39" fill="#F9F9FA"/>
<rect x="99" y="93" width="127" height="20" fill="#F9F9FA"/>
<rect x="143" y="174" width="39" height="39" fill="#F9F9FA"/>
<rect x="143" y="218" width="39" height="39" fill="#F9F9FA"/>
<rect x="143" y="262" width="39" height="39" fill="#F9F9FA"/>
<rect x="143" y="306" width="39" height="39" fill="#F9F9FA"/>
<rect x="143" y="350" width="39" height="39" fill="#F9F9FA"/>
<rect x="187" y="130" width="39" height="39" fill="#F9F9FA"/>
<rect x="187" y="174" width="39" height="39" fill="#F9F9FA"/>
<rect x="187" y="218" width="39" height="39" fill="#F9F9FA"/>
<rect x="187" y="262" width="39" height="39" fill="#F9F9FA"/>
<rect x="187" y="306" width="39" height="39" fill="#F9F9FA"/>
<rect x="187" y="350" width="39" height="39" fill="#F9F9FA"/>
<g opacity="0.3" filter="url(#filter1_f)">
<rect x="33" y="364" width="213" height="87" rx="5" fill="#A0A0A0"/>
</g>
<g clip-path="url(#clip0)">
<rect x="17" y="326" width="241" height="115" fill="white"/>
<path d="M26.6406 337.674V344.052H27.6308V341.873H29.001C30.252 341.873 31.1316 341.016 31.1316 339.769C31.1316 338.527 30.2696 337.674 29.032 337.674H26.6406ZM27.6308 338.509H28.7712C29.6287 338.509 30.1193 338.969 30.1193 339.773C30.1193 340.578 29.6287 341.042 28.7668 341.042H27.6308V338.509Z" fill="#393939"/>
<path d="M31.9979 337.674V344.052H34.2478C36.1485 344.052 37.2669 342.868 37.2669 340.852C37.2669 338.841 36.1441 337.674 34.2478 337.674H31.9979ZM32.9881 338.527H34.155C35.5032 338.527 36.2546 339.358 36.2546 340.861C36.2546 342.368 35.5076 343.195 34.155 343.195H32.9881V338.527Z" fill="#393939"/>
<path d="M39.2029 344.052V341.382H41.9435V340.547H39.2029V338.527H42.1954V337.674H38.2128V344.052H39.2029Z" fill="#393939"/>
<path d="M27.8253 370.328V372.72H26.707V366.284H29.1691C29.8881 366.284 30.4583 366.471 30.8797 366.845C31.3041 367.219 31.5162 367.714 31.5162 368.33C31.5162 368.961 31.3085 369.452 30.893 369.802C30.4804 370.153 29.9014 370.328 29.1558 370.328H27.8253ZM27.8253 369.431H29.1691C29.5669 369.431 29.8704 369.338 30.0797 369.152C30.2889 368.964 30.3935 368.693 30.3935 368.339C30.3935 367.991 30.2874 367.714 30.0752 367.508C29.8631 367.299 29.5713 367.191 29.2 367.185H27.8253V369.431Z" fill="#393939"/>
<path d="M37.6029 372.72H36.4846L33.6159 368.153V372.72H32.4975V366.284H33.6159L36.4934 370.867V366.284H37.6029V372.72Z" fill="#393939"/>
<path d="M43.8575 371.884C43.6247 372.188 43.302 372.418 42.8895 372.574C42.4769 372.73 42.0084 372.808 41.4839 372.808C40.9446 372.808 40.4672 372.686 40.0517 372.441C39.6362 372.197 39.315 371.847 39.0881 371.394C38.8641 370.937 38.7477 370.405 38.7389 369.798V369.294C38.7389 368.321 38.9717 367.563 39.4373 367.017C39.9029 366.469 40.5527 366.195 41.3866 366.195C42.1027 366.195 42.6714 366.372 43.0928 366.726C43.5142 367.079 43.7676 367.589 43.8531 368.255H42.7569C42.6331 367.48 42.1837 367.093 41.4087 367.093C40.9078 367.093 40.5261 367.274 40.2639 367.636C40.0046 367.996 39.8705 368.525 39.8616 369.223V369.718C39.8616 370.414 40.0075 370.954 40.2992 371.34C40.5939 371.724 41.0021 371.915 41.5236 371.915C42.0953 371.915 42.502 371.785 42.7436 371.526V370.266H41.4176V369.418H43.8575V371.884Z" fill="#393939"/>
<path d="M29.3417 394.952H30.4556V399.465C30.4556 400.081 30.2626 400.57 29.8765 400.932C29.4935 401.295 28.9866 401.476 28.356 401.476C27.6841 401.476 27.1655 401.307 26.8001 400.968C26.4347 400.629 26.252 400.157 26.252 399.553H27.3659C27.3659 399.895 27.4498 400.153 27.6178 400.327C27.7887 400.498 28.0348 400.583 28.356 400.583C28.6566 400.583 28.8953 400.484 29.0721 400.287C29.2518 400.087 29.3417 399.811 29.3417 399.46V394.952Z" fill="#393939"/>
<path d="M32.8558 398.996V401.388H31.7375V394.952H34.1995C34.9186 394.952 35.4888 395.139 35.9102 395.513C36.3345 395.887 36.5467 396.382 36.5467 396.998C36.5467 397.629 36.3389 398.12 35.9234 398.47C35.5109 398.821 34.9318 398.996 34.1863 398.996H32.8558ZM32.8558 398.099H34.1995C34.5973 398.099 34.9009 398.006 35.1101 397.82C35.3193 397.632 35.4239 397.361 35.4239 397.007C35.4239 396.659 35.3178 396.382 35.1057 396.176C34.8935 395.967 34.6018 395.859 34.2305 395.853H32.8558V398.099Z" fill="#393939"/>
<path d="M42.4609 400.552C42.2281 400.856 41.9055 401.085 41.4929 401.242C41.0804 401.398 40.6118 401.476 40.0873 401.476C39.548 401.476 39.0706 401.354 38.6551 401.109C38.2396 400.864 37.9184 400.515 37.6915 400.061C37.4675 399.605 37.3512 399.073 37.3423 398.466V397.962C37.3423 396.989 37.5751 396.231 38.0407 395.685C38.5063 395.137 39.1561 394.863 39.99 394.863C40.7061 394.863 41.2748 395.04 41.6962 395.394C42.1176 395.747 42.3711 396.257 42.4565 396.923H41.3603C41.2365 396.148 40.7871 395.761 40.0121 395.761C39.5112 395.761 39.1296 395.942 38.8673 396.304C38.608 396.664 38.4739 397.193 38.465 397.891V398.386C38.465 399.082 38.6109 399.622 38.9027 400.008C39.1973 400.392 39.6055 400.583 40.1271 400.583C40.6987 400.583 41.1054 400.453 41.347 400.194V398.934H40.021V398.086H42.4609V400.552Z" fill="#393939"/>
<path d="M30.0698 428.343C30.0698 428.06 29.9696 427.842 29.7692 427.689C29.5718 427.536 29.2137 427.381 28.6951 427.225C28.1765 427.069 27.7639 426.895 27.4574 426.703C26.871 426.335 26.5778 425.855 26.5778 425.262C26.5778 424.744 26.7885 424.316 27.2099 423.98C27.6343 423.645 28.1838 423.477 28.8587 423.477C29.3066 423.477 29.7059 423.559 30.0565 423.724C30.4072 423.889 30.6827 424.125 30.8831 424.431C31.0835 424.735 31.1837 425.072 31.1837 425.444H30.0698C30.0698 425.108 29.9637 424.845 29.7515 424.657C29.5423 424.465 29.2417 424.369 28.8498 424.369C28.4844 424.369 28.2 424.448 27.9967 424.604C27.7963 424.76 27.6961 424.978 27.6961 425.258C27.6961 425.494 27.8052 425.691 28.0232 425.85C28.2413 426.006 28.6008 426.16 29.1018 426.31C29.6027 426.457 30.005 426.627 30.3085 426.818C30.612 427.007 30.8345 427.225 30.9759 427.472C31.1174 427.717 31.1881 428.004 31.1881 428.334C31.1881 428.871 30.9818 429.298 30.5693 429.616C30.1597 429.932 29.6027 430.089 28.8984 430.089C28.4328 430.089 28.0041 430.004 27.6122 429.833C27.2232 429.659 26.9196 429.42 26.7016 429.117C26.4865 428.813 26.3789 428.46 26.3789 428.056H27.4972C27.4972 428.421 27.618 428.704 27.8597 428.905C28.1013 429.105 28.4476 429.205 28.8984 429.205C29.2874 429.205 29.5792 429.127 29.7736 428.971C29.9711 428.812 30.0698 428.603 30.0698 428.343Z" fill="#393939"/>
<path d="M34.437 428.6L36.0725 423.565H37.3013L34.9851 430.001H33.9021L31.5948 423.565H32.8192L34.437 428.6Z" fill="#393939"/>
<path d="M42.9017 429.165C42.6689 429.469 42.3463 429.699 41.9337 429.855C41.5211 430.011 41.0526 430.089 40.5281 430.089C39.9888 430.089 39.5114 429.967 39.0959 429.722C38.6804 429.478 38.3592 429.129 38.1323 428.675C37.9083 428.218 37.7919 427.686 37.7831 427.079V426.575C37.7831 425.603 38.0159 424.844 38.4815 424.299C38.9471 423.751 39.5969 423.477 40.4308 423.477C41.1469 423.477 41.7156 423.653 42.137 424.007C42.5584 424.361 42.8118 424.87 42.8973 425.536H41.8011C41.6773 424.761 41.2279 424.374 40.4529 424.374C39.952 424.374 39.5703 424.555 39.3081 424.918C39.0488 425.277 38.9147 425.806 38.9058 426.504V426.999C38.9058 427.695 39.0517 428.236 39.3434 428.622C39.6381 429.005 40.0463 429.196 40.5678 429.196C41.1395 429.196 41.5462 429.067 41.7878 428.807V427.548H40.4618V426.699H42.9017V429.165Z" fill="#393939"/>
<line x1="17" y1="354.289" x2="258.404" y2="354.289" stroke="#EBEBEB" stroke-width="0.754386"/>
<line x1="17" y1="382.957" x2="258.404" y2="382.957" stroke="#EBEBEB" stroke-width="0.754386"/>
<line x1="17" y1="411.623" x2="258.404" y2="411.623" stroke="#EBEBEB" stroke-width="0.754386"/>
<rect x="179.947" y="359.193" width="69.4035" height="19.614" rx="2.26316" fill="#F9F9FA"/>
<path d="M209.811 368.219H210.748C210.748 367.538 211.3 367.038 212.03 367.038C212.706 367.038 213.148 367.498 213.148 368.086C213.148 368.586 212.953 368.913 212.113 369.77L209.864 372.038V372.718H214.226V371.883H211.19V371.861L212.639 370.407C213.78 369.266 214.125 368.758 214.125 368.024C214.125 367.021 213.28 366.221 212.03 366.221C210.748 366.221 209.811 367.061 209.811 368.219Z" fill="#393939"/>
<path d="M216.825 371.008L217.851 372.718H218.903L217.396 370.367L218.921 368.068H217.869L216.865 369.752H216.848L215.831 368.068H214.761L216.273 370.398L214.739 372.718H215.773L216.803 371.008H216.825Z" fill="#393939"/>
<path fill-rule="evenodd" clip-rule="evenodd" d="M239.544 374.533C236.489 374.533 234.012 372.056 234.012 369.001C234.012 365.946 236.489 363.469 239.544 363.469C242.599 363.469 245.076 365.946 245.076 369.001C245.076 372.056 242.599 374.533 239.544 374.533ZM239.544 373.528C242.044 373.528 244.071 371.501 244.071 369.001C244.071 366.502 242.044 364.475 239.544 364.475C237.045 364.475 235.018 366.502 235.018 369.001C235.018 371.501 237.045 373.528 239.544 373.528ZM242.058 368.498H240.046V366.486H239.04V368.498H237.029V369.503H239.04V371.515H240.046V369.503H242.058V368.498Z" fill="#393939"/>
<path fill-rule="evenodd" clip-rule="evenodd" d="M189.755 374.533C186.699 374.533 184.223 372.056 184.223 369.001C184.223 365.946 186.699 363.469 189.755 363.469C192.81 363.469 195.287 365.946 195.287 369.001C195.287 372.056 192.81 374.533 189.755 374.533ZM189.755 373.528C192.255 373.528 194.282 371.501 194.282 369.001C194.282 366.502 192.255 364.475 189.755 364.475C187.255 364.475 185.229 366.502 185.229 369.001C185.229 371.501 187.255 373.528 189.755 373.528ZM187.24 368.497V369.503H192.269V368.497H187.24Z" fill="#393939"/>
</g>
<g opacity="0.3" filter="url(#filter2_f)">
<rect x="149" y="44" width="171" height="36" fill="#A0A0A0"/>
</g>
<g clip-path="url(#clip1)">
<rect x="138" y="40" width="193" height="50" rx="9" fill="white"/>
<rect x="138" y="40" width="193" height="50" rx="22" fill="white"/>
<rect x="226" y="52" width="93" height="26" rx="7" fill="#F9F9FA"/>
<path d="M272.026 70.9995H273.471V59.0215H272.01L268.822 61.3125V62.8149L271.993 60.6069H272.026V70.9995Z" fill="#393939"/>
<rect x="150" y="52" width="26" height="26" rx="7" fill="#F9F9FA"/>
<path fill-rule="evenodd" clip-rule="evenodd" d="M166.201 64.5307C167.707 65.0951 168.779 66.5481 168.779 68.2515C168.779 70.4453 167.001 72.2237 164.807 72.2237H158.668V57.7793H163.362C165.556 57.7793 167.335 59.5577 167.335 61.7515C167.335 62.8334 166.902 63.8143 166.201 64.5307ZM163.362 64.2793C164.758 64.2793 165.89 63.1476 165.89 61.7515C165.89 60.3555 164.758 59.2237 163.362 59.2237H160.112V64.2793H163.362ZM160.112 70.7793V65.7237H164.807C166.203 65.7237 167.335 66.8555 167.335 68.2515C167.335 69.6476 166.203 70.7793 164.807 70.7793H160.112Z" fill="#393939"/>
<rect x="188" y="52" width="26" height="26" rx="7" fill="#F9F9FA"/>
<path d="M203.025 59.2237L200.457 70.7793H203.168V72.2237H196.307V70.7793H198.977L201.545 59.2237H199.196V57.7793H206.057V59.2237H203.025Z" fill="#393939"/>
<rect x="293" y="52" width="26" height="26" rx="7" fill="#F9F9FA"/>
<path fill-rule="evenodd" clip-rule="evenodd" d="M306.001 72.9455C301.613 72.9455 298.057 69.3887 298.057 65.0011C298.057 60.6135 301.613 57.0566 306.001 57.0566C310.389 57.0566 313.946 60.6135 313.946 65.0011C313.946 69.3887 310.389 72.9455 306.001 72.9455ZM306.001 71.5011C309.591 71.5011 312.501 68.5909 312.501 65.0011C312.501 61.4112 309.591 58.5011 306.001 58.5011C302.411 58.5011 299.501 61.4112 299.501 65.0011C299.501 68.5909 302.411 71.5011 306.001 71.5011ZM309.612 64.2789H306.723V61.39H305.279V64.2789H302.39V65.7233H305.279V68.6122H306.723V65.7233H309.612V64.2789Z" fill="#393939"/>
<rect x="226" y="52" width="26" height="26" rx="7" fill="#F9F9FA"/>
<path fill-rule="evenodd" clip-rule="evenodd" d="M239.001 72.9455C234.613 72.9455 231.057 69.3887 231.057 65.0011C231.057 60.6135 234.613 57.0566 239.001 57.0566C243.389 57.0566 246.946 60.6135 246.946 65.0011C246.946 69.3887 243.389 72.9455 239.001 72.9455ZM239.001 71.5011C242.591 71.5011 245.501 68.5909 245.501 65.0011C245.501 61.4112 242.591 58.5011 239.001 58.5011C235.411 58.5011 232.501 61.4112 232.501 65.0011C232.501 68.5909 235.411 71.5011 239.001 71.5011ZM235.39 64.2789V65.7233H242.612V64.2789H235.39Z" fill="#393939"/>
</g>
<g opacity="0.3" filter="url(#filter3_f)">
<rect x="664" y="121" width="116" height="215" fill="#A0A0A0"/>
</g>
<rect x="655" y="103" width="134" height="211" rx="5" fill="white"/>
<mask id="mask0" mask-type="alpha" maskUnits="userSpaceOnUse" x="664" y="112" width="116" height="101">
<rect x="664" y="112" width="116" height="101" fill="url(#paint0_linear)"/>
</mask>
<g mask="url(#mask0)">
<rect x="664" y="112" width="116" height="101" rx="2" fill="url(#paint1_linear)"/>
<g filter="url(#filter4_f)">
<circle cx="648" cy="93" r="74" fill="white"/>
</g>
</g>
<rect x="664" y="219" width="15" height="15" rx="2" fill="#F13D35"/>
<rect x="684" y="219" width="15" height="15" rx="2" fill="#E6285F"/>
<rect x="704" y="219" width="15" height="15" rx="2" fill="#9A36AA"/>
<rect x="724" y="219" width="15" height="15" rx="2" fill="#714DB5"/>
<rect x="744" y="219" width="15" height="15" rx="2" fill="#5A68B7"/>
<rect x="765" y="219" width="15" height="15" rx="2" fill="#4FA6F0"/>
<rect x="664" y="240" width="15" height="15" rx="2" fill="#FF915A"/>
<rect x="684" y="240" width="15" height="15" rx="2" fill="#FF6D4B"/>
<rect x="704" y="240" width="15" height="15" rx="2" fill="#FFA97C"/>
<rect x="724" y="240" width="15" height="15" rx="2" fill="#FFB555"/>
<rect x="744" y="240" width="15" height="15" rx="2" fill="#FFCAB0"/>
<rect x="764" y="240" width="15" height="15" rx="2" fill="#FFE9DF"/>
<rect x="664" y="261" width="115" height="17" rx="2" fill="#EFF1F2"/>
<path d="M690.061 272H690.529L690.797 270.681H691.654L691.746 270.21H690.892L691.137 269.019H691.958L692.05 268.552H691.235L691.497 267.279H691.029L690.764 268.552H689.675L689.93 267.279H689.466L689.201 268.552H688.393L688.298 269.019H689.106L688.867 270.21H688.092L688 270.681H688.766L688.501 272H688.965L689.233 270.681H690.329L690.061 272ZM689.325 270.22L689.57 269.013H690.673L690.427 270.22H689.325Z" fill="#1E1E1E"/>
<path d="M694.141 272.082C695.109 272.082 695.812 271.401 695.812 270.469C695.812 269.572 695.145 268.908 694.245 268.908C693.604 268.908 693.12 269.248 692.927 269.674H692.917C692.937 268.418 693.385 267.717 694.173 267.717C694.657 267.717 695.011 267.963 695.148 268.388H695.747C695.6 267.665 694.981 267.197 694.18 267.197C693.025 267.197 692.348 268.13 692.348 269.72C692.348 271.476 693.27 272.082 694.141 272.082ZM694.134 271.558C693.529 271.558 693.058 271.077 693.058 270.472C693.058 269.87 693.519 269.425 694.144 269.425C694.769 269.425 695.214 269.87 695.214 270.488C695.214 271.084 694.736 271.558 694.134 271.558Z" fill="#1E1E1E"/>
<path d="M697.945 272.078C699.1 272.078 699.774 271.149 699.774 269.559C699.774 267.77 698.825 267.197 697.981 267.197C697.013 267.197 696.31 267.878 696.31 268.81C696.31 269.706 696.977 270.371 697.877 270.371C698.479 270.371 698.995 270.066 699.195 269.599H699.205C699.188 270.852 698.753 271.565 697.952 271.565C697.461 271.565 697.091 271.339 696.961 270.904H696.362C696.499 271.614 697.131 272.078 697.945 272.078ZM697.978 269.854C697.36 269.854 696.905 269.406 696.905 268.79C696.905 268.198 697.383 267.727 697.988 267.727C698.596 267.727 699.067 268.202 699.067 268.807C699.067 269.409 698.603 269.854 697.978 269.854Z" fill="#1E1E1E"/>
<path d="M700.53 267.279V272H702.116C703.52 272 704.344 271.126 704.344 269.638C704.344 268.153 703.517 267.279 702.116 267.279H700.53ZM701.119 267.809H702.077C703.15 267.809 703.742 268.463 703.742 269.644C703.742 270.816 703.147 271.47 702.077 271.47H701.119V267.809Z" fill="#1E1E1E"/>
<path d="M705.273 272H705.892L707.992 267.825V267.279H704.868V267.802H707.41V267.816L705.273 272Z" fill="#1E1E1E"/>
<path d="M708.741 267.279V272H710.328C711.731 272 712.556 271.126 712.556 269.638C712.556 268.153 711.728 267.279 710.328 267.279H708.741ZM709.33 267.809H710.289C711.362 267.809 711.954 268.463 711.954 269.644C711.954 270.816 711.358 271.47 710.289 271.47H709.33V267.809Z" fill="#1E1E1E"/>
<path d="M716.213 271.47H713.877V269.847H716.092V269.324H713.877V267.809H716.213V267.279H713.289V272H716.213V271.47Z" fill="#1E1E1E"/>
<path d="M673.226 272V267.279H672.637V269.321H670.046V267.279H669.457V272H670.046V269.851H672.637V272H673.226Z" fill="#6A6E72"/>
<path d="M677.067 271.47H674.731V269.847H676.945V269.324H674.731V267.809H677.067V267.279H674.142V272H677.067V271.47Z" fill="#6A6E72"/>
<path d="M677.534 272H678.202L679.474 270.119H679.497L680.75 272H681.457L679.864 269.661V269.641L681.493 267.279H680.822L679.546 269.177H679.523L678.264 267.279H677.554L679.141 269.612V269.635L677.534 272Z" fill="#6A6E72"/>
<rect x="664" y="284" width="53" height="17" rx="2" fill="#7D2BE5"/>
<path d="M683.229 293.734C683.284 294.549 683.971 295.079 685.002 295.079C686.058 295.079 686.745 294.533 686.745 293.659C686.745 292.992 686.356 292.599 685.371 292.383L684.848 292.269C684.203 292.128 683.952 291.873 683.952 291.5C683.952 291.019 684.406 290.731 684.995 290.731C685.61 290.731 686.019 291.048 686.071 291.565H686.66C686.634 290.764 685.954 290.201 685.011 290.201C684.033 290.201 683.346 290.748 683.346 291.526C683.346 292.197 683.755 292.625 684.701 292.831L685.224 292.946C685.878 293.09 686.14 293.352 686.14 293.747C686.14 294.212 685.676 294.549 685.034 294.549C684.357 294.549 683.886 294.241 683.817 293.734H683.229Z" fill="white"/>
<path d="M688.342 295.059C688.8 295.059 689.232 294.804 689.435 294.415H689.448V295H689.987V292.648C689.987 291.971 689.484 291.539 688.685 291.539C687.881 291.539 687.377 291.991 687.337 292.58H687.887C687.959 292.246 688.234 292.04 688.672 292.04C689.143 292.04 689.418 292.288 689.418 292.704V292.988L688.443 293.044C687.658 293.09 687.21 293.456 687.21 294.039C687.21 294.65 687.665 295.059 688.342 295.059ZM688.469 294.575C688.06 294.575 687.789 294.362 687.789 294.039C687.789 293.718 688.051 293.515 688.509 293.486L689.418 293.43V293.708C689.418 294.199 689.006 294.575 688.469 294.575Z" fill="white"/>
<path d="M693.501 291.598H692.909L691.967 294.395H691.954L691.015 291.598H690.416L691.669 295H692.251L693.501 291.598Z" fill="white"/>
<path d="M696.108 294.026C696.013 294.346 695.696 294.565 695.264 294.565C694.653 294.565 694.27 294.137 694.27 293.486V293.453H696.71V293.237C696.71 292.207 696.144 291.539 695.225 291.539C694.286 291.539 693.684 292.256 693.684 293.312C693.684 294.382 694.276 295.059 695.251 295.059C695.994 295.059 696.57 294.621 696.668 294.026H696.108ZM695.215 292.033C695.752 292.033 696.108 292.439 696.121 293.008H694.273C694.309 292.442 694.682 292.033 695.215 292.033Z" fill="white"/>
<rect x="726" y="284" width="53" height="17" rx="2" fill="#7D2BE5"/>
<path d="M746.402 295.079C747.445 295.079 748.146 294.559 748.361 293.626H747.766C747.596 294.202 747.099 294.536 746.405 294.536C745.473 294.536 744.881 293.797 744.881 292.638C744.881 291.49 745.479 290.744 746.402 290.744C747.076 290.744 747.616 291.15 747.766 291.768H748.361C748.211 290.826 747.429 290.201 746.402 290.201C745.11 290.201 744.275 291.156 744.275 292.638C744.275 294.133 745.1 295.079 746.402 295.079Z" fill="white"/>
<path d="M748.999 295H749.569V290.28H748.999V295Z" fill="white"/>
<path d="M752.595 294.026C752.5 294.346 752.183 294.565 751.751 294.565C751.139 294.565 750.756 294.137 750.756 293.486V293.453H753.197V293.237C753.197 292.207 752.631 291.539 751.711 291.539C750.773 291.539 750.171 292.256 750.171 293.312C750.171 294.382 750.763 295.059 751.738 295.059C752.48 295.059 753.056 294.621 753.154 294.026H752.595ZM751.702 292.033C752.238 292.033 752.595 292.439 752.608 293.008H750.759C750.795 292.442 751.168 292.033 751.702 292.033Z" fill="white"/>
<path d="M754.767 295.059C755.225 295.059 755.657 294.804 755.86 294.415H755.873V295H756.413V292.648C756.413 291.971 755.909 291.539 755.111 291.539C754.306 291.539 753.802 291.991 753.763 292.58H754.312C754.384 292.246 754.659 292.04 755.097 292.04C755.569 292.04 755.843 292.288 755.843 292.704V292.988L754.868 293.044C754.083 293.09 753.635 293.456 753.635 294.039C753.635 294.65 754.09 295.059 754.767 295.059ZM754.895 294.575C754.486 294.575 754.214 294.362 754.214 294.039C754.214 293.718 754.476 293.515 754.934 293.486L755.843 293.43V293.708C755.843 294.199 755.431 294.575 754.895 294.575Z" fill="white"/>
<path d="M757.136 295H757.705V292.881C757.705 292.4 757.993 292.082 758.434 292.082C758.572 292.082 758.693 292.099 758.739 292.115V291.562C758.693 291.556 758.608 291.539 758.51 291.539C758.11 291.539 757.796 291.778 757.685 292.154H757.672V291.598H757.136V295Z" fill="white"/>
<g opacity="0.3" filter="url(#filter5_f)">
<rect x="478.875" y="387.475" width="209.525" height="50.025" rx="5" fill="#A0A0A0"/>
</g>
<g clip-path="url(#clip2)">
<rect x="468" y="365" width="232" height="63.8" rx="6.89655" fill="white"/>
<rect x="468" y="365" width="232" height="63.8" fill="white"/>
<path d="M479.853 381.802C481.263 381.802 482.223 381.058 482.457 379.792H481.51C481.318 380.531 480.711 380.969 479.857 380.969C478.731 380.969 478.018 380.064 478.018 378.633C478.018 377.214 478.74 376.3 479.853 376.3C480.685 376.3 481.34 376.814 481.51 377.6H482.453C482.291 376.322 481.242 375.468 479.853 375.468C478.141 375.468 477.045 376.691 477.045 378.633C477.045 380.587 478.132 381.802 479.853 381.802Z" fill="#393939"/>
<path d="M485.125 381.785C486.403 381.785 487.244 380.905 487.244 379.465C487.244 378.029 486.399 377.15 485.125 377.15C483.85 377.15 483.005 378.029 483.005 379.465C483.005 380.905 483.846 381.785 485.125 381.785ZM485.125 381.029C484.407 381.029 483.94 380.459 483.94 379.465C483.94 378.475 484.407 377.906 485.125 377.906C485.843 377.906 486.31 378.475 486.31 379.465C486.31 380.459 485.847 381.029 485.125 381.029Z" fill="#393939"/>
<path d="M490.282 377.159C489.636 377.159 489.122 377.486 488.859 378H488.842V377.231H487.954V383.178H488.871V380.965H488.893C489.148 381.462 489.657 381.776 490.299 381.776C491.42 381.776 492.164 380.88 492.164 379.465C492.164 378.051 491.416 377.159 490.282 377.159ZM490.04 380.999C489.335 380.999 488.867 380.396 488.867 379.465C488.867 378.543 489.339 377.932 490.04 377.932C490.766 377.932 491.221 378.531 491.221 379.465C491.221 380.404 490.766 380.999 490.04 380.999Z" fill="#393939"/>
<path d="M493.2 383.365C494.126 383.365 494.568 383.017 494.95 381.933L496.624 377.231H495.656L494.526 380.867H494.509L493.379 377.231H492.385L493.999 381.704C493.999 381.708 493.918 381.972 493.918 381.98C493.778 382.439 493.549 382.617 493.124 382.617C493.047 382.617 492.894 382.617 492.826 382.6V383.344C492.894 383.356 493.124 383.365 493.2 383.365Z" fill="#393939"/>
<path d="M498.965 381.7H499.882V375.57H498.965V381.7Z" fill="#393939"/>
<path d="M501.314 376.509C501.607 376.509 501.841 376.271 501.841 375.982C501.841 375.689 501.607 375.455 501.314 375.455C501.021 375.455 500.783 375.689 500.783 375.982C500.783 376.271 501.021 376.509 501.314 376.509ZM500.855 381.7H501.773V377.231H500.855V381.7Z" fill="#393939"/>
<path d="M502.712 381.7H503.629V379.096C503.629 378.403 504.046 377.944 504.691 377.944C505.328 377.944 505.643 378.314 505.643 378.985V381.7H506.565V378.807C506.565 377.783 506 377.154 505.014 377.154C504.326 377.154 503.85 377.469 503.608 377.978H503.587V377.231H502.712V381.7Z" fill="#393939"/>
<path d="M508.413 379.147H508.404V375.57H507.486V381.7H508.404V380.094L508.786 379.716L510.303 381.7H511.369L509.445 379.155L511.297 377.231H510.218L508.413 379.147Z" fill="#393939"/>
<path d="M480.561 412.006C480.561 411.734 480.465 411.525 480.272 411.377C480.082 411.23 479.738 411.082 479.24 410.931C478.741 410.781 478.345 410.614 478.05 410.43C477.487 410.076 477.205 409.615 477.205 409.045C477.205 408.547 477.407 408.136 477.812 407.813C478.22 407.491 478.748 407.329 479.397 407.329C479.827 407.329 480.211 407.408 480.548 407.567C480.885 407.726 481.15 407.952 481.342 408.247C481.535 408.538 481.631 408.863 481.631 409.219H480.561C480.561 408.897 480.459 408.645 480.255 408.463C480.054 408.279 479.765 408.187 479.388 408.187C479.037 408.187 478.764 408.262 478.568 408.412C478.376 408.562 478.28 408.772 478.28 409.041C478.28 409.268 478.384 409.457 478.594 409.61C478.804 409.76 479.149 409.908 479.63 410.052C480.112 410.194 480.498 410.357 480.79 410.541C481.082 410.722 481.296 410.931 481.432 411.169C481.568 411.404 481.636 411.681 481.636 411.998C481.636 412.513 481.437 412.924 481.041 413.23C480.647 413.533 480.112 413.684 479.435 413.684C478.988 413.684 478.576 413.602 478.199 413.438C477.825 413.271 477.533 413.041 477.324 412.75C477.117 412.458 477.014 412.118 477.014 411.73H478.088C478.088 412.081 478.205 412.353 478.437 412.546C478.669 412.738 479.002 412.835 479.435 412.835C479.809 412.835 480.089 412.76 480.276 412.609C480.466 412.456 480.561 412.255 480.561 412.006Z" fill="#393939"/>
<path d="M483.496 409.504C483.833 409.113 484.259 408.918 484.775 408.918C485.755 408.918 486.252 409.477 486.266 410.596V413.599H485.234V410.634C485.234 410.317 485.164 410.093 485.025 409.963C484.89 409.83 484.688 409.763 484.422 409.763C484.009 409.763 483.7 409.947 483.496 410.315V413.599H482.464V407.074H483.496V409.504Z" fill="#393939"/>
<path d="M490.059 413.599C490.014 413.511 489.974 413.368 489.94 413.17C489.612 413.513 489.21 413.684 488.734 413.684C488.272 413.684 487.896 413.552 487.604 413.289C487.312 413.026 487.167 412.7 487.167 412.312C487.167 411.822 487.348 411.447 487.71 411.186C488.076 410.923 488.597 410.791 489.274 410.791H489.906V410.49C489.906 410.252 489.84 410.062 489.707 409.92C489.574 409.776 489.371 409.704 489.099 409.704C488.864 409.704 488.672 409.763 488.522 409.882C488.372 409.998 488.296 410.147 488.296 410.328H487.264C487.264 410.076 487.348 409.841 487.515 409.623C487.682 409.402 487.908 409.229 488.195 409.105C488.483 408.98 488.805 408.918 489.159 408.918C489.697 408.918 490.126 409.054 490.446 409.326C490.766 409.595 490.93 409.974 490.939 410.464V412.537C490.939 412.951 490.997 413.281 491.113 413.527V413.599H490.059ZM488.925 412.856C489.129 412.856 489.32 412.806 489.499 412.707C489.68 412.608 489.816 412.475 489.906 412.308V411.441H489.35C488.968 411.441 488.68 411.508 488.488 411.641C488.295 411.774 488.199 411.962 488.199 412.206C488.199 412.404 488.264 412.563 488.394 412.682C488.527 412.798 488.704 412.856 488.925 412.856Z" fill="#393939"/>
<path d="M494.426 409.946C494.29 409.923 494.15 409.912 494.006 409.912C493.533 409.912 493.214 410.093 493.05 410.456V413.599H492.018V409.003H493.003L493.029 409.517C493.278 409.118 493.624 408.918 494.065 408.918C494.213 408.918 494.334 408.938 494.431 408.977L494.426 409.946Z" fill="#393939"/>
<path d="M497.018 413.684C496.364 413.684 495.833 413.479 495.425 413.068C495.02 412.655 494.817 412.105 494.817 411.42V411.293C494.817 410.834 494.905 410.425 495.081 410.065C495.259 409.702 495.508 409.421 495.828 409.219C496.148 409.018 496.505 408.918 496.899 408.918C497.525 408.918 498.008 409.118 498.347 409.517C498.69 409.916 498.861 410.481 498.861 411.212V411.628H495.858C495.889 412.008 496.015 412.308 496.236 412.529C496.46 412.75 496.74 412.86 497.077 412.86C497.55 412.86 497.935 412.669 498.233 412.287L498.789 412.818C498.605 413.092 498.359 413.306 498.05 413.459C497.744 413.609 497.4 413.684 497.018 413.684ZM496.895 409.746C496.611 409.746 496.382 409.845 496.206 410.044C496.034 410.242 495.923 410.518 495.875 410.872H497.842V410.796C497.819 410.45 497.727 410.189 497.566 410.014C497.404 409.835 497.181 409.746 496.895 409.746Z" fill="#393939"/>
<path d="M505.866 411.348C505.866 412.061 505.706 412.629 505.386 413.051C505.069 413.473 504.632 413.684 504.074 413.684C503.536 413.684 503.117 413.49 502.816 413.102L502.765 413.599H501.831V407.074H502.863V409.445C503.16 409.093 503.561 408.918 504.065 408.918C504.626 408.918 505.066 409.126 505.386 409.542C505.706 409.959 505.866 410.541 505.866 411.288V411.348ZM504.834 411.259C504.834 410.76 504.746 410.386 504.571 410.137C504.395 409.888 504.14 409.763 503.806 409.763C503.359 409.763 503.044 409.959 502.863 410.349V412.244C503.047 412.643 503.364 412.843 503.815 412.843C504.137 412.843 504.387 412.723 504.562 412.482C504.738 412.241 504.828 411.877 504.834 411.39V411.259Z" fill="#393939"/>
<path d="M508.292 412.121L509.227 409.003H510.327L508.5 414.296C508.22 415.069 507.744 415.456 507.073 415.456C506.923 415.456 506.757 415.43 506.576 415.379V414.581L506.771 414.593C507.032 414.593 507.227 414.545 507.357 414.449C507.491 414.355 507.595 414.197 507.672 413.973L507.821 413.578L506.206 409.003H507.319L508.292 412.121Z" fill="#393939"/>
<path d="M514.061 409.003L514.091 409.483C514.413 409.106 514.855 408.918 515.416 408.918C516.031 408.918 516.451 409.153 516.678 409.623C517.012 409.153 517.482 408.918 518.088 408.918C518.595 408.918 518.972 409.058 519.218 409.338C519.467 409.619 519.595 410.032 519.6 410.579V413.599H518.568V410.609C518.568 410.317 518.504 410.103 518.377 409.967C518.249 409.831 518.038 409.763 517.744 409.763C517.509 409.763 517.316 409.827 517.166 409.954C517.019 410.079 516.916 410.243 516.856 410.447L516.86 413.599H515.828V410.575C515.814 410.034 515.538 409.763 515 409.763C514.586 409.763 514.293 409.932 514.12 410.269V413.599H513.088V409.003H514.061Z" fill="#393939"/>
<path d="M523.407 413.599C523.361 413.511 523.322 413.368 523.288 413.17C522.959 413.513 522.557 413.684 522.081 413.684C521.62 413.684 521.243 413.552 520.951 413.289C520.66 413.026 520.514 412.7 520.514 412.312C520.514 411.822 520.695 411.447 521.057 411.186C521.423 410.923 521.944 410.791 522.621 410.791H523.254V410.49C523.254 410.252 523.187 410.062 523.054 409.92C522.921 409.776 522.718 409.704 522.447 409.704C522.211 409.704 522.019 409.763 521.869 409.882C521.719 409.998 521.644 410.147 521.644 410.328H520.611C520.611 410.076 520.695 409.841 520.862 409.623C521.029 409.402 521.256 409.229 521.542 409.105C521.831 408.98 522.152 408.918 522.506 408.918C523.044 408.918 523.473 409.054 523.793 409.326C524.113 409.595 524.277 409.974 524.286 410.464V412.537C524.286 412.951 524.344 413.281 524.46 413.527V413.599H523.407ZM522.272 412.856C522.476 412.856 522.667 412.806 522.846 412.707C523.027 412.608 523.163 412.475 523.254 412.308V411.441H522.697C522.315 411.441 522.027 411.508 521.835 411.641C521.642 411.774 521.546 411.962 521.546 412.206C521.546 412.404 521.611 412.563 521.741 412.682C521.874 412.798 522.051 412.856 522.272 412.856Z" fill="#393939"/>
<path d="M526.465 413.599H525.433V409.003H526.465V413.599ZM525.369 407.809C525.369 407.651 525.419 407.519 525.518 407.414C525.62 407.309 525.764 407.257 525.951 407.257C526.138 407.257 526.283 407.309 526.384 407.414C526.486 407.519 526.537 407.651 526.537 407.809C526.537 407.965 526.486 408.095 526.384 408.2C526.283 408.302 526.138 408.353 525.951 408.353C525.764 408.353 525.62 408.302 525.518 408.2C525.419 408.095 525.369 407.965 525.369 407.809Z" fill="#393939"/>
<path d="M528.691 413.599H527.659V407.074H528.691V413.599Z" fill="#393939"/>
<line x1="468" y1="392.188" x2="700" y2="392.188" stroke="#EBEBEB" stroke-width="0.725"/>
<rect x="547.025" y="401.25" width="144.275" height="18.85" rx="2.175" fill="#F9F9FA"/>
<path fill-rule="evenodd" clip-rule="evenodd" d="M677.398 405.965L678.058 410.583L678.431 410.676L678.058 410.77L677.398 415.388L686.821 410.676L677.398 405.965ZM678.924 409.802L678.617 407.653L684.66 410.675L678.617 413.697L678.924 411.548L682.417 410.675L678.924 409.802Z" fill="#393939"/>
<path d="M558.226 413.684C557.603 413.684 557.096 413.48 556.705 413.072C556.315 412.662 556.119 412.114 556.119 411.428V411.284C556.119 410.828 556.206 410.422 556.378 410.065C556.554 409.705 556.797 409.425 557.109 409.224C557.423 409.02 557.763 408.918 558.128 408.918C558.726 408.918 559.19 409.115 559.522 409.508C559.853 409.902 560.019 410.466 560.019 411.199V411.526H556.905C556.916 411.979 557.048 412.346 557.3 412.626C557.555 412.904 557.878 413.043 558.269 413.043C558.546 413.043 558.781 412.986 558.974 412.873C559.166 412.76 559.335 412.609 559.479 412.423L559.959 412.796C559.574 413.388 558.996 413.684 558.226 413.684ZM558.128 409.564C557.811 409.564 557.545 409.68 557.33 409.912C557.115 410.141 556.981 410.464 556.931 410.88H559.233V410.821C559.21 410.422 559.103 410.113 558.91 409.895C558.718 409.674 558.457 409.564 558.128 409.564Z" fill="#D3D3D3"/>
<path d="M562.474 410.681L563.494 409.003H564.411L562.908 411.276L564.458 413.599H563.549L562.487 411.879L561.425 413.599H560.512L562.062 411.276L560.558 409.003H561.467L562.474 410.681Z" fill="#D3D3D3"/>
<path d="M568.086 413.599C568.041 413.509 568.004 413.347 567.975 413.115C567.61 413.494 567.174 413.684 566.667 413.684C566.214 413.684 565.842 413.557 565.55 413.302C565.261 413.044 565.117 412.718 565.117 412.325C565.117 411.846 565.298 411.475 565.66 411.212C566.026 410.946 566.538 410.812 567.198 410.812H567.963V410.451C567.963 410.177 567.881 409.959 567.716 409.797C567.552 409.633 567.31 409.551 566.99 409.551C566.71 409.551 566.474 409.622 566.285 409.763C566.095 409.905 566 410.076 566 410.277H565.21C565.21 410.048 565.291 409.827 565.452 409.615C565.616 409.399 565.837 409.229 566.115 409.105C566.395 408.98 566.702 408.918 567.037 408.918C567.566 408.918 567.981 409.051 568.281 409.317C568.581 409.581 568.737 409.944 568.749 410.409V412.524C568.749 412.946 568.802 413.282 568.91 413.531V413.599H568.086ZM566.782 413C567.028 413 567.262 412.937 567.483 412.809C567.704 412.682 567.864 412.516 567.963 412.312V411.369H567.347C566.384 411.369 565.902 411.651 565.902 412.214C565.902 412.461 565.985 412.653 566.149 412.792C566.313 412.931 566.524 413 566.782 413Z" fill="#D3D3D3"/>
<path d="M570.72 409.003L570.741 409.513C571.078 409.116 571.532 408.918 572.105 408.918C572.747 408.918 573.185 409.164 573.417 409.657C573.57 409.436 573.768 409.258 574.012 409.122C574.258 408.986 574.549 408.918 574.883 408.918C575.891 408.918 576.404 409.452 576.421 410.519V413.599H575.635V410.566C575.635 410.238 575.56 409.993 575.41 409.831C575.259 409.667 575.007 409.585 574.653 409.585C574.362 409.585 574.12 409.673 573.927 409.848C573.734 410.021 573.623 410.255 573.591 410.549V413.599H572.801V410.587C572.801 409.919 572.474 409.585 571.82 409.585C571.304 409.585 570.952 409.804 570.762 410.243V413.599H569.976V409.003H570.72Z" fill="#D3D3D3"/>
<path d="M581.493 411.352C581.493 412.052 581.333 412.615 581.013 413.043C580.693 413.47 580.259 413.684 579.713 413.684C579.155 413.684 578.716 413.507 578.396 413.153V415.366H577.61V409.003H578.328L578.366 409.513C578.686 409.116 579.131 408.918 579.7 408.918C580.252 408.918 580.688 409.126 581.008 409.542C581.331 409.959 581.493 410.538 581.493 411.28V411.352ZM580.707 411.263C580.707 410.745 580.596 410.335 580.375 410.035C580.155 409.735 579.852 409.585 579.466 409.585C578.991 409.585 578.634 409.796 578.396 410.218V412.414C578.631 412.833 578.991 413.043 579.475 413.043C579.852 413.043 580.15 412.894 580.371 412.597C580.595 412.296 580.707 411.852 580.707 411.263Z" fill="#D3D3D3"/>
<path d="M583.349 413.599H582.563V407.074H583.349V413.599Z" fill="#D3D3D3"/>
<path d="M586.518 413.684C585.895 413.684 585.388 413.48 584.997 413.072C584.607 412.662 584.411 412.114 584.411 411.428V411.284C584.411 410.828 584.498 410.422 584.67 410.065C584.846 409.705 585.089 409.425 585.401 409.224C585.715 409.02 586.055 408.918 586.42 408.918C587.018 408.918 587.482 409.115 587.814 409.508C588.145 409.902 588.311 410.466 588.311 411.199V411.526H585.197C585.208 411.979 585.34 412.346 585.592 412.626C585.847 412.904 586.17 413.043 586.561 413.043C586.838 413.043 587.073 412.986 587.266 412.873C587.458 412.76 587.627 412.609 587.771 412.423L588.251 412.796C587.866 413.388 587.288 413.684 586.518 413.684ZM586.42 409.564C586.103 409.564 585.837 409.68 585.622 409.912C585.407 410.141 585.273 410.464 585.223 410.88H587.525V410.821C587.502 410.422 587.395 410.113 587.202 409.895C587.01 409.674 586.749 409.564 586.42 409.564Z" fill="#D3D3D3"/>
<path d="M596.013 411.467C595.979 412.152 595.809 412.693 595.503 413.089C595.197 413.486 594.788 413.684 594.275 413.684C593.746 413.684 593.406 413.446 593.256 412.971C593.103 413.211 592.927 413.391 592.729 413.51C592.533 413.626 592.331 413.684 592.121 413.684C591.719 413.684 591.415 413.52 591.208 413.191C591.001 412.863 590.925 412.408 590.979 411.828C591.021 411.36 591.127 410.944 591.297 410.579C591.47 410.211 591.691 409.922 591.96 409.712C592.232 409.503 592.516 409.398 592.814 409.398C593.043 409.398 593.248 409.429 593.43 409.491C593.611 409.551 593.815 409.67 594.041 409.848L593.821 412.202C593.767 412.856 593.948 413.183 594.364 413.183C594.684 413.183 594.943 413.024 595.142 412.707C595.34 412.39 595.448 411.976 595.465 411.467C595.518 410.365 595.313 409.525 594.849 408.948C594.387 408.37 593.683 408.081 592.737 408.081C592.168 408.081 591.663 408.223 591.221 408.506C590.779 408.786 590.431 409.193 590.176 409.725C589.921 410.257 589.778 410.872 589.747 411.569C589.713 412.271 589.798 412.881 590.002 413.4C590.205 413.915 590.516 414.309 590.932 414.581C591.351 414.855 591.857 414.993 592.448 414.993C592.703 414.993 592.958 414.961 593.213 414.899C593.471 414.837 593.685 414.756 593.855 414.657L594.012 415.146C593.836 415.256 593.602 415.347 593.311 415.417C593.022 415.488 592.729 415.524 592.431 415.524C591.723 415.524 591.115 415.364 590.605 415.044C590.095 414.726 589.713 414.268 589.458 413.667C589.206 413.07 589.097 412.37 589.131 411.569C589.165 410.79 589.339 410.09 589.653 409.47C589.968 408.847 590.394 408.367 590.932 408.03C591.47 407.69 592.077 407.52 592.754 407.52C593.459 407.52 594.064 407.679 594.568 407.996C595.072 408.313 595.448 408.771 595.694 409.368C595.94 409.966 596.047 410.665 596.013 411.467ZM591.654 411.828C591.614 412.23 591.651 412.539 591.765 412.754C591.881 412.969 592.063 413.077 592.312 413.077C592.482 413.077 592.645 413.004 592.801 412.86C592.96 412.716 593.09 412.509 593.192 412.24L593.196 412.202L593.392 410.065C593.233 409.983 593.063 409.942 592.882 409.942C592.55 409.942 592.276 410.11 592.058 410.447C591.842 410.784 591.708 411.244 591.654 411.828Z" fill="#D3D3D3"/>
<path d="M598.948 413.684C598.325 413.684 597.818 413.48 597.427 413.072C597.036 412.662 596.841 412.114 596.841 411.428V411.284C596.841 410.828 596.927 410.422 597.1 410.065C597.276 409.705 597.519 409.425 597.831 409.224C598.145 409.02 598.485 408.918 598.85 408.918C599.448 408.918 599.912 409.115 600.244 409.508C600.575 409.902 600.741 410.466 600.741 411.199V411.526H597.627C597.638 411.979 597.77 412.346 598.022 412.626C598.277 412.904 598.6 413.043 598.99 413.043C599.268 413.043 599.503 412.986 599.696 412.873C599.888 412.76 600.057 412.609 600.201 412.423L600.681 412.796C600.296 413.388 599.718 413.684 598.948 413.684ZM598.85 409.564C598.533 409.564 598.267 409.68 598.052 409.912C597.836 410.141 597.703 410.464 597.652 410.88H599.955V410.821C599.932 410.422 599.824 410.113 599.632 409.895C599.439 409.674 599.179 409.564 598.85 409.564Z" fill="#D3D3D3"/>
<path d="M602.393 409.003L602.414 409.513C602.751 409.116 603.206 408.918 603.778 408.918C604.421 408.918 604.858 409.164 605.091 409.657C605.244 409.436 605.442 409.258 605.685 409.122C605.932 408.986 606.222 408.918 606.556 408.918C607.564 408.918 608.077 409.452 608.094 410.519V413.599H607.308V410.566C607.308 410.238 607.233 409.993 607.083 409.831C606.933 409.667 606.681 409.585 606.327 409.585C606.035 409.585 605.793 409.673 605.6 409.848C605.408 410.021 605.296 410.255 605.265 410.549V413.599H604.475V410.587C604.475 409.919 604.148 409.585 603.493 409.585C602.978 409.585 602.625 409.804 602.436 410.243V413.599H601.65V409.003H602.393Z" fill="#D3D3D3"/>
<path d="M612.121 413.599C612.076 413.509 612.039 413.347 612.011 413.115C611.645 413.494 611.209 413.684 610.702 413.684C610.249 413.684 609.877 413.557 609.585 413.302C609.296 413.044 609.152 412.718 609.152 412.325C609.152 411.846 609.333 411.475 609.696 411.212C610.061 410.946 610.573 410.812 611.233 410.812H611.998V410.451C611.998 410.177 611.916 409.959 611.752 409.797C611.587 409.633 611.345 409.551 611.025 409.551C610.745 409.551 610.51 409.622 610.32 409.763C610.13 409.905 610.035 410.076 610.035 410.277H609.245C609.245 410.048 609.326 409.827 609.487 409.615C609.652 409.399 609.873 409.229 610.15 409.105C610.43 408.98 610.738 408.918 611.072 408.918C611.601 408.918 612.016 409.051 612.317 409.317C612.617 409.581 612.773 409.944 612.784 410.409V412.524C612.784 412.946 612.838 413.282 612.945 413.531V413.599H612.121ZM610.817 413C611.063 413 611.297 412.937 611.518 412.809C611.739 412.682 611.899 412.516 611.998 412.312V411.369H611.382C610.419 411.369 609.938 411.651 609.938 412.214C609.938 412.461 610.02 412.653 610.184 412.792C610.348 412.931 610.559 413 610.817 413Z" fill="#D3D3D3"/>
<path d="M614.87 413.599H614.084V409.003H614.87V413.599ZM614.02 407.784C614.02 407.656 614.058 407.549 614.135 407.461C614.214 407.373 614.33 407.329 614.483 407.329C614.636 407.329 614.752 407.373 614.831 407.461C614.911 407.549 614.95 407.656 614.95 407.784C614.95 407.911 614.911 408.017 614.831 408.102C614.752 408.187 614.636 408.23 614.483 408.23C614.33 408.23 614.214 408.187 614.135 408.102C614.058 408.017 614.02 407.911 614.02 407.784Z" fill="#D3D3D3"/>
<path d="M616.985 413.599H616.199V407.074H616.985V413.599Z" fill="#D3D3D3"/>
<path d="M618.264 413.187C618.264 413.051 618.303 412.938 618.383 412.847C618.465 412.757 618.587 412.711 618.748 412.711C618.91 412.711 619.031 412.757 619.113 412.847C619.198 412.938 619.241 413.051 619.241 413.187C619.241 413.317 619.198 413.426 619.113 413.514C619.031 413.602 618.91 413.646 618.748 413.646C618.587 413.646 618.465 413.602 618.383 413.514C618.303 413.426 618.264 413.317 618.264 413.187Z" fill="#D3D3D3"/>
<path d="M622.384 413.043C622.665 413.043 622.91 412.958 623.119 412.788C623.329 412.618 623.445 412.406 623.468 412.151H624.211C624.197 412.414 624.106 412.665 623.939 412.903C623.772 413.14 623.548 413.33 623.268 413.472C622.99 413.613 622.696 413.684 622.384 413.684C621.759 413.684 621.26 413.476 620.889 413.06C620.521 412.641 620.337 412.069 620.337 411.344V411.212C620.337 410.764 620.419 410.366 620.583 410.018C620.748 409.67 620.983 409.399 621.288 409.207C621.597 409.014 621.961 408.918 622.38 408.918C622.896 408.918 623.323 409.072 623.663 409.381C624.006 409.69 624.188 410.09 624.211 410.583H623.468C623.445 410.286 623.332 410.042 623.128 409.852C622.927 409.66 622.678 409.564 622.38 409.564C621.981 409.564 621.671 409.708 621.45 409.997C621.232 410.283 621.123 410.698 621.123 411.242V411.39C621.123 411.92 621.232 412.328 621.45 412.614C621.668 412.9 621.979 413.043 622.384 413.043Z" fill="#D3D3D3"/>
<path d="M624.887 411.259C624.887 410.808 624.974 410.403 625.15 410.044C625.328 409.684 625.575 409.406 625.889 409.211C626.206 409.016 626.567 408.918 626.972 408.918C627.598 408.918 628.104 409.135 628.489 409.568C628.877 410.001 629.071 410.577 629.071 411.297V411.352C629.071 411.799 628.984 412.202 628.812 412.558C628.642 412.912 628.397 413.189 628.077 413.387C627.76 413.585 627.394 413.684 626.981 413.684C626.358 413.684 625.852 413.468 625.464 413.034C625.079 412.601 624.887 412.027 624.887 411.314V411.259ZM625.677 411.352C625.677 411.862 625.794 412.271 626.029 412.58C626.267 412.888 626.584 413.043 626.981 413.043C627.38 413.043 627.697 412.887 627.932 412.575C628.167 412.261 628.285 411.822 628.285 411.259C628.285 410.754 628.165 410.347 627.924 410.035C627.686 409.721 627.369 409.564 626.972 409.564C626.584 409.564 626.271 409.718 626.034 410.027C625.796 410.335 625.677 410.777 625.677 411.352Z" fill="#D3D3D3"/>
<path d="M630.796 409.003L630.817 409.513C631.154 409.116 631.608 408.918 632.18 408.918C632.823 408.918 633.261 409.164 633.493 409.657C633.646 409.436 633.844 409.258 634.088 409.122C634.334 408.986 634.624 408.918 634.959 408.918C635.967 408.918 636.479 409.452 636.496 410.519V413.599H635.711V410.566C635.711 410.238 635.635 409.993 635.485 409.831C635.335 409.667 635.083 409.585 634.729 409.585C634.438 409.585 634.195 409.673 634.003 409.848C633.81 410.021 633.698 410.255 633.667 410.549V413.599H632.877V410.587C632.877 409.919 632.55 409.585 631.896 409.585C631.38 409.585 631.028 409.804 630.838 410.243V413.599H630.052V409.003H630.796Z" fill="#D3D3D3"/>
</g>
<path d="M635 143H300C297.239 143 295 145.239 295 148V328.765C295 331.526 297.239 333.765 300 333.765H635C637.761 333.765 640 331.526 640 328.765V148C640 145.239 637.761 143 635 143Z" fill="#BBF02C"/>
<path d="M324.605 256.049C328.295 256.049 331.235 257.069 333.425 259.109C335.615 261.149 336.71 264.014 336.71 267.704C336.71 271.364 335.63 274.199 333.47 276.209C331.31 278.189 328.385 279.179 324.695 279.179H320.24V286.019C320.24 286.769 320.09 287.294 319.79 287.594C319.52 287.864 319.01 287.999 318.26 287.999H311.78C311.03 287.999 310.505 287.864 310.205 287.594C309.935 287.294 309.8 286.769 309.8 286.019V258.029C309.8 257.279 309.935 256.769 310.205 256.499C310.505 256.199 311.03 256.049 311.78 256.049H324.605ZM323.345 270.179C324.155 270.179 324.785 269.939 325.235 269.459C325.715 268.979 325.955 268.364 325.955 267.614C325.955 266.864 325.715 266.249 325.235 265.769C324.785 265.289 324.155 265.049 323.345 265.049H320.24V270.179H323.345Z" fill="#5F00D9"/>
<path d="M348.829 286.199C348.829 286.859 348.694 287.324 348.424 287.594C348.184 287.864 347.719 287.999 347.029 287.999H340.729C340.039 287.999 339.559 287.864 339.289 287.594C339.049 287.324 338.929 286.859 338.929 286.199V256.499C338.929 255.839 339.049 255.374 339.289 255.104C339.559 254.834 340.039 254.699 340.729 254.699H347.029C347.719 254.699 348.184 254.834 348.424 255.104C348.694 255.374 348.829 255.839 348.829 256.499V286.199Z" fill="#5F00D9"/>
<path d="M351.895 268.604C353.545 265.484 357.01 263.924 362.29 263.924C366.19 263.924 368.965 264.779 370.615 266.489C372.295 268.199 373.135 270.659 373.135 273.869V284.534C373.135 285.404 373.015 286.019 372.775 286.379C372.565 286.739 372.1 287.069 371.38 287.369C369.4 288.239 366.325 288.674 362.155 288.674C357.895 288.674 354.97 288.104 353.38 286.964C351.82 285.794 351.04 283.859 351.04 281.159C351.04 278.219 351.895 276.224 353.605 275.174C355.315 274.094 358.24 273.554 362.38 273.554H363.28V272.249C363.28 271.379 362.755 270.944 361.705 270.944C361.495 270.944 361.3 270.974 361.12 271.034C360.94 271.064 360.79 271.109 360.67 271.169C360.58 271.199 360.46 271.289 360.31 271.439C360.16 271.589 360.055 271.679 359.995 271.709C359.965 271.739 359.875 271.859 359.725 272.069L359.5 272.384C359.2 272.774 358.9 273.014 358.6 273.104C358.3 273.164 357.715 273.059 356.845 272.789L352.885 271.169C351.625 270.629 351.295 269.774 351.895 268.604ZM363.28 279.629H362.2C361.09 279.629 360.535 280.124 360.535 281.114C360.535 282.044 361.06 282.509 362.11 282.509C362.56 282.509 362.905 282.494 363.145 282.464C363.235 282.464 363.28 282.419 363.28 282.329V279.629Z" fill="#5F00D9"/>
<path d="M385.748 259.199C386.408 259.199 386.873 259.334 387.143 259.604C387.413 259.874 387.548 260.339 387.548 260.999V264.599H389.708C390.368 264.599 390.818 264.734 391.058 265.004C391.328 265.274 391.463 265.739 391.463 266.399V270.404C391.463 271.064 391.328 271.529 391.058 271.799C390.818 272.069 390.368 272.204 389.708 272.204H387.548V277.964C387.548 279.374 388.238 280.079 389.618 280.079C390.308 280.079 390.788 280.214 391.058 280.484C391.328 280.754 391.463 281.234 391.463 281.924V286.739C391.463 287.429 391.328 287.909 391.058 288.179C390.788 288.449 390.308 288.584 389.618 288.584C385.568 288.584 382.553 287.834 380.573 286.334C378.623 284.834 377.648 282.314 377.648 278.774V272.204H376.118C375.458 272.204 374.993 272.084 374.723 271.844C374.483 271.574 374.363 271.094 374.363 270.404V266.399C374.363 265.709 374.483 265.244 374.723 265.004C374.993 264.734 375.458 264.599 376.118 264.599H377.648V260.999C377.648 260.339 377.783 259.874 378.053 259.604C378.323 259.334 378.788 259.199 379.448 259.199H385.748Z" fill="#5F00D9"/>
<path d="M407.723 254.699C408.413 254.699 408.893 254.834 409.163 255.104C409.433 255.374 409.568 255.854 409.568 256.544V260.459C409.568 261.149 409.433 261.629 409.163 261.899C408.893 262.169 408.413 262.304 407.723 262.304C406.343 262.304 405.653 263.009 405.653 264.419V264.599H407.768C408.458 264.599 408.923 264.734 409.163 265.004C409.433 265.274 409.568 265.739 409.568 266.399V270.404C409.568 271.094 409.433 271.574 409.163 271.844C408.923 272.084 408.458 272.204 407.768 272.204H405.653V286.199C405.653 286.889 405.518 287.369 405.248 287.639C404.978 287.879 404.498 287.999 403.808 287.999H397.598C396.908 287.999 396.428 287.879 396.158 287.639C395.888 287.369 395.753 286.889 395.753 286.199V272.204H394.763C394.103 272.204 393.638 272.084 393.368 271.844C393.098 271.574 392.963 271.094 392.963 270.404V266.399C392.963 265.739 393.098 265.274 393.368 265.004C393.638 264.734 394.103 264.599 394.763 264.599H395.753V264.509C395.753 257.969 399.398 254.699 406.688 254.699H407.723Z" fill="#5F00D9"/>
<path d="M308.945 306.139C308.945 302.929 309.935 300.424 311.915 298.624C313.925 296.824 316.79 295.924 320.51 295.924C324.29 295.924 327.17 296.824 329.15 298.624C331.13 300.424 332.12 302.929 332.12 306.139V310.459C332.12 313.669 331.13 316.174 329.15 317.974C327.17 319.774 324.29 320.674 320.51 320.674C316.79 320.674 313.925 319.774 311.915 317.974C309.935 316.174 308.945 313.669 308.945 310.459V306.139ZM322.265 305.734C322.265 304.744 321.68 304.249 320.51 304.249C319.37 304.249 318.8 304.744 318.8 305.734V310.864C318.8 311.824 319.37 312.304 320.51 312.304C321.68 312.304 322.265 311.824 322.265 310.864V305.734Z" fill="#5F00D9"/>
<path d="M346.009 295.924H347.359C348.019 295.924 348.484 296.059 348.754 296.329C349.024 296.569 349.159 297.034 349.159 297.724V302.539C349.159 303.199 349.024 303.664 348.754 303.934C348.484 304.204 348.019 304.339 347.359 304.339H345.604C345.154 304.339 344.824 304.354 344.614 304.384C344.464 304.384 344.389 304.474 344.389 304.654V318.199C344.389 318.859 344.254 319.324 343.984 319.594C343.714 319.864 343.249 319.999 342.589 319.999H336.289C335.629 319.999 335.164 319.864 334.894 319.594C334.624 319.324 334.489 318.859 334.489 318.199V300.244C334.489 299.434 334.609 298.834 334.849 298.444C335.119 298.054 335.644 297.709 336.424 297.409C338.644 296.539 341.839 296.044 346.009 295.924Z" fill="#5F00D9"/>
<path d="M367.979 297.004C369.959 296.284 372.044 295.924 374.234 295.924C381.014 295.924 384.404 299.284 384.404 306.004V318.199C384.404 318.859 384.269 319.324 383.999 319.594C383.759 319.864 383.294 319.999 382.604 319.999H376.304C375.614 319.999 375.134 319.864 374.864 319.594C374.624 319.324 374.504 318.859 374.504 318.199V306.274C374.504 305.734 374.414 305.359 374.234 305.149C374.054 304.909 373.724 304.789 373.244 304.789C372.974 304.789 372.749 304.804 372.569 304.834C372.599 305.134 372.614 305.599 372.614 306.229V318.199C372.614 318.859 372.479 319.324 372.209 319.594C371.969 319.864 371.504 319.999 370.814 319.999H364.514C363.824 319.999 363.344 319.864 363.074 319.594C362.834 319.324 362.714 318.859 362.714 318.199V306.274C362.714 305.734 362.624 305.359 362.444 305.149C362.264 304.909 361.934 304.789 361.454 304.789H361.004C360.884 304.789 360.824 304.879 360.824 305.059V318.199C360.824 318.859 360.689 319.324 360.419 319.594C360.179 319.864 359.714 319.999 359.024 319.999H352.724C352.034 319.999 351.554 319.864 351.284 319.594C351.044 319.324 350.924 318.859 350.924 318.199V300.469C350.924 299.659 351.044 299.074 351.284 298.714C351.554 298.324 352.079 297.979 352.859 297.679C355.799 296.509 358.994 295.924 362.444 295.924C364.634 295.924 366.479 296.284 367.979 297.004Z" fill="#5F00D9"/>
<path d="M323.165 160.05C327.725 160.05 331.25 161.205 333.74 163.515C336.26 165.825 337.52 169.02 337.52 173.1V178.905C337.52 182.985 336.26 186.195 333.74 188.535C331.25 190.845 327.725 192 323.165 192H311.78C311.03 192 310.505 191.865 310.205 191.595C309.935 191.295 309.8 190.77 309.8 190.02V162.03C309.8 161.28 309.935 160.77 310.205 160.5C310.505 160.2 311.03 160.05 311.78 160.05H323.165ZM327.08 173.37C327.08 171.9 326.735 170.82 326.045 170.13C325.385 169.41 324.245 169.05 322.625 169.05H320.24V182.955H322.625C324.275 182.955 325.43 182.61 326.09 181.92C326.75 181.23 327.08 180.135 327.08 178.635V173.37Z" fill="#5F00D9"/>
<path d="M339.486 178.68C339.486 175.2 340.491 172.545 342.501 170.715C344.511 168.855 347.406 167.925 351.186 167.925C355.026 167.925 357.936 168.885 359.916 170.805C361.896 172.725 362.886 175.17 362.886 178.14V180.345C362.886 181.965 362.031 182.775 360.321 182.775H349.386V183.36C349.386 184.89 350.016 185.655 351.276 185.655C352.416 185.655 353.376 185.16 354.156 184.17C354.456 183.78 354.726 183.555 354.966 183.495C355.236 183.435 355.791 183.54 356.631 183.81L360.546 185.43C361.806 185.97 362.136 186.825 361.536 187.995C359.886 191.115 356.421 192.675 351.141 192.675C347.151 192.675 344.211 191.7 342.321 189.75C340.431 187.77 339.486 185.145 339.486 181.875V178.68ZM352.986 176.385C352.986 175.695 352.851 175.2 352.581 174.9C352.341 174.57 351.876 174.405 351.186 174.405C350.526 174.405 350.061 174.57 349.791 174.9C349.521 175.2 349.386 175.695 349.386 176.385V176.79H352.986V176.385Z" fill="#5F00D9"/>
<path d="M364.447 175.755C364.447 173.295 365.332 171.375 367.102 169.995C368.872 168.615 371.467 167.925 374.887 167.925C377.857 167.925 380.167 168.33 381.817 169.14C383.467 169.92 384.757 171.12 385.687 172.74C386.317 173.88 385.987 174.735 384.697 175.305L380.557 177.105C380.257 177.255 379.987 177.36 379.747 177.42C379.537 177.45 379.342 177.435 379.162 177.375C379.012 177.315 378.892 177.27 378.802 177.24C378.742 177.18 378.637 177.075 378.487 176.925C378.337 176.745 378.217 176.625 378.127 176.565C377.437 175.995 376.567 175.71 375.517 175.71C374.527 175.71 373.882 175.77 373.582 175.89C373.312 176.01 373.177 176.235 373.177 176.565C373.177 176.865 373.357 177.09 373.717 177.24C374.107 177.36 374.947 177.465 376.237 177.555C380.167 177.825 382.867 178.515 384.337 179.625C385.807 180.705 386.542 182.37 386.542 184.62C386.542 187.14 385.597 189.12 383.707 190.56C381.817 191.97 379.117 192.675 375.607 192.675C369.577 192.675 365.857 190.89 364.447 187.32C363.967 186.12 364.342 185.31 365.572 184.89L369.937 183.315C370.837 183.105 371.407 183.045 371.647 183.135C371.887 183.195 372.157 183.405 372.457 183.765C373.027 184.515 373.927 184.89 375.157 184.89C376.207 184.89 376.912 184.815 377.272 184.665C377.632 184.515 377.812 184.26 377.812 183.9C377.812 183.48 377.587 183.195 377.137 183.045C376.717 182.895 375.667 182.79 373.987 182.73C370.717 182.58 368.302 181.965 366.742 180.885C365.212 179.805 364.447 178.095 364.447 175.755Z" fill="#5F00D9"/>
<path d="M395.424 159.375C396.744 159.375 397.644 159.63 398.124 160.14C398.634 160.62 398.889 161.52 398.889 162.84V163.335C398.889 164.655 398.634 165.57 398.124 166.08C397.644 166.56 396.744 166.8 395.424 166.8H391.914C390.594 166.8 389.679 166.56 389.169 166.08C388.689 165.57 388.449 164.655 388.449 163.335V162.84C388.449 161.52 388.689 160.62 389.169 160.14C389.679 159.63 390.594 159.375 391.914 159.375H395.424ZM396.819 168.6C397.509 168.6 397.974 168.735 398.214 169.005C398.484 169.275 398.619 169.74 398.619 170.4V190.2C398.619 190.86 398.484 191.325 398.214 191.595C397.974 191.865 397.509 192 396.819 192H390.519C389.829 192 389.349 191.865 389.079 191.595C388.839 191.325 388.719 190.86 388.719 190.2V170.4C388.719 169.74 388.839 169.275 389.079 169.005C389.349 168.735 389.829 168.6 390.519 168.6H396.819Z" fill="#5F00D9"/>
<path d="M308.9 209.5C308.9 206.05 309.845 203.425 311.735 201.625C313.655 199.825 316.505 198.925 320.285 198.925C324.095 198.925 327.17 199.45 329.51 200.5C330.29 200.86 330.785 201.205 330.995 201.535C331.205 201.865 331.31 202.435 331.31 203.245V222.55C331.31 225.85 330.395 228.475 328.565 230.425C326.735 232.375 323.87 233.35 319.97 233.35C317.36 233.35 315.23 232.975 313.58 232.225C311.96 231.475 310.625 230.29 309.575 228.67C308.885 227.59 309.215 226.735 310.565 226.105L315.515 223.72C316.475 223.27 317.225 223.39 317.765 224.08C317.795 224.14 317.915 224.305 318.125 224.575C318.335 224.845 318.485 225.025 318.575 225.115C318.695 225.205 318.875 225.31 319.115 225.43C319.385 225.55 319.655 225.61 319.925 225.61C320.915 225.61 321.41 225.04 321.41 223.9V222.28C320.57 222.34 319.91 222.37 319.43 222.37C315.89 222.37 313.25 221.515 311.51 219.805C309.77 218.065 308.9 215.575 308.9 212.335V209.5ZM321.275 207.43C321.155 207.37 320.84 207.34 320.33 207.34C319.31 207.34 318.8 207.79 318.8 208.69V212.785C318.8 213.595 319.265 214 320.195 214L321.41 213.82V207.61C321.41 207.55 321.365 207.49 321.275 207.43Z" fill="#5F00D9"/>
<path d="M336.072 200.68C339.012 199.51 342.327 198.925 346.017 198.925C349.557 198.925 352.197 199.795 353.937 201.535C355.677 203.275 356.547 205.765 356.547 209.005V221.2C356.547 221.86 356.412 222.325 356.142 222.595C355.902 222.865 355.437 223 354.747 223H348.447C347.757 223 347.277 222.865 347.007 222.595C346.767 222.325 346.647 221.86 346.647 221.2V209.455C346.647 208.825 346.527 208.39 346.287 208.15C346.047 207.91 345.627 207.79 345.027 207.79C344.637 207.79 344.352 207.805 344.172 207.835C344.082 207.865 344.037 207.925 344.037 208.015V221.2C344.037 221.86 343.902 222.325 343.632 222.595C343.392 222.865 342.927 223 342.237 223H335.937C335.247 223 334.767 222.865 334.497 222.595C334.257 222.325 334.137 221.86 334.137 221.2V203.47C334.137 202.66 334.257 202.075 334.497 201.715C334.767 201.325 335.292 200.98 336.072 200.68Z" fill="#5F00D9"/>
<rect x="458.289" y="160.15" width="162.713" height="157.164" fill="#BBF02C" stroke="#5F00D9" stroke-dasharray="2.77 2.77"/>
<circle cx="622" cy="161" r="5.25" fill="#5F00D9" stroke="white" stroke-width="1.5"/>
<circle cx="458" cy="161" r="5.25" fill="#5F00D9" stroke="white" stroke-width="1.5"/>
<circle cx="458" cy="319" r="5.25" fill="#5F00D9" stroke="white" stroke-width="1.5"/>
<circle cx="622" cy="319" r="5.25" fill="#5F00D9" stroke="white" stroke-width="1.5"/>
<path d="M573.217 239.402C569.451 238.326 566.11 236.061 563.76 232.918L563.704 232.946C562.345 234.135 560.929 235.183 559.428 236.146L552.803 250.387L542.979 271.424L550.481 275.161L575.029 240.081L575.057 239.826C574.434 239.713 573.811 239.572 573.217 239.402Z" fill="#BECC69"/>
<path d="M564.893 234.305C564.496 233.852 564.1 233.399 563.732 232.918L563.675 232.946C562.345 234.107 560.901 235.183 559.4 236.146L542.979 270.942L547.65 273.915L562.09 243.224C563.307 240.619 565.148 238.382 567.356 236.57L567.384 236.542C566.478 235.863 565.657 235.126 564.893 234.305Z" fill="#ADBC55"/>
<path d="M584.685 238.892C581.627 240.109 578.314 240.477 575.058 239.939L575.03 240.194L553.455 271.395C551.87 273.689 548.954 274.623 546.349 273.66C544.282 272.896 542.781 271.084 542.413 268.932L538.733 246.735L537.713 240.987C533.353 240.308 529.191 238.665 525.51 236.23L527.804 263.836C527.804 270.149 521.858 271.905 518.885 266.582C516.648 262.59 510.363 250.387 506.796 243.394C505.295 240.477 504.276 238.467 504.219 238.354C501.303 238.439 498.387 237.731 495.838 236.287C494.14 237.278 492.271 237.958 490.346 238.269L519.225 299.312C520.924 304.182 525.51 306.305 530.663 306.305H548.812C554.107 306.305 558.637 303.927 560.364 298.915C565.035 285.438 566.593 271.707 578.484 254.096C580.891 250.557 583.609 246.82 586.751 242.912L586.836 242.827C585.845 241.61 585.138 240.251 584.685 238.892Z" fill="#CADD78"/>
<path d="M551.189 305.259H538.137C532.984 305.259 528.397 302.003 526.699 297.133L495.243 236.543C493.714 237.392 492.043 237.959 490.316 238.213L519.762 299.256C521.461 304.126 526.047 307.382 531.2 307.382H546.518C549.094 307.382 551.614 306.533 553.681 304.975C552.86 305.174 552.039 305.259 551.189 305.259Z" fill="#ADBC55"/>
<path d="M526.953 267.377C529.671 268.141 532.474 265.961 532.474 261.629L530.577 238.894C528.793 238.129 527.094 237.223 525.48 236.176L527.774 263.781C527.802 265.027 527.519 266.272 526.953 267.377Z" fill="#ADBC55"/>
<path d="M490.317 238.242L499.603 256.108L499.49 256.164C493.375 258.967 486.126 256.306 483.295 250.19C481.596 246.51 481.851 242.206 483.946 238.752L484.145 237.959C484.513 238.044 484.909 238.129 485.305 238.214C486.976 238.497 488.675 238.497 490.317 238.242Z" fill="#3B601C"/>
<path d="M484.766 248.915C483.69 247.896 482.841 246.678 482.189 245.348C482.331 252.086 487.88 257.437 494.619 257.296C496.289 257.267 497.96 256.871 499.46 256.192L499.574 256.135L497.252 251.633C492.92 253.162 488.079 252.114 484.766 248.915Z" fill="#67A829"/>
<path d="M593.261 247.102L593.232 247.187C592.44 252.51 587.485 256.219 582.134 255.426C580.831 255.228 579.586 254.775 578.481 254.096L578.453 254.067C580.86 250.5 583.578 246.791 586.721 242.884L586.805 242.799C588.448 244.894 590.684 246.423 593.261 247.102Z" fill="#3B601C"/>
<path d="M591.59 246.537C589.58 250.954 584.625 253.191 579.982 251.86C579.444 252.596 578.934 253.361 578.453 254.097L578.481 254.125C583.096 256.928 589.099 255.484 591.902 250.869C592.581 249.765 593.034 248.519 593.232 247.217L593.261 247.132C592.666 246.962 592.128 246.764 591.59 246.537Z" fill="#67A829"/>
<path d="M518.26 229.975C520.383 232.325 522.818 234.42 525.452 236.175C524.177 244.669 513.362 248.973 506.737 243.367C505.236 240.45 504.217 238.44 504.16 238.327C507.841 238.214 511.38 236.911 514.24 234.618C515.882 233.316 517.241 231.758 518.26 229.975Z" fill="#3B601C"/>
<path d="M522.874 234.277C519.052 240.138 510.785 242.601 504.527 238.977C504.952 239.827 505.745 241.356 506.764 243.337C513.389 248.943 524.177 244.668 525.479 236.146C524.573 235.58 523.724 234.957 522.874 234.277Z" fill="#315112"/>
<path d="M559.428 236.176L552.803 250.417C547.65 252.937 540.968 249.993 538.703 246.652L537.684 240.904C539.212 241.131 540.741 241.244 542.27 241.244C548.358 241.244 554.303 239.488 559.428 236.176Z" fill="#4E7A25"/>
<path d="M540.487 241.582L540.43 241.185C539.496 241.129 538.59 241.044 537.684 240.902L538.703 246.65C540.94 249.991 547.65 252.907 552.803 250.415L554.417 246.961C548.867 247.981 542.752 244.979 540.487 241.582Z" fill="#2C4415"/>
<path d="M492.271 211.144C486.807 217.033 486.212 226.065 491.28 232.379C492.526 233.936 494.083 235.238 495.81 236.229C492.667 238.098 488.93 238.806 485.306 238.183C484.91 238.126 484.542 238.041 484.145 237.928C475.878 235.861 470.838 227.48 472.905 219.213C474.859 211.37 482.503 206.359 490.487 207.718L490.884 207.605C491.195 208.851 491.676 210.04 492.271 211.144Z" fill="#3B601C"/>
<path d="M491.419 232.551C482.274 230.427 475.932 222.103 476.357 212.703C470.694 219.074 471.26 228.842 477.631 234.504C479.5 236.175 481.736 237.335 484.171 237.958C484.539 238.043 484.936 238.128 485.332 238.213C488.956 238.836 492.665 238.128 495.836 236.26C494.137 235.297 492.637 234.051 491.419 232.551Z" fill="#67A829"/>
<path d="M584.682 238.78C581.624 240.026 578.312 240.394 575.056 239.827C574.433 239.714 573.81 239.573 573.187 239.403C569.393 238.355 566.081 236.062 563.731 232.947L563.674 232.976C562.343 234.137 560.899 235.212 559.399 236.175C554.302 239.488 548.328 241.243 542.241 241.271C540.712 241.271 539.183 241.158 537.654 240.932C533.294 240.252 529.132 238.638 525.451 236.175C522.79 234.42 520.383 232.353 518.26 229.975C517.212 231.73 515.853 233.316 514.268 234.59C511.408 236.911 507.869 238.214 504.188 238.299C501.272 238.384 498.356 237.676 495.808 236.232C494.052 235.241 492.523 233.938 491.278 232.381C486.238 226.096 486.804 217.064 492.269 211.146C491.646 210.042 491.193 208.853 490.853 207.636C487.54 195.121 499.885 179.521 516.391 188.496C525.706 163.552 560.163 168.932 567.864 186.344C579.727 180.512 592.44 192.517 587.995 201.888H588.419C598.272 201.888 606.257 209.872 606.257 219.725C606.257 222.84 605.436 225.926 603.878 228.616C608.097 233.117 607.87 240.196 603.369 244.414C601.302 246.368 598.556 247.444 595.724 247.444C594.903 247.444 594.082 247.33 593.261 247.132C590.713 246.424 588.448 244.924 586.806 242.829C585.843 241.611 585.135 240.252 584.682 238.78Z" fill="#4D841E"/>
<path d="M603.849 228.587C607.587 222.103 606.879 214.005 602.094 208.258C602.405 209.051 602.603 209.843 602.745 210.693C603.793 217.176 599.432 223.264 593.062 224.283C592.213 224.425 591.335 224.453 590.457 224.368C587.683 224.056 585.106 222.839 583.068 220.914C582.699 220.546 582.331 220.178 581.992 219.781C580.802 218.366 578.821 217.856 577.093 218.535C574.97 219.328 572.705 219.753 570.412 219.725C569.732 219.725 569.081 219.668 568.401 219.611C564.947 219.187 561.663 217.828 558.973 215.647C558.718 215.449 558.492 215.251 558.237 215.025C557.841 214.685 557.246 214.713 556.878 215.11C556.029 216.044 554.556 217.629 553.622 218.479C548.894 222.782 543.033 225.642 536.748 226.661C535.162 226.916 533.548 227.058 531.934 227.058C527.291 227.058 522.704 226.038 518.514 224.085C516.872 223.349 515.315 222.471 513.814 221.508C511.889 220.263 509.312 220.744 507.982 222.612C507.585 223.179 507.132 223.745 506.651 224.283C504.103 227.171 500.648 229.124 496.855 229.861C494.391 230.314 491.871 230.229 489.465 229.606C490.852 232.409 493.061 234.759 495.807 236.288C498.355 237.732 501.271 238.439 504.188 238.355C507.868 238.241 511.407 236.939 514.267 234.646C515.881 233.371 517.24 231.786 518.259 230.03C520.383 232.38 522.818 234.476 525.451 236.231C529.131 238.666 533.293 240.308 537.654 240.988C539.182 241.214 540.711 241.327 542.24 241.327C548.328 241.299 554.273 239.544 559.398 236.231C560.898 235.268 562.314 234.221 563.673 233.032L563.73 233.003C566.08 236.146 569.421 238.411 573.186 239.487C573.809 239.657 574.432 239.798 575.055 239.912C578.311 240.45 581.624 240.082 584.681 238.864C585.134 240.336 585.842 241.695 586.805 242.913C588.419 245.008 590.684 246.509 593.26 247.216C594.053 247.415 594.902 247.528 595.723 247.528C601.896 247.528 606.907 242.517 606.907 236.344C606.879 233.4 605.803 230.682 603.849 228.587Z" fill="#67A829"/>
<path d="M605.917 228.389C607.248 225.699 607.956 222.727 607.956 219.725C607.956 209.618 600.226 201.265 590.345 200.303C591.251 196.169 589.75 191.582 586.183 188.071C581.426 183.372 574.716 181.928 568.685 184.164C566.42 179.974 562.683 176.435 557.785 173.83C552.604 171.084 546.46 169.668 540.542 169.838C534.965 170.008 529.755 171.565 525.452 174.34C521.091 177.171 517.75 181.135 515.542 186.146C509.115 183.202 502.773 183.456 497.478 186.882C491.646 190.648 488.135 197.868 488.673 204.861C488.701 205.201 488.73 205.512 488.786 205.852C480.207 205.399 472.45 211.43 470.977 220.093C469.59 228.333 474.318 236.204 481.878 239.007C480.066 242.716 480.009 247.076 481.765 250.87C484.115 255.966 489.154 258.967 494.421 258.967C495.581 258.967 496.742 258.826 497.903 258.514L518.175 302.088C519.846 305.684 523.47 307.977 527.405 307.977H527.518L551.981 307.722C556.426 307.665 560.277 304.806 561.607 300.559C562.032 299.143 562.485 297.699 562.938 296.227C566.505 284.562 570.724 270.66 579.331 256.419C580.69 256.957 582.134 257.24 583.55 257.24C585.673 257.24 587.825 256.645 589.694 255.428C592.015 253.927 593.714 251.662 594.507 249.058C594.903 249.086 595.271 249.114 595.668 249.114C602.774 249.114 608.551 243.338 608.551 236.232C608.578 233.372 607.644 230.626 605.917 228.389ZM474.347 220.688C475.592 213.412 482.359 208.428 489.636 209.363C489.834 209.901 490.032 210.41 490.259 210.92C487.795 213.95 486.323 217.687 486.125 221.566C485.898 225.898 487.257 230.116 489.947 233.485C490.683 234.42 491.504 235.241 492.41 236.005C490.23 236.77 487.88 236.968 485.587 236.572C478.112 235.269 473.073 228.163 474.347 220.688ZM484.851 249.482C483.435 246.396 483.605 242.857 485.247 239.913C486.125 240.054 487.003 240.111 487.88 240.111C488.362 240.111 488.815 240.082 489.296 240.054L496.431 255.4C491.787 256.306 486.918 253.984 484.851 249.482ZM559.682 295.236C559.229 296.708 558.804 298.152 558.351 299.568C557.474 302.399 554.897 304.325 551.924 304.353L527.462 304.608C527.433 304.608 527.405 304.608 527.377 304.608C524.744 304.608 522.337 303.079 521.205 300.672L492.75 239.403C493.798 239.091 494.845 238.667 495.836 238.157C497.733 239.091 499.828 239.714 502.037 239.913C502.405 239.941 502.773 239.969 503.169 239.969C505.378 244.301 514.551 262.251 517.411 267.319C518.826 269.868 521.091 271.34 523.385 271.34C523.838 271.34 524.319 271.283 524.772 271.17C527.66 270.406 529.529 267.489 529.5 263.752C529.5 263.695 529.5 263.667 529.5 263.61L527.49 239.233C530.293 240.705 533.238 241.753 536.267 242.347L541.307 270.915C541.901 274.284 544.789 276.634 548.102 276.634C548.442 276.634 548.753 276.606 549.093 276.55C550.99 276.266 552.689 275.219 553.793 273.662L576.019 241.64C576.698 241.725 577.378 241.753 578.057 241.753C579.982 241.753 581.879 241.47 583.72 240.903C584.003 241.526 584.343 242.149 584.711 242.716C569.988 261.43 564.297 280.145 559.682 295.236ZM517.382 243.508C514.098 244.726 510.672 244.273 508.096 242.234C507.614 241.272 507.19 240.45 506.822 239.743C509.879 239.233 512.796 237.931 515.316 235.92C516.505 234.958 517.581 233.854 518.487 232.664C520.1 234.278 521.799 235.694 523.555 236.94C522.762 239.884 520.497 242.347 517.382 243.508ZM524.319 242.659L526.074 263.837C526.074 265.96 525.197 267.546 523.866 267.886C522.649 268.197 521.29 267.348 520.327 265.677C518.571 262.506 514.155 254.041 510.644 247.189C511.635 247.444 512.682 247.557 513.73 247.557C515.344 247.557 516.958 247.274 518.571 246.651C520.865 245.83 522.818 244.443 524.319 242.659ZM560.758 237.336C561.692 236.713 562.626 236.062 563.504 235.354C563.532 235.411 563.589 235.439 563.617 235.496C565.996 238.072 568.997 239.969 572.338 240.96L550.933 271.765C550.367 272.557 549.518 273.095 548.555 273.237C547.026 273.463 545.582 272.671 544.903 271.34L560.758 237.336ZM543.77 265.734L541.165 251.04C543.289 252.257 545.865 253.078 548.527 253.078C548.923 253.078 549.291 253.05 549.687 253.021L543.77 265.734ZM551.499 249.114C547.422 250.728 542.213 248.491 540.288 245.971L539.75 242.857C540.571 242.914 541.42 242.97 542.269 242.97C546.941 242.97 551.471 241.979 555.718 240.111L551.499 249.114ZM587.91 252.568C585.871 253.871 583.437 254.182 581.2 253.474C582.927 250.785 584.824 248.095 586.919 245.405C588.193 246.623 589.694 247.585 591.279 248.208C590.685 250.02 589.495 251.549 587.91 252.568ZM595.696 245.717C592.1 245.717 588.448 243.14 586.834 239.658C588.391 238.865 589.892 237.846 591.223 236.6C593.289 234.703 594.903 232.381 596.007 229.805C596.404 228.87 595.894 227.795 594.903 227.511C594.082 227.285 593.204 227.71 592.865 228.502C591.987 230.626 590.628 232.523 588.929 234.108C584.796 237.931 579.076 239.29 573.64 237.789C570.752 236.996 568.176 235.382 566.137 233.174C562.598 229.352 561.154 224.029 562.23 218.904C562.683 216.696 563.617 214.629 564.92 212.817C565.373 212.194 565.373 211.373 564.92 210.778C564.24 209.872 562.853 209.872 562.202 210.778C560.588 212.987 559.484 215.507 558.917 218.196C557.87 223.18 558.833 228.361 561.494 232.608C555.831 237.166 549.206 239.544 542.298 239.544C534.2 239.544 526.641 236.147 520.384 229.692C521.743 226.945 522.422 223.859 522.281 220.773C522.224 219.754 521.318 218.989 520.327 219.159C519.449 219.301 518.855 220.065 518.883 220.943C519.109 225.643 517.014 230.258 513.22 233.287C510.106 235.779 506.255 236.94 502.348 236.572C498.469 236.204 495.015 234.335 492.609 231.334C488.645 226.379 488.56 219.272 492.155 214.034C494.052 216.526 496.657 218.565 499.857 219.98C500.706 220.377 501.725 219.98 502.093 219.131C502.461 218.281 502.093 217.262 501.244 216.894C495.751 214.459 492.495 210.099 492.071 204.635C491.618 198.83 494.505 192.856 499.29 189.77C503.962 186.741 509.738 186.826 515.57 189.997C515.995 190.223 516.505 190.28 516.986 190.082C517.439 189.912 517.807 189.544 517.977 189.091C521.629 179.323 529.868 173.547 540.599 173.235C551.783 172.896 562.626 178.7 566.307 187.052C566.505 187.477 566.845 187.817 567.27 187.958C567.695 188.128 568.176 188.1 568.601 187.873C574.773 184.844 580.634 187.364 583.776 190.478C587.683 194.329 587.712 198.519 586.466 201.152C586.211 201.69 586.268 202.313 586.579 202.823C586.919 203.332 587.457 203.615 588.08 203.587H588.42C597.31 203.587 604.558 210.807 604.558 219.725C604.558 222.557 603.822 225.331 602.406 227.766C602.038 228.417 602.123 229.239 602.633 229.776C604.275 231.532 605.209 233.825 605.209 236.26C605.181 241.47 600.934 245.717 595.696 245.717Z" fill="black"/>
<circle cx="329" cy="385" r="13" fill="#5F00D9"/>
<circle cx="366" cy="385" r="13" fill="#BBF02C"/>
<circle cx="366" cy="385" r="15.5" stroke="#393939"/>
<circle cx="405" cy="385" r="13" fill="#CADD78"/>
<circle cx="443" cy="385" r="13" fill="#4D841E"/>
<circle cx="746" cy="144" r="7" fill="#C9F359" stroke="#FEFEFE" stroke-width="2"/>
<defs>
<filter id="filter0_d" x="54" y="47" width="700" height="409" filterUnits="userSpaceOnUse" color-interpolation-filters="sRGB">
<feFlood flood-opacity="0" result="BackgroundImageFix"/>
<feColorMatrix in="SourceAlpha" type="matrix" values="0 0 0 0 0 0 0 0 0 0 0 0 0 0 0 0 0 0 127 0"/>
<feOffset dy="14"/>
<feGaussianBlur stdDeviation="17"/>
<feColorMatrix type="matrix" values="0 0 0 0 0 0 0 0 0 0 0 0 0 0 0 0 0 0 0.07 0"/>
<feBlend mode="normal" in2="BackgroundImageFix" result="effect1_dropShadow"/>
<feBlend mode="normal" in="SourceGraphic" in2="effect1_dropShadow" result="shape"/>
</filter>
<filter id="filter1_f" x="0.570934" y="331.571" width="277.858" height="151.858" filterUnits="userSpaceOnUse" color-interpolation-filters="sRGB">
<feFlood flood-opacity="0" result="BackgroundImageFix"/>
<feBlend mode="normal" in="SourceGraphic" in2="BackgroundImageFix" result="shape"/>
<feGaussianBlur stdDeviation="16.2145" result="effect1_foregroundBlur"/>
</filter>
<filter id="filter2_f" x="105" y="0" width="259" height="124" filterUnits="userSpaceOnUse" color-interpolation-filters="sRGB">
<feFlood flood-opacity="0" result="BackgroundImageFix"/>
<feBlend mode="normal" in="SourceGraphic" in2="BackgroundImageFix" result="shape"/>
<feGaussianBlur stdDeviation="22" result="effect1_foregroundBlur"/>
</filter>
<filter id="filter3_f" x="620" y="77" width="204" height="303" filterUnits="userSpaceOnUse" color-interpolation-filters="sRGB">
<feFlood flood-opacity="0" result="BackgroundImageFix"/>
<feBlend mode="normal" in="SourceGraphic" in2="BackgroundImageFix" result="shape"/>
<feGaussianBlur stdDeviation="22" result="effect1_foregroundBlur"/>
</filter>
<filter id="filter4_f" x="490" y="-65" width="316" height="316" filterUnits="userSpaceOnUse" color-interpolation-filters="sRGB">
<feFlood flood-opacity="0" result="BackgroundImageFix"/>
<feBlend mode="normal" in="SourceGraphic" in2="BackgroundImageFix" result="shape"/>
<feGaussianBlur stdDeviation="42" result="effect1_foregroundBlur"/>
</filter>
<filter id="filter5_f" x="446.975" y="355.575" width="273.325" height="113.825" filterUnits="userSpaceOnUse" color-interpolation-filters="sRGB">
<feFlood flood-opacity="0" result="BackgroundImageFix"/>
<feBlend mode="normal" in="SourceGraphic" in2="BackgroundImageFix" result="shape"/>
<feGaussianBlur stdDeviation="15.95" result="effect1_foregroundBlur"/>
</filter>
<linearGradient id="paint0_linear" x1="668.5" y1="218" x2="783.5" y2="117" gradientUnits="userSpaceOnUse">
<stop stop-color="#060606"/>
<stop offset="1" stop-color="#0015F5"/>
</linearGradient>
<linearGradient id="paint1_linear" x1="668.5" y1="218" x2="730" y2="154.5" gradientUnits="userSpaceOnUse">
<stop stop-color="#FFB742"/>
<stop offset="1" stop-color="#BBF02C"/>
</linearGradient>
<clipPath id="clip0">
<rect x="17" y="326" width="241" height="115" rx="5" fill="white"/>
</clipPath>
<clipPath id="clip1">
<rect x="138" y="40" width="193" height="50" rx="9" fill="white"/>
</clipPath>
<clipPath id="clip2">
<rect x="468" y="365" width="232" height="63.8" rx="6.89655" fill="white"/>
</clipPath>
</defs>
</svg>
