<svg width="400" height="230" viewBox="0 0 400 230" fill="none" xmlns="http://www.w3.org/2000/svg">
<path fill-rule="evenodd" clip-rule="evenodd" d="M46.5275 68.5724C28.8995 74.2614 8.4825 83.1214 5.2165 101.353C3.0875 113.232 9.9885 125.666 20.3785 131.803C25.4525 134.799 31.6785 136.907 34.3315 142.167C38.4555 150.34 31.0455 159.711 23.2235 164.464C15.3995 169.217 5.8575 172.987 2.2955 181.419C-0.0514996 186.977 0.868504 193.451 3.1925 199.018C11.7145 219.436 36.5625 228.378 58.6605 227.286C80.7585 226.194 101.718 217.584 123.395 213.152C197.834 197.931 275.881 232.479 350.193 216.647C361.757 214.183 373.405 210.328 382.336 202.58C392.402 193.848 398.118 180.673 398.98 167.374C399.803 154.687 395.305 140.401 383.949 134.684C377.313 131.343 369.382 131.479 362.178 133.297C357.578 134.457 353.057 136.275 348.312 136.306C343.568 136.336 338.348 133.96 336.973 129.419C335.527 124.643 338.821 119.714 342.599 116.456C350.284 109.83 360.56 106.52 367.539 99.1554C374.254 92.0684 377.081 81.5034 374.802 72.0094C372.522 62.5154 365.208 54.3854 356.007 51.1194C332.556 42.7954 307.005 65.4894 283.025 58.8394C281.245 58.3464 279.372 57.5844 278.435 55.9924C277.52 54.4384 277.729 52.4664 278.254 50.7414C281.192 41.0854 292.604 34.9384 293.103 24.8574C293.375 19.3774 290.135 14.2504 286.051 10.5854C257.989 -14.5936 217.327 15.3574 188.715 24.8124C141.666 40.3604 93.7055 53.3464 46.5275 68.5724Z" fill="#7D2BE5"/>
<path fill-rule="evenodd" clip-rule="evenodd" d="M160.303 148.538C160.3 148.533 160.302 148.527 160.307 148.524L167.061 144.532C167.065 144.529 167.068 144.522 167.066 144.518C167.066 144.518 166.323 142.514 165.825 141.455C165.326 140.397 164.798 139.396 164.242 138.456C163.094 136.514 160.349 133.154 160.349 133.154C160.346 133.149 160.339 133.148 160.334 133.151L153.58 137.144C153.575 137.146 153.569 137.145 153.566 137.14L144.682 122.11C144.679 122.105 144.673 122.103 144.667 122.106C144.667 122.106 142.281 123.201 141.097 123.774C139.913 124.347 138.756 124.967 137.628 125.634C136.561 126.265 135.554 126.923 134.607 127.61C133.659 128.297 131.706 129.767 131.706 129.767C131.702 129.77 131.701 129.777 131.703 129.782L140.588 144.812C140.59 144.817 140.589 144.823 140.584 144.826L127.152 152.765C127.147 152.768 127.143 152.766 127.143 152.76L123.281 102.017C123.281 102.012 123.276 102.007 123.27 102.007C123.27 102.007 118.243 101.749 115.879 102.258C113.515 102.768 108.922 104.532 108.922 104.532C108.917 104.534 108.914 104.54 108.914 104.545L114.094 174.052C114.094 174.057 114.099 174.064 114.103 174.067L115.711 174.874C115.716 174.877 115.724 174.877 115.728 174.874L147.311 156.205C147.315 156.203 147.322 156.205 147.324 156.209L155.097 169.358C155.099 169.363 155.105 169.365 155.111 169.363C155.111 169.363 157.497 168.268 158.683 167.695C159.866 167.122 161.022 166.501 162.151 165.835C163.216 165.205 164.224 164.546 165.171 163.859C166.118 163.173 168.071 161.701 168.071 161.701C168.076 161.698 168.077 161.691 168.074 161.686L160.303 148.538Z" fill="#FFFFFE"/>
<path fill-rule="evenodd" clip-rule="evenodd" d="M288.897 142.713C287.837 141.933 286.75 141.201 285.632 140.514C284.577 139.866 283.524 139.283 282.475 138.767C281.424 138.249 279.212 137.209 279.212 137.209C279.207 137.206 279.2 137.208 279.197 137.213L270.058 152.089C270.055 152.093 270.048 152.095 270.044 152.092L256.75 143.925C256.746 143.922 256.746 143.917 256.75 143.914L299.814 116.799C299.82 116.796 299.821 116.789 299.818 116.784C299.818 116.784 297.697 112.218 296.143 110.366C294.589 108.513 290.883 105.276 290.883 105.276C290.879 105.273 290.872 105.272 290.867 105.275L231.829 142.32C231.824 142.323 231.82 142.33 231.82 142.335L231.856 144.135C231.856 144.141 231.86 144.147 231.865 144.15L263.123 163.356C263.127 163.359 263.129 163.365 263.126 163.37L255.13 176.383C255.127 176.388 255.128 176.395 255.133 176.398C255.133 176.398 257.216 177.997 258.275 178.777C259.335 179.556 260.424 180.289 261.541 180.976C262.595 181.623 263.647 182.205 264.698 182.724C265.748 183.24 267.961 184.282 267.961 184.282C267.966 184.283 267.973 184.282 267.976 184.276L275.971 171.262C275.974 171.257 275.98 171.255 275.985 171.258L282.67 175.367C282.675 175.37 282.682 175.369 282.686 175.364C282.686 175.364 284.11 173.772 284.813 172.836C285.516 171.901 286.155 170.966 286.726 170.037C287.908 168.114 289.596 164.117 289.596 164.117C289.598 164.112 289.596 164.106 289.591 164.103L282.906 159.995C282.901 159.992 282.9 159.986 282.903 159.981L292.042 145.105C292.045 145.101 292.044 145.094 292.04 145.091C292.04 145.091 289.958 143.493 288.897 142.713Z" fill="#FFFFFE"/>
<path fill-rule="evenodd" clip-rule="evenodd" d="M234.471 127.342C234.471 146.378 219.039 161.811 200.002 161.811C180.965 161.811 165.533 146.378 165.533 127.342C165.533 108.306 180.965 92.873 200.002 92.873C219.039 92.873 234.471 108.306 234.471 127.342Z" fill="#5311A8"/>
<path fill-rule="evenodd" clip-rule="evenodd" d="M165.809 123.05C176.035 124.504 193.226 117.201 198.737 116.132C209.94 113.958 221.447 116.546 232.865 116.925C232.074 114.428 231.004 112.057 229.696 109.842C225.497 110.016 221.071 109.287 216.835 109.164C208.791 108.93 200.793 111.043 192.762 110.557C189.05 110.332 180.696 107.081 173.1 105.803C169.213 110.651 166.614 116.571 165.809 123.05Z" fill="#A16AE6"/>
<path fill-rule="evenodd" clip-rule="evenodd" d="M200.001 92.873C196.499 92.873 193.12 93.399 189.936 94.371C194.254 96.836 202.909 97.72 204.917 97.989C208.528 98.473 212.45 98.646 215.549 96.733C215.592 96.706 215.634 96.675 215.677 96.647C210.973 94.24 205.648 92.873 200.001 92.873Z" fill="#A16AE6"/>
<path fill-rule="evenodd" clip-rule="evenodd" d="M234.457 127.821C224.526 125.312 214.013 125.109 204.003 127.295C198.565 128.482 193.299 130.35 187.895 131.683C181.1 133.358 174.095 134.168 167.098 134.114C166.804 134.112 166.502 134.102 166.197 134.088C167.565 140.982 170.989 147.134 175.804 151.882C184.058 148.956 191.988 145.119 199.398 140.452C205.88 136.369 212.366 131.506 219.995 130.808C224.731 130.375 229.385 131.61 234.074 132.579C234.311 131.025 234.436 129.435 234.457 127.821Z" fill="#A16AE6"/>
<path fill-rule="evenodd" clip-rule="evenodd" d="M232.633 138.443C227.958 137.751 219.6 141.863 217.554 143.596C215.728 145.143 214.188 147.033 212.216 148.39C209.713 150.112 206.688 150.862 203.746 151.621C197.808 153.153 191.912 154.853 186.07 156.72C185.328 156.956 184.524 157.282 184.162 157.952C188.906 160.412 194.289 161.81 200.002 161.81C204 161.81 207.834 161.121 211.405 159.87C214.982 154.764 217.119 148.147 222.78 145.747C223.737 145.342 227.099 144.862 230.136 144.074C231.13 142.289 231.965 140.405 232.633 138.443Z" fill="#A16AE6"/>
<path fill-rule="evenodd" clip-rule="evenodd" d="M302.927 229.842C294.365 184.024 254.169 149.342 205.867 149.342C157.565 149.342 117.369 184.024 108.807 229.842H302.927Z" fill="#FFFFFE"/>
<path d="M323.215 186.258C322.328 186.067 321.598 185.661 321.023 185.041C320.719 184.715 320.491 184.377 320.338 184.026C320.176 183.609 320.126 183.22 320.187 182.858C320.389 182.414 320.645 182.225 320.956 182.292C320.972 182.295 321.063 182.323 321.231 182.375C321.408 182.422 321.641 182.626 321.929 182.99C322.033 183.224 322.152 183.428 322.285 183.604L322.343 183.677C322.425 183.784 322.515 183.877 322.612 183.955C322.919 184.232 323.239 184.407 323.574 184.479C323.893 184.548 324.201 184.496 324.498 184.325L324.604 184.115C324.621 184.078 324.634 184.036 324.644 183.99C324.676 183.842 324.637 183.642 324.529 183.391C324.447 183.202 324.29 182.969 324.057 182.691L323.963 182.561L323.689 182.246L323.313 181.835L323.161 181.692C323.067 181.599 322.966 181.504 322.856 181.407C322.773 181.34 322.615 181.184 322.383 180.939L322.335 180.879C322.189 180.726 322.049 180.562 321.916 180.386C321.619 179.989 321.407 179.556 321.28 179.089C321.16 178.624 321.153 178.146 321.259 177.656C321.368 177.151 321.611 176.682 321.989 176.251C322.352 175.849 322.764 175.563 323.224 175.394C323.693 175.218 324.208 175.191 324.768 175.311C325.32 175.43 325.777 175.688 326.14 176.083C326.377 176.378 326.531 176.705 326.6 177.061C326.663 177.335 326.668 177.597 326.615 177.846C326.541 178.188 326.362 178.471 326.078 178.695C325.791 178.853 325.563 178.913 325.391 178.876C325.384 178.875 325.334 178.86 325.242 178.832C325.151 178.804 325.016 178.617 324.839 178.269C324.816 178.223 324.81 178.177 324.82 178.131L324.855 177.967L324.89 177.804C324.905 177.734 324.91 177.694 324.903 177.685C324.89 177.633 324.88 177.602 324.874 177.593C324.87 177.576 324.865 177.562 324.859 177.553C324.852 177.544 324.846 177.534 324.84 177.525C324.72 177.328 324.594 177.215 324.461 177.187C324.189 177.128 323.943 177.234 323.722 177.503C323.585 177.685 323.498 177.862 323.461 178.033C323.439 178.134 323.44 178.244 323.463 178.363C323.492 178.606 323.653 178.897 323.946 179.237C323.989 179.303 324.122 179.441 324.345 179.652C324.401 179.697 324.452 179.744 324.498 179.795L324.976 180.24C325.383 180.653 325.641 180.928 325.75 181.066C326.08 181.462 326.336 181.839 326.52 182.196C326.876 182.924 326.977 183.646 326.822 184.361C326.78 184.556 326.715 184.745 326.627 184.93C326.229 185.756 325.537 186.229 324.55 186.35C324.111 186.386 323.666 186.355 323.215 186.258Z" fill="#FFFFFE"/>
<path d="M329.651 176.388C329.636 176.385 329.52 176.356 329.304 176.301C329.088 176.246 328.977 175.986 328.971 175.521L329.12 174.833C329.15 174.693 329.175 174.592 329.197 174.532L329.214 174.45C329.436 173.798 329.808 173.528 330.329 173.64C330.531 173.684 330.696 173.785 330.825 173.943C330.997 174.167 331.039 174.481 330.952 174.886C330.94 175.054 330.919 175.208 330.889 175.348C330.875 175.524 330.847 175.714 330.803 175.916C330.785 176.001 330.754 176.084 330.713 176.165C330.394 176.397 330.04 176.472 329.651 176.388ZM328.189 187.085C327.816 187.005 327.562 186.69 327.428 186.14C327.373 185.453 327.449 184.399 327.657 182.979L327.703 182.598C327.782 182.078 327.82 181.809 327.816 181.792C327.959 180.862 328.076 180.204 328.168 179.816C328.275 179.319 328.366 178.935 328.44 178.666C328.581 178.241 328.777 177.954 329.029 177.804C329.251 177.681 329.474 177.644 329.7 177.693C329.988 177.755 330.2 177.922 330.336 178.196C330.445 178.407 330.469 178.656 330.407 178.944L330.36 179.105L330.239 179.725L330.118 180.456C330.09 180.621 330.068 180.783 330.05 180.942L329.93 181.722C329.898 182.025 329.857 182.325 329.809 182.624L329.554 184.828C329.495 185.482 329.428 185.981 329.354 186.323C329.091 186.942 328.702 187.196 328.189 187.085Z" fill="#FFFFFE"/>
<path d="M330.999 186.567C330.835 186.532 330.681 186.475 330.535 186.394C330.128 186.095 329.966 185.694 330.05 185.191C330.12 184.905 330.297 184.63 330.582 184.366L330.66 184.285L330.919 184.047L331.309 183.655C331.581 183.413 331.75 183.25 331.817 183.167L332.299 182.684C332.751 182.212 333.072 181.874 333.262 181.671C333.355 181.544 333.453 181.427 333.558 181.32L334.316 180.409C334.435 180.231 334.545 180.08 334.645 179.955L334.797 179.706L334.116 179.523C333.945 179.486 333.772 179.457 333.597 179.436L333.455 179.417L333.109 179.379L333.004 179.357C332.755 179.303 332.458 179.154 332.112 178.908C331.773 178.664 331.55 178.397 331.442 178.105C331.411 178.025 331.402 177.953 331.415 177.891C331.482 177.58 332.041 177.403 333.092 177.361C333.598 177.356 334.018 177.37 334.353 177.401C334.599 177.43 334.894 177.481 335.236 177.555C335.632 177.64 335.977 177.743 336.268 177.862C336.789 178.089 337.141 178.458 337.324 178.969C337.437 179.311 337.454 179.668 337.374 180.042C337.335 180.221 337.282 180.392 337.214 180.557C337.053 180.962 336.812 181.345 336.49 181.707C336.158 182.116 335.768 182.545 335.321 182.994C335.112 183.209 334.905 183.413 334.701 183.605L334.091 184.169L333.548 184.651C333.603 184.662 333.654 184.669 333.702 184.672C334.216 184.742 334.578 184.799 334.788 184.845C336.103 185.128 336.677 185.654 336.511 186.424C336.473 186.603 336.35 186.793 336.145 186.993C335.947 187.194 335.599 187.241 335.101 187.134C334.855 187.105 334.606 187.068 334.356 187.022L334.003 186.958L332.667 186.756C332.524 186.741 332.402 186.723 332.301 186.701C332.207 186.681 332.108 186.668 332.004 186.662L331.899 186.639L331.71 186.611L331.492 186.601C331.319 186.612 331.154 186.601 330.999 186.567Z" fill="#FFFFFE"/>
<path d="M337.859 188.046C337.696 188.01 337.541 187.953 337.396 187.872C336.988 187.573 336.826 187.172 336.91 186.669C336.98 186.383 337.157 186.108 337.442 185.844L337.521 185.763L337.779 185.526L338.169 185.133C338.441 184.891 338.61 184.728 338.677 184.645L339.16 184.163C339.611 183.69 339.932 183.352 340.123 183.149C340.215 183.023 340.313 182.905 340.418 182.798L341.176 181.887C341.296 181.709 341.406 181.558 341.506 181.433L341.657 181.184L340.976 181.001C340.805 180.964 340.632 180.935 340.458 180.914L340.315 180.895L339.969 180.857L339.864 180.835C339.615 180.781 339.318 180.632 338.972 180.386C338.634 180.142 338.411 179.875 338.303 179.583C338.271 179.503 338.262 179.432 338.275 179.369C338.342 179.058 338.901 178.882 339.952 178.839C340.458 178.834 340.878 178.848 341.214 178.879C341.46 178.908 341.754 178.959 342.096 179.033C342.493 179.118 342.837 179.221 343.129 179.341C343.65 179.567 344.001 179.936 344.184 180.447C344.298 180.789 344.314 181.147 344.234 181.52C344.195 181.699 344.142 181.87 344.074 182.035C343.914 182.44 343.672 182.823 343.35 183.185C343.018 183.594 342.628 184.023 342.182 184.472C341.973 184.687 341.766 184.891 341.562 185.083L340.952 185.647L340.409 186.129C340.463 186.14 340.514 186.147 340.563 186.15C341.077 186.22 341.439 186.277 341.649 186.323C342.963 186.606 343.537 187.132 343.372 187.903C343.333 188.081 343.211 188.271 343.005 188.471C342.807 188.672 342.459 188.719 341.961 188.612C341.715 188.583 341.467 188.546 341.216 188.5L340.864 188.437L339.528 188.234C339.384 188.22 339.262 188.201 339.161 188.18C339.068 188.159 338.969 188.146 338.864 188.14L338.759 188.117L338.57 188.089L338.352 188.079C338.179 188.09 338.015 188.079 337.859 188.046Z" fill="#FFFFFE"/>
<path d="M346.623 190.264C346.172 190.166 345.742 189.972 345.333 189.68C344.89 189.357 344.552 188.938 344.321 188.425C343.963 187.558 343.91 186.537 344.163 185.363C344.315 184.655 344.55 183.981 344.867 183.341C345.174 182.748 345.51 182.247 345.875 181.837C346.248 181.429 346.674 181.073 347.155 180.77C347.645 180.46 348.137 180.236 348.63 180.099C349.132 179.962 349.606 179.914 350.053 179.953L350.707 180.094C350.915 180.147 351.117 180.228 351.314 180.335C352.101 180.838 352.522 181.548 352.577 182.463C352.598 182.744 352.574 183.044 352.505 183.363C352.39 183.9 352.161 184.392 351.821 184.839C351.575 185.185 351.237 185.528 350.806 185.866C350.713 185.96 350.511 186.1 350.203 186.286C349.196 186.842 348.245 187.174 347.351 187.283C346.901 187.332 346.499 187.327 346.146 187.267C346.152 187.277 346.156 187.294 346.159 187.319C346.162 187.344 346.164 187.373 346.165 187.405C346.198 187.551 346.253 187.693 346.329 187.832C346.53 188.184 346.782 188.393 347.085 188.458C347.381 188.522 347.686 188.503 348.002 188.4C348.183 188.349 348.358 188.293 348.526 188.232C348.801 188.128 348.962 188.061 349.009 188.031C349.287 187.871 349.565 187.752 349.843 187.673L349.935 187.644C350.064 187.647 350.187 187.662 350.304 187.687C350.467 187.722 350.635 187.795 350.806 187.905C350.987 188.009 351.059 188.244 351.021 188.61C350.932 188.795 350.811 188.96 350.657 189.106C350.512 189.254 350.346 189.381 350.16 189.487C349.296 189.985 348.372 190.27 347.388 190.343C347.127 190.344 346.872 190.317 346.623 190.264ZM346.195 185.849C346.21 185.853 346.223 185.851 346.232 185.845C346.31 185.862 346.487 185.851 346.764 185.813C347.451 185.684 348.202 185.374 349.016 184.882C349.358 184.655 349.638 184.43 349.857 184.209C350.203 183.811 350.422 183.419 350.513 183.032C350.564 182.798 350.546 182.538 350.462 182.251C350.415 182.127 350.348 182.044 350.259 182L350.306 182.01L350.084 181.962L350.248 181.998C350.183 181.959 350.088 181.927 349.964 181.9C349.828 181.887 349.759 181.884 349.758 181.892L350.084 181.962C349.804 181.902 349.448 181.951 349.015 182.11C348.23 182.43 347.596 182.936 347.112 183.63C346.69 184.23 346.384 184.97 346.195 185.849Z" fill="#FFFFFE"/>
<path fill-rule="evenodd" clip-rule="evenodd" d="M223.961 205.897C223.505 209.358 218.144 211.505 211.986 210.693C205.829 209.881 201.207 206.418 201.664 202.957C202.12 199.497 207.481 197.35 213.639 198.162C219.796 198.974 224.417 202.437 223.961 205.897Z" fill="#57B9CC"/>
<path fill-rule="evenodd" clip-rule="evenodd" d="M146.594 68.5918C146.594 75.6338 140.885 81.3418 133.844 81.3418C126.802 81.3418 121.094 75.6338 121.094 68.5918C121.094 61.5498 126.802 55.8418 133.844 55.8418C140.885 55.8418 146.594 61.5498 146.594 68.5918Z" fill="#57B9CC"/>
<path fill-rule="evenodd" clip-rule="evenodd" d="M133.845 55.8418C131.578 55.8418 129.454 56.4398 127.609 57.4768C127.701 57.6308 127.802 57.7758 127.921 57.8958C129.209 59.1958 132.279 59.2518 133.992 59.3328C136.498 59.4528 139.024 59.1218 141.413 58.3478C139.294 56.7798 136.682 55.8418 133.845 55.8418Z" fill="#5F73A9"/>
<path fill-rule="evenodd" clip-rule="evenodd" d="M143.594 62.6621C144.016 62.5151 144.443 62.3621 144.826 62.1381C144.496 61.5771 144.133 61.0381 143.724 60.5371C142.452 61.1061 141.18 61.6761 139.908 62.2461C138.921 62.6871 137.929 63.1311 136.883 63.4061C135.343 63.8091 133.731 63.8351 132.139 63.8221C128.834 63.7961 125.604 63.4821 122.339 63.1231C121.549 64.7821 121.094 66.6321 121.094 68.5921C121.094 69.5191 121.198 70.4211 121.386 71.2921C122.06 71.0271 122.65 70.5881 123.264 70.2011C124.892 69.1701 126.731 68.5281 128.551 67.8941C133.565 66.1501 138.58 64.4061 143.594 62.6621Z" fill="#5F73A9"/>
<path fill-rule="evenodd" clip-rule="evenodd" d="M145.562 63.5645C144.574 64.4475 143.842 65.6185 142.763 66.4595C141.629 67.3445 140.369 68.0695 139.029 68.5955C138.084 68.9665 137.1 69.2425 136.194 69.7005C135.857 69.8705 135.502 70.1055 135.419 70.4745C135.272 71.1255 136.039 71.5945 136.689 71.7455C137.98 72.0465 139.324 71.9905 140.648 71.9325C142.218 71.8655 143.789 71.7975 145.359 71.7295C145.639 71.7175 145.923 71.6945 146.206 71.6605C146.45 70.6755 146.594 69.6505 146.594 68.5905C146.594 66.8055 146.224 65.1065 145.562 63.5645Z" fill="#5F73A9"/>
<path fill-rule="evenodd" clip-rule="evenodd" d="M134.179 68.2461C131.911 68.7011 129.696 69.4231 127.596 70.3931C126.195 71.0401 124.836 71.8001 123.359 72.2491C122.941 72.3761 122.353 72.4251 121.695 72.4561C122.448 74.8241 123.871 76.8931 125.745 78.4371C125.876 78.2821 126.004 78.1231 126.125 77.9611C128.031 75.4281 129.327 72.2331 132.08 70.6601C132.581 70.3731 133.123 70.1471 133.558 69.7691C133.994 69.3921 134.313 68.8081 134.179 68.2461Z" fill="#5F73A9"/>
<path fill-rule="evenodd" clip-rule="evenodd" d="M145.358 74.0386C145.214 74.0226 145.069 74.0176 144.934 74.0246C142.212 74.1756 139.49 74.3266 136.768 74.4776C135.076 74.5716 133.291 74.6956 131.89 75.6476C130.809 76.3816 130.088 77.5246 129.397 78.6336C129.164 79.0096 128.743 79.5316 128.352 80.0846C129.922 80.8366 131.666 81.2776 133.513 81.3246C133.846 80.9066 134.147 80.4556 134.471 80.0286C136.292 77.6186 139.138 76.0086 142.142 75.6896C142.938 75.6046 143.744 75.6026 144.539 75.5176C144.845 75.0466 145.116 74.5506 145.358 74.0386Z" fill="#5F73A9"/>
<path fill-rule="evenodd" clip-rule="evenodd" d="M145.544 73.6552C145.872 72.8982 146.127 72.1043 146.304 71.2812C143.021 72.4523 139.142 73.4882 135 74.2892C130.803 75.1032 126.779 75.5922 123.273 75.7242C123.742 76.4162 124.277 77.0592 124.869 77.6452C128.1 77.4412 131.678 76.9713 135.38 76.2533C139.033 75.5463 142.493 74.6572 145.544 73.6552Z" fill="#3D73AC"/>
<path fill-rule="evenodd" clip-rule="evenodd" d="M121.34 76.7515C116.771 76.7515 113.043 76.0235 112.617 73.8275C112.217 71.7575 114.919 69.6085 120.651 67.4415C121.166 67.2465 121.744 67.5065 121.94 68.0235C122.135 68.5405 121.874 69.1175 121.358 69.3125C115.554 71.5075 114.524 73.1565 114.581 73.4465C114.793 74.5405 121.995 75.8075 135 73.2875C140.457 72.2315 145.486 70.7655 149.159 69.1605C153.363 67.3235 154.049 66.0515 154.002 65.8105C153.944 65.5085 152.298 64.3275 145.762 64.5165C145.226 64.5385 144.749 64.0985 144.733 63.5465C144.717 62.9955 145.151 62.5345 145.703 62.5175C152.096 62.3265 155.555 63.3095 155.966 65.4315C156.319 67.2535 154.354 69.0725 149.959 70.9935C146.156 72.6555 140.978 74.1675 135.38 75.2515C131.586 75.9865 126.022 76.7515 121.34 76.7515Z" fill="#FFFFFE"/>
<path fill-rule="evenodd" clip-rule="evenodd" d="M340.182 97.2315C337.481 102.22 331.249 104.075 326.261 101.374C321.272 98.6745 319.417 92.4415 322.118 87.4535C324.818 82.4655 331.05 80.6105 336.039 83.3105C341.027 86.0105 342.882 92.2435 340.182 97.2315Z" fill="#5F73A9"/>
<path fill-rule="evenodd" clip-rule="evenodd" d="M336.038 83.3096C334.432 82.4406 332.698 82.0496 330.994 82.0776C331 82.2216 331.016 82.3626 331.054 82.4936C331.468 83.9086 333.621 85.1246 334.803 85.8396C336.533 86.8856 338.45 87.6196 340.438 87.9866C339.538 86.0636 338.048 84.3976 336.038 83.3096Z" fill="#57B9CC"/>
<path fill-rule="evenodd" clip-rule="evenodd" d="M340.33 91.8796C340.685 91.9376 341.046 91.9926 341.403 91.9806C341.384 91.4566 341.334 90.9356 341.236 90.4236C340.117 90.3396 338.998 90.2556 337.878 90.1716C337.01 90.1056 336.137 90.0396 335.291 89.8336C334.044 89.5286 332.893 88.9286 331.77 88.3096C329.439 87.0236 327.271 85.5626 325.096 84.0566C323.9 84.9286 322.868 86.0646 322.117 87.4526C321.761 88.1096 321.489 88.7886 321.289 89.4776C321.867 89.5486 322.454 89.4636 323.037 89.4246C324.586 89.3186 326.135 89.5696 327.667 89.8186C331.888 90.5056 336.109 91.1926 340.33 91.8796Z" fill="#57B9CC"/>
<path fill-rule="evenodd" clip-rule="evenodd" d="M341.377 93.2754C340.34 93.5214 339.372 94.0704 338.286 94.2534C337.143 94.4454 335.972 94.4754 334.821 94.3344C334.01 94.2344 333.206 94.0524 332.389 94.0304C332.085 94.0214 331.744 94.0524 331.543 94.2814C331.19 94.6864 331.553 95.3124 331.955 95.6684C332.755 96.3764 333.728 96.8524 334.688 97.3194C335.827 97.8734 336.965 98.4274 338.104 98.9814C338.306 99.0804 338.517 99.1734 338.73 99.2574C339.28 98.6534 339.775 97.9824 340.182 97.2314C340.866 95.9674 341.255 94.6224 341.377 93.2754Z" fill="#57B9CC"/>
<path fill-rule="evenodd" clip-rule="evenodd" d="M331.518 92.2259C329.736 91.6789 327.891 91.3409 326.031 91.2229C324.791 91.1439 323.537 91.1619 322.318 90.9129C321.973 90.8429 321.538 90.6509 321.06 90.4219C320.685 92.3879 320.899 94.3989 321.635 96.2109C321.788 96.1509 321.939 96.0879 322.087 96.0199C324.409 94.9559 326.552 93.1899 329.105 93.1309C329.57 93.1199 330.041 93.1669 330.494 93.0669C330.947 92.9659 331.397 92.6749 331.518 92.2259Z" fill="#57B9CC"/>
<path fill-rule="evenodd" clip-rule="evenodd" d="M337.218 100.618C337.122 100.55 337.021 100.491 336.923 100.445C334.937 99.5081 332.95 98.5711 330.964 97.6341C329.73 97.0521 328.417 96.4551 327.06 96.5921C326.013 96.6981 325.063 97.2311 324.149 97.7521C323.84 97.9291 323.341 98.1371 322.852 98.3791C323.676 99.5141 324.743 100.495 326.033 101.237C326.43 101.068 326.816 100.864 327.209 100.685C329.423 99.6771 332.056 99.6281 334.307 100.554C334.903 100.799 335.475 101.106 336.07 101.351C336.468 101.134 336.85 100.887 337.218 100.618Z" fill="#57B9CC"/>
<path fill-rule="evenodd" clip-rule="evenodd" d="M130.183 188.323L117.126 213.092L113.531 211.197C111.608 210.183 110.871 207.802 111.885 205.879L121.27 188.075C122.285 186.151 124.666 185.413 126.589 186.428L130.183 188.323Z" fill="#FFFFFE"/>
<path fill-rule="evenodd" clip-rule="evenodd" d="M293.796 212.576L286.008 193.074L289.782 191.567C291.801 190.76 294.091 191.744 294.897 193.762L299.766 205.953C300.572 207.972 299.589 210.262 297.57 211.069L293.796 212.576Z" fill="#FFFFFE"/>
<path fill-rule="evenodd" clip-rule="evenodd" d="M172.822 157.924L150.079 174.256L147.708 170.955C146.44 169.19 146.844 166.73 148.61 165.461L164.958 153.722C166.724 152.454 169.184 152.857 170.452 154.623L172.822 157.924Z" fill="#FFFFFE"/>
<path fill-rule="evenodd" clip-rule="evenodd" d="M275.873 184.976L253.537 168.089L255.988 164.848C257.299 163.114 259.768 162.771 261.502 164.082L277.557 176.22C279.291 177.532 279.634 180 278.323 181.734L275.873 184.976Z" fill="#FFFFFE"/>
<path fill-rule="evenodd" clip-rule="evenodd" d="M173.911 174.711C175.661 178.159 170.792 184.145 163.036 188.082C155.28 192.02 147.573 192.418 145.823 188.971C144.073 185.524 148.942 179.537 156.698 175.599C164.455 171.662 172.161 171.264 173.911 174.711Z" fill="#57B9CC"/>
<path fill-rule="evenodd" clip-rule="evenodd" d="M157.698 178.599C164.704 175.042 171.653 174.385 174.225 176.829C174.325 176.057 174.231 175.341 173.911 174.711C172.161 171.264 164.455 171.662 156.698 175.599C148.942 179.537 144.073 185.524 145.823 188.971C145.993 189.304 146.233 189.591 146.509 189.853C146.954 186.403 151.36 181.818 157.698 178.599Z" fill="#453A73"/>
<path fill-rule="evenodd" clip-rule="evenodd" d="M268.774 186.579C267.398 188.78 262.269 188.053 257.318 184.957C252.367 181.862 249.468 177.569 250.844 175.369C252.22 173.167 257.349 173.893 262.3 176.989C267.251 180.084 270.15 184.378 268.774 186.579Z" fill="#57B9CC"/>
<path fill-rule="evenodd" clip-rule="evenodd" d="M260.923 178.603C265.395 181.4 268.18 185.167 267.666 187.493C268.145 187.283 268.523 186.981 268.775 186.579C270.151 184.378 267.252 180.084 262.301 176.989C257.35 173.893 252.221 173.167 250.845 175.369C250.712 175.581 250.631 175.819 250.576 176.068C252.714 175.128 256.876 176.074 260.923 178.603Z" fill="#453A73"/>
<path fill-rule="evenodd" clip-rule="evenodd" d="M213.639 198.162C207.481 197.35 202.12 199.497 201.664 202.957C201.63 203.208 201.631 203.459 201.65 203.709C202.986 200.916 207.817 199.302 213.284 200.023C218.995 200.776 223.377 203.81 223.62 207.007C223.789 206.655 223.91 206.286 223.961 205.897C224.417 202.437 219.796 198.974 213.639 198.162Z" fill="#453A73"/>
<path fill-rule="evenodd" clip-rule="evenodd" d="M63.8672 112.76C63.8672 114.555 62.4122 116.01 60.6172 116.01C58.8222 116.01 57.3672 114.555 57.3672 112.76C57.3672 110.965 58.8222 109.51 60.6172 109.51C62.4122 109.51 63.8672 110.965 63.8672 112.76Z" fill="#57B9CC"/>
<path fill-rule="evenodd" clip-rule="evenodd" d="M249.491 23.7578C248.686 23.7578 248.033 23.1048 248.033 22.2998C248.033 21.4948 248.686 20.8418 249.491 20.8418C250.296 20.8418 250.948 21.4948 250.948 22.2998C250.948 23.1048 250.296 23.7578 249.491 23.7578Z" fill="#57B9CC"/>
<path fill-rule="evenodd" clip-rule="evenodd" d="M270.158 50.8008C269.354 50.8008 268.701 50.1478 268.701 49.3428C268.701 48.5378 269.354 47.8848 270.158 47.8848C270.963 47.8848 271.616 48.5378 271.616 49.3428C271.616 50.1478 270.963 50.8008 270.158 50.8008Z" fill="#57B9CC"/>
<path fill-rule="evenodd" clip-rule="evenodd" d="M26.6162 98.2578C25.8112 98.2578 25.1582 97.6048 25.1582 96.7998C25.1582 95.9948 25.8112 95.3418 26.6162 95.3418C27.4212 95.3418 28.0742 95.9948 28.0742 96.7998C28.0742 97.6048 27.4212 98.2578 26.6162 98.2578Z" fill="#57B9CC"/>
<path fill-rule="evenodd" clip-rule="evenodd" d="M235.121 74.9688C235.121 76.0048 234.281 76.8458 233.244 76.8458C232.208 76.8458 231.367 76.0048 231.367 74.9688C231.367 73.9318 232.208 73.0918 233.244 73.0918C234.281 73.0918 235.121 73.9318 235.121 74.9688Z" fill="#FFFFFE"/>
<path fill-rule="evenodd" clip-rule="evenodd" d="M313.994 161.219C313.994 162.255 313.154 163.096 312.117 163.096C311.081 163.096 310.24 162.255 310.24 161.219C310.24 160.182 311.081 159.342 312.117 159.342C313.154 159.342 313.994 160.182 313.994 161.219Z" fill="#FFFFFE"/>
<path fill-rule="evenodd" clip-rule="evenodd" d="M369.371 164.342C369.371 165.378 368.531 166.219 367.494 166.219C366.458 166.219 365.617 165.378 365.617 164.342C365.617 163.305 366.458 162.465 367.494 162.465C368.531 162.465 369.371 163.305 369.371 164.342Z" fill="#FFFFFE"/>
<path fill-rule="evenodd" clip-rule="evenodd" d="M73.9942 191.719C73.9942 192.755 73.1542 193.596 72.1172 193.596C71.0812 193.596 70.2402 192.755 70.2402 191.719C70.2402 190.682 71.0812 189.842 72.1172 189.842C73.1542 189.842 73.9942 190.682 73.9942 191.719Z" fill="#FFFFFE"/>
<path fill-rule="evenodd" clip-rule="evenodd" d="M182.371 55.8418C182.371 56.8778 181.531 57.7188 180.494 57.7188C179.458 57.7188 178.617 56.8778 178.617 55.8418C178.617 54.8048 179.458 53.9648 180.494 53.9648C181.531 53.9648 182.371 54.8048 182.371 55.8418Z" fill="#FFFFFE"/>
<path fill-rule="evenodd" clip-rule="evenodd" d="M159.611 101.456L162.113 102.886L159.559 104.221L158.129 106.724L156.794 104.169L154.291 102.74L156.846 101.404L158.275 98.9023L159.611 101.456Z" fill="#FFFFFE"/>
<path fill-rule="evenodd" clip-rule="evenodd" d="M277.487 75.1221L279.121 76.0561L277.453 76.9281L276.52 78.5611L275.648 76.8941L274.014 75.9601L275.682 75.0881L276.615 73.4551L277.487 75.1221Z" fill="#FFFFFE"/>
<path fill-rule="evenodd" clip-rule="evenodd" d="M84.6507 153.537L86.2847 154.47L84.6167 155.342L83.6837 156.976L82.8117 155.308L81.1777 154.375L82.8457 153.503L83.7787 151.869L84.6507 153.537Z" fill="#FFFFFE"/>
<path fill-rule="evenodd" clip-rule="evenodd" d="M85.5833 86.9033L87.2173 87.8373L85.5503 88.7083L84.6163 90.3423L83.7443 88.6753L82.1113 87.7413L83.7783 86.8693L84.7123 85.2363L85.5833 86.9033Z" fill="#FFFFFE"/>
<path fill-rule="evenodd" clip-rule="evenodd" d="M35.6156 186.342L37.2496 187.276L35.5816 188.147L34.6486 189.781L33.7766 188.114L32.1426 187.18L33.8096 186.308L34.7436 184.674L35.6156 186.342Z" fill="#FFFFFE"/>
<path fill-rule="evenodd" clip-rule="evenodd" d="M332.456 140.236L334.089 141.169L332.422 142.041L331.488 143.675L330.616 142.008L328.982 141.074L330.65 140.202L331.583 138.568L332.456 140.236Z" fill="#FFFFFE"/>
<path fill-rule="evenodd" clip-rule="evenodd" d="M352.616 206.007L354.25 206.941L352.583 207.813L351.649 209.447L350.777 207.78L349.143 206.846L350.811 205.974L351.744 204.34L352.616 206.007Z" fill="#FFFFFE"/>
</svg>
