<svg width="260" height="264" viewBox="0 0 260 264" fill="none" xmlns="http://www.w3.org/2000/svg">
<path d="M77.0194 73.6622C77.0792 72.9038 77.1201 72.1391 77.1201 71.365C77.1201 55.5995 64.3409 42.8203 48.5754 42.8203C35.9536 42.8203 25.2513 51.0178 21.4846 62.3746C21.0031 62.3368 20.5216 62.3022 20.0307 62.3022C9.64624 62.3022 1.22852 70.7199 1.22852 81.1075C1.22852 91.492 9.64624 99.9097 20.0307 99.9097H64.6242C73.4887 99.9097 80.6728 92.7255 80.6728 83.861C80.676 79.9873 79.304 76.4345 77.0194 73.6622Z" fill="#E8EAF6"/>
<path d="M246.844 11.3443C246.46 11.3443 246.08 11.3663 245.705 11.4009C243.2 4.74539 236.793 0 229.26 0C221.726 0 215.32 4.74539 212.815 11.4009C212.44 11.3663 212.059 11.3443 211.676 11.3443C205.096 11.3443 199.762 16.6781 199.762 23.2581C199.762 29.838 205.096 35.1719 211.676 35.1719H246.847C253.427 35.1719 258.761 29.838 258.761 23.2581C258.758 16.6781 253.424 11.3443 246.844 11.3443Z" fill="#E8EAF6"/>
<path d="M45.3479 179.232C45.3511 179.151 45.3543 179.066 45.3543 178.984C45.5336 170.349 38.6705 162.935 30.0419 162.488C20.7179 162.004 13.0051 169.424 13.0051 178.641C13.0051 178.971 13.0146 179.299 13.0334 179.623C13.4583 186.675 11.0321 193.598 6.79331 199.252C3.00141 204.316 0.886761 210.704 1.27382 217.601C2.08255 231.96 13.9554 243.5 28.33 243.924C44.1522 244.393 57.1296 231.705 57.1296 215.987C57.1296 209.703 55.0558 203.907 51.5566 199.24C47.2391 193.478 45.0868 186.429 45.3479 179.232Z" fill="#FFC107"/>
<path d="M29.1921 245.171C28.8963 245.171 28.5974 245.165 28.2984 245.158C13.2976 244.715 0.889726 232.64 0.0463822 217.674C-0.340675 210.798 1.70473 203.995 5.80817 198.516C10.0626 192.84 12.193 186.156 11.8028 179.698C11.7808 179.349 11.7714 178.997 11.7714 178.644C11.7714 173.823 13.6973 169.339 17.1965 166.019C20.6926 162.699 25.2744 161.013 30.1079 161.261C39.3878 161.743 46.7828 169.707 46.5877 179.012L46.5813 179.28V179.283C46.3296 186.216 48.4505 193.041 52.5477 198.504C56.3553 203.58 58.3693 209.628 58.3693 215.991C58.3693 223.949 55.2225 231.385 49.5142 236.929C44.0136 242.263 36.8294 245.171 29.1921 245.171ZM29.1763 163.7C25.3278 163.7 21.7027 165.141 18.8957 167.807C15.8937 170.658 14.2385 174.506 14.2385 178.644C14.2385 178.95 14.248 179.252 14.2668 179.551C14.6885 186.587 12.3882 193.85 7.78443 199.995C4.02714 205.008 2.15471 211.239 2.5103 217.536C3.28127 231.237 14.6413 242.288 28.374 242.698C35.6777 242.924 42.5692 240.237 47.7961 235.161C53.0261 230.085 55.9054 223.275 55.9054 215.991C55.9054 210.166 54.0645 204.631 50.5779 199.983C46.144 194.07 43.85 186.688 44.1206 179.195L44.1268 178.956C44.2936 170.969 37.9497 164.134 29.9851 163.722C29.7114 163.706 29.4438 163.7 29.1763 163.7ZM45.3478 179.236H45.3573H45.3478Z" fill="#424242"/>
<path d="M29.1867 263.143C28.507 263.143 27.9531 262.593 27.9531 261.91V203.25C27.9531 202.57 28.5038 202.017 29.1867 202.017C29.8664 202.017 30.4202 202.567 30.4202 203.25V261.91C30.4202 262.59 29.8664 263.143 29.1867 263.143Z" fill="#424242"/>
<path d="M29.1883 229.133C28.9554 229.133 28.7194 229.067 28.5117 228.931L17.7276 221.826C17.1581 221.451 17.0007 220.687 17.3752 220.117C17.7497 219.551 18.5143 219.393 19.0807 219.765L29.8648 226.87C30.4344 227.245 30.5918 228.009 30.2173 228.579C29.9813 228.938 29.5879 229.133 29.1883 229.133Z" fill="#424242"/>
<path d="M42.7411 263.142H15.6281C14.9484 263.142 14.3945 262.591 14.3945 261.908C14.3945 261.229 14.9452 260.675 15.6281 260.675H42.7411C43.4208 260.675 43.9746 261.225 43.9746 261.908C43.9746 262.588 43.4239 263.142 42.7411 263.142Z" fill="#424242"/>
<path d="M246.965 179.232C246.968 179.151 246.971 179.066 246.971 178.984C247.151 170.349 240.288 162.935 231.659 162.488C222.335 162.004 214.622 169.424 214.622 178.641C214.622 178.971 214.632 179.299 214.651 179.623C215.075 186.675 212.646 193.598 208.41 199.252C204.619 204.316 202.504 210.704 202.891 217.601C203.7 231.96 215.573 243.5 229.947 243.924C245.769 244.393 258.744 231.705 258.744 215.987C258.744 209.703 256.67 203.907 253.171 199.24C248.853 193.478 246.704 186.429 246.965 179.232Z" fill="#FFC107"/>
<path d="M230.809 245.171C230.514 245.171 230.215 245.165 229.916 245.158C214.915 244.715 202.507 232.64 201.664 217.674C201.277 210.798 203.322 203.995 207.425 198.516C211.68 192.84 213.81 186.156 213.42 179.698C213.398 179.349 213.389 178.997 213.389 178.644C213.389 173.823 215.314 169.339 218.814 166.019C222.31 162.699 226.892 161.013 231.725 161.261C241.005 161.743 248.397 169.707 248.205 179.012L248.199 179.28V179.283C247.947 186.216 250.065 193.041 254.165 198.504C257.973 203.58 259.983 209.628 259.983 215.991C259.983 223.949 256.837 231.385 251.128 236.929C245.631 242.263 238.447 245.171 230.809 245.171ZM230.794 163.7C226.942 163.7 223.32 165.141 220.513 167.807C217.511 170.658 215.856 174.506 215.856 178.644C215.856 178.95 215.865 179.252 215.884 179.551C216.306 186.587 214.005 193.847 209.402 199.992C205.644 205.005 203.772 211.236 204.128 217.533C204.899 231.234 216.259 242.285 229.991 242.694C237.285 242.896 244.186 240.234 249.413 235.158C254.643 230.082 257.523 223.272 257.523 215.987C257.523 210.163 255.679 204.627 252.195 199.98C247.761 194.067 245.467 186.684 245.738 179.192L245.744 178.959C245.911 170.966 239.567 164.131 231.602 163.719C231.332 163.706 231.061 163.7 230.794 163.7ZM246.968 179.236H246.978H246.968Z" fill="#424242"/>
<path d="M230.804 263.143C230.124 263.143 229.57 262.593 229.57 261.91V203.25C229.57 202.57 230.121 202.017 230.804 202.017C231.484 202.017 232.037 202.567 232.037 203.25V261.91C232.037 262.59 231.487 263.143 230.804 263.143Z" fill="#424242"/>
<path d="M230.805 229.133C230.573 229.133 230.337 229.067 230.129 228.931L219.345 221.826C218.775 221.451 218.618 220.687 218.992 220.117C219.367 219.551 220.132 219.393 220.701 219.765L231.485 226.87C232.055 227.245 232.212 228.009 231.834 228.579C231.598 228.938 231.205 229.133 230.805 229.133Z" fill="#424242"/>
<path d="M244.358 263.142H217.245C216.566 263.142 216.012 262.591 216.012 261.908C216.012 261.229 216.563 260.675 217.245 260.675H244.358C245.038 260.675 245.592 261.225 245.592 261.908C245.589 262.588 245.038 263.142 244.358 263.142Z" fill="#424242"/>
<path d="M220.796 79.7607H38.6465V261.911H220.796V79.7607Z" fill="#ECEFF1"/>
<path d="M220.801 263.142H38.6515C37.9718 263.142 37.418 262.592 37.418 261.909V79.7589C37.418 79.0792 37.9687 78.5254 38.6515 78.5254H220.801C221.481 78.5254 222.035 79.0761 222.035 79.7589V261.909C222.032 262.588 221.481 263.142 220.801 263.142ZM39.8851 260.675H219.571V80.9894H39.8851V260.675Z" fill="#424242"/>
<path d="M153.176 183.228H108.246V261.91H153.176V183.228Z" fill="#ECEFF1"/>
<path d="M153.179 263.142H108.249C107.569 263.142 107.016 262.591 107.016 261.908V183.226C107.016 182.546 107.566 181.992 108.249 181.992H153.179C153.859 181.992 154.413 182.543 154.413 183.226V261.908C154.413 262.588 153.859 263.142 153.179 263.142ZM109.483 260.675H151.949V184.456H109.483V260.675Z" fill="#424242"/>
<path d="M145.775 232.828H144.916C143.664 232.828 142.65 231.812 142.65 230.562V219.586C142.65 218.334 143.667 217.317 144.916 217.317H145.775C147.028 217.317 148.041 218.334 148.041 219.586V230.562C148.041 231.815 147.028 232.828 145.775 232.828Z" fill="#FFC107"/>
<path d="M145.34 234.063C143.172 234.063 141.41 232.3 141.41 230.132V220.015C141.41 217.847 143.172 216.085 145.34 216.085C147.509 216.085 149.271 217.847 149.271 220.015V230.132C149.271 232.3 147.509 234.063 145.34 234.063ZM145.34 218.552C144.532 218.552 143.874 219.21 143.874 220.018V230.135C143.874 230.944 144.532 231.599 145.34 231.599C146.149 231.599 146.807 230.941 146.807 230.135V220.018C146.807 219.21 146.149 218.552 145.34 218.552Z" fill="#424242"/>
<path d="M230.809 263.142H29.1867C28.507 263.142 27.9531 262.591 27.9531 261.908C27.9531 261.229 28.5038 260.675 29.1867 260.675H230.809C231.489 260.675 232.042 261.225 232.042 261.908C232.042 262.588 231.492 263.142 230.809 263.142Z" fill="#424242"/>
<path d="M220.651 39.9277H40.1094V65.59H220.651V39.9277Z" fill="#7E57C2"/>
<path d="M220.656 66.8256H40.1144C39.4347 66.8256 38.8809 66.2749 38.8809 65.5921V39.9298C38.8809 39.2501 39.4315 38.6963 40.1144 38.6963H220.656C221.336 38.6963 221.89 39.247 221.89 39.9298V65.5921C221.89 66.2718 221.336 66.8256 220.656 66.8256ZM41.3479 64.3585H219.426V41.1603H41.3479V64.3585Z" fill="#424242"/>
<path d="M220.803 171.228H160.749C160.07 171.228 159.516 170.677 159.516 169.994V117.26C159.516 116.58 160.066 116.026 160.749 116.026H220.803C221.483 116.026 222.036 116.577 222.036 117.26V169.994C222.033 170.674 221.483 171.228 220.803 171.228ZM161.98 168.761H219.569V118.493H161.98V168.761Z" fill="#424242"/>
<mask id="mask0" mask-type="alpha" maskUnits="userSpaceOnUse" x="160" y="117" width="61" height="53">
<path d="M220.803 169.993H190.776H160.746V117.259H220.803V169.993Z" fill="#C5CAE9"/>
</mask>
<g mask="url(#mask0)">
<path d="M220.803 169.993H190.776H160.746V117.259H220.803V169.993Z" fill="#C5CAE9"/>
<path d="M160.136 173.044L151.957 164.934L202.756 114.563L210.938 122.676L160.136 173.044Z" fill="#E8EAF6"/>
<path d="M187.276 189.042L172.693 174.585L221.161 126.53L235.74 140.987L187.276 189.042Z" fill="#E8EAF6"/>
</g>
<path d="M220.803 171.228H160.749C160.07 171.228 159.516 170.677 159.516 169.994V117.26C159.516 116.58 160.066 116.026 160.749 116.026H220.803C221.483 116.026 222.036 116.577 222.036 117.26V169.994C222.033 170.674 221.483 171.228 220.803 171.228ZM161.98 168.761H219.569V118.493H161.98V168.761Z" fill="#424242"/>
<path d="M190.78 171.228C190.101 171.228 189.547 170.677 189.547 169.994V117.26C189.547 116.58 190.098 116.026 190.78 116.026C191.46 116.026 192.014 116.577 192.014 117.26V169.994C192.011 170.674 191.46 171.228 190.78 171.228Z" fill="#424242"/>
<path d="M220.803 237.19H160.749C160.07 237.19 159.516 236.64 159.516 235.957V183.226C159.516 182.546 160.066 181.992 160.749 181.992H220.803C221.483 181.992 222.036 182.543 222.036 183.226V235.957C222.033 236.636 221.483 237.19 220.803 237.19ZM161.98 234.726H219.569V184.459H161.98V234.726Z" fill="#424242"/>
<mask id="mask1" mask-type="alpha" maskUnits="userSpaceOnUse" x="160" y="183" width="61" height="53">
<path d="M220.803 235.959H190.776H160.746V183.228H220.803V235.959Z" fill="#C5CAE9"/>
</mask>
<g mask="url(#mask1)">
<path d="M220.803 235.959H190.776H160.746V183.228H220.803V235.959Z" fill="#C5CAE9"/>
<path d="M160.142 239.007L151.957 230.901L210.101 173.188L218.285 181.295L160.142 239.007Z" fill="#E8EAF6"/>
<path d="M187.276 255.01L172.693 240.554L221.161 192.502L235.74 206.958L187.276 255.01Z" fill="#E8EAF6"/>
</g>
<path d="M220.803 237.19H160.749C160.07 237.19 159.516 236.64 159.516 235.957V183.226C159.516 182.546 160.066 181.992 160.749 181.992H220.803C221.483 181.992 222.036 182.543 222.036 183.226V235.957C222.033 236.636 221.483 237.19 220.803 237.19ZM161.98 234.726H219.569V184.459H161.98V234.726Z" fill="#424242"/>
<path d="M190.78 237.19C190.101 237.19 189.547 236.64 189.547 235.957V183.226C189.547 182.546 190.098 181.992 190.78 181.992C191.46 181.992 192.014 182.543 192.014 183.226V235.957C192.011 236.636 191.46 237.19 190.78 237.19Z" fill="#424242"/>
<path d="M98.7084 171.228H38.6515C37.9718 171.228 37.418 170.677 37.418 169.994V117.26C37.418 116.58 37.9687 116.026 38.6515 116.026H98.7084C99.3881 116.026 99.9419 116.577 99.9419 117.26V169.994C99.9419 170.674 99.3912 171.228 98.7084 171.228ZM39.8882 168.761H97.4779V118.493H39.8882V168.761Z" fill="#424242"/>
<mask id="mask2" mask-type="alpha" maskUnits="userSpaceOnUse" x="38" y="117" width="61" height="53">
<path d="M98.7119 169.993H68.685H38.6582V117.259H98.7119V169.993Z" fill="#C5CAE9"/>
</mask>
<g mask="url(#mask2)">
<path d="M98.7119 169.993H68.685H38.6582V117.259H98.7119V169.993Z" fill="#C5CAE9"/>
<path d="M38.0391 173.044L29.8574 164.934L80.6595 114.563L88.8412 122.676L38.0391 173.044Z" fill="#E8EAF6"/>
<path d="M65.1749 189.042L50.5957 174.585L99.0597 126.53L113.642 140.987L65.1749 189.042Z" fill="#E8EAF6"/>
</g>
<path d="M98.7084 171.228H38.6515C37.9718 171.228 37.418 170.677 37.418 169.994V117.26C37.418 116.58 37.9687 116.026 38.6515 116.026H98.7084C99.3881 116.026 99.9419 116.577 99.9419 117.26V169.994C99.9419 170.674 99.3912 171.228 98.7084 171.228ZM39.8882 168.761H97.4779V118.493H39.8882V168.761Z" fill="#424242"/>
<path d="M68.6808 171.228C68.0011 171.228 67.4473 170.677 67.4473 169.994V117.26C67.4473 116.58 67.998 116.026 68.6808 116.026C69.3605 116.026 69.9144 116.577 69.9144 117.26V169.994C69.9144 170.674 69.3605 171.228 68.6808 171.228Z" fill="#424242"/>
<path d="M98.7084 237.19H38.6515C37.9718 237.19 37.418 236.64 37.418 235.957V183.226C37.418 182.546 37.9687 181.992 38.6515 181.992H98.7084C99.3881 181.992 99.9419 182.543 99.9419 183.226V235.957C99.9419 236.636 99.3912 237.19 98.7084 237.19ZM39.8882 234.726H97.4779V184.459H39.8882V234.726Z" fill="#424242"/>
<mask id="mask3" mask-type="alpha" maskUnits="userSpaceOnUse" x="38" y="183" width="61" height="53">
<path d="M98.7119 235.959H68.685H38.6582V183.228H98.7119V235.959Z" fill="#C5CAE9"/>
</mask>
<g mask="url(#mask3)">
<path d="M98.7119 235.959H68.685H38.6582V183.228H98.7119V235.959Z" fill="#C5CAE9"/>
<path d="M38.0455 239.007L29.8574 230.901L89.48 171.713L97.668 179.819L38.0455 239.007Z" fill="#E8EAF6"/>
<path d="M65.5792 255.018L51 240.562L99.464 192.51L114.046 206.966L65.5792 255.018Z" fill="#E8EAF6"/>
</g>
<path d="M98.7084 237.19H38.6515C37.9718 237.19 37.418 236.64 37.418 235.957V183.226C37.418 182.546 37.9687 181.992 38.6515 181.992H98.7084C99.3881 181.992 99.9419 182.543 99.9419 183.226V235.957C99.9419 236.636 99.3912 237.19 98.7084 237.19ZM39.8882 234.726H97.4779V184.459H39.8882V234.726Z" fill="#424242"/>
<path d="M69.0851 237.198C68.4054 237.198 67.8516 236.647 67.8516 235.965V183.234C67.8516 182.554 68.4022 182 69.0851 182C69.7648 182 70.3186 182.551 70.3186 183.234V235.965C70.3186 236.644 69.7648 237.198 69.0851 237.198Z" fill="#424242"/>
<path d="M42.5104 134.469H37.7115C30.7256 134.469 25.0645 128.808 25.0645 121.822V79.623H55.1543V121.822C55.1543 128.808 49.4931 134.469 42.5104 134.469Z" fill="#5E35B1"/>
<path d="M40.1124 135.701C31.1377 135.701 23.834 128.397 23.834 119.422V79.6213C23.834 78.9416 24.3847 78.3877 25.0675 78.3877H55.1573C55.837 78.3877 56.3909 78.9384 56.3909 79.6213V119.422C56.3909 128.397 49.0871 135.701 40.1124 135.701ZM26.3011 80.8548V119.422C26.3011 127.037 32.4972 133.237 40.1124 133.237C47.7277 133.237 53.9238 127.041 53.9238 119.422V80.8548H26.3011Z" fill="#424242"/>
<path d="M72.6002 134.469H67.8013C60.8185 134.469 55.1543 128.808 55.1543 121.822V79.623H85.244V121.822C85.244 128.808 79.583 134.469 72.6002 134.469Z" fill="#7E57C2"/>
<path d="M70.2042 135.701C61.2295 135.701 53.9258 128.397 53.9258 119.422V79.6213C53.9258 78.9416 54.4765 78.3877 55.1593 78.3877H85.249C85.9287 78.3877 86.4826 78.9384 86.4826 79.6213V119.422C86.4826 128.397 79.1821 135.701 70.2042 135.701ZM56.3929 80.8548V119.422C56.3929 127.037 62.589 133.237 70.2042 133.237C77.8195 133.237 84.0155 127.041 84.0155 119.422V80.8548H56.3929Z" fill="#424242"/>
<path d="M102.692 134.469H97.8932C90.9072 134.469 85.2461 128.808 85.2461 121.822V79.623H115.336V121.822C115.339 128.808 109.675 134.469 102.692 134.469Z" fill="#5E35B1"/>
<path d="M100.296 135.701C91.3213 135.701 84.0176 128.397 84.0176 119.422V79.6213C84.0176 78.9416 84.5683 78.3877 85.2511 78.3877H115.341C116.021 78.3877 116.574 78.9384 116.574 79.6213V119.422C116.574 128.397 109.274 135.701 100.296 135.701ZM86.4847 80.8548V119.422C86.4847 127.037 92.6808 133.237 100.296 133.237C107.911 133.237 114.107 127.041 114.107 119.422V80.8548H86.4847Z" fill="#424242"/>
<path d="M132.784 134.469H127.985C121.002 134.469 115.338 128.808 115.338 121.822V79.623H145.428V121.822C145.431 128.808 139.767 134.469 132.784 134.469Z" fill="#7E57C2"/>
<path d="M130.388 135.701C121.413 135.701 114.109 128.397 114.109 119.422V79.6213C114.109 78.9416 114.66 78.3877 115.343 78.3877H145.433C146.112 78.3877 146.666 78.9384 146.666 79.6213V119.422C146.663 128.397 139.363 135.701 130.388 135.701ZM116.573 80.8548V119.422C116.573 127.037 122.769 133.237 130.385 133.237C138 133.237 144.196 127.041 144.196 119.422V80.8548H116.573Z" fill="#424242"/>
<path d="M162.876 134.469H158.077C151.094 134.469 145.43 128.808 145.43 121.822V79.623H175.519V121.822C175.523 128.808 169.861 134.469 162.876 134.469Z" fill="#5E35B1"/>
<path d="M160.478 135.701C151.503 135.701 144.199 128.397 144.199 119.422V79.6213C144.199 78.9416 144.75 78.3877 145.433 78.3877H175.523C176.202 78.3877 176.756 78.9384 176.756 79.6213V119.422C176.756 128.397 169.452 135.701 160.478 135.701ZM146.663 80.8548V119.422C146.663 127.037 152.859 133.237 160.474 133.237C168.09 133.237 174.286 127.041 174.286 119.422V80.8548H146.663Z" fill="#424242"/>
<path d="M192.967 134.469H188.169C181.183 134.469 175.521 128.808 175.521 121.822V79.623H205.611V121.822C205.614 128.808 199.953 134.469 192.967 134.469Z" fill="#7E57C2"/>
<path d="M190.569 135.701C181.595 135.701 174.291 128.397 174.291 119.422V79.6213C174.291 78.9416 174.842 78.3877 175.525 78.3877H205.614C206.294 78.3877 206.848 78.9384 206.848 79.6213V119.422C206.848 128.397 199.544 135.701 190.569 135.701ZM176.758 80.8548V119.422C176.758 127.037 182.954 133.237 190.569 133.237C198.185 133.237 204.381 127.041 204.381 119.422V80.8548H176.758Z" fill="#424242"/>
<path d="M223.046 134.469H218.247C211.264 134.469 205.6 128.808 205.6 121.822V79.623H235.689V121.822C235.693 128.808 230.031 134.469 223.046 134.469Z" fill="#5E35B1"/>
<path d="M220.649 135.701C211.675 135.701 204.371 128.397 204.371 119.422V79.6213C204.371 78.9416 204.922 78.3877 205.605 78.3877H235.694C236.374 78.3877 236.928 78.9384 236.928 79.6213V119.422C236.928 128.397 229.624 135.701 220.649 135.701ZM206.838 80.8548V119.422C206.838 127.037 213.034 133.237 220.649 133.237C228.265 133.237 234.461 127.041 234.461 119.422V80.8548H206.838Z" fill="#424242"/>
<path d="M235.696 79.6224H25.0645L40.1094 65.5908H220.651L235.696 79.6224Z" fill="#5E35B1"/>
<path d="M235.697 80.855H25.065C24.5584 80.855 24.1053 80.5466 23.9196 80.0745C23.734 79.6025 23.8566 79.0675 24.2248 78.7214L39.2697 64.6898C39.4994 64.4758 39.7984 64.3594 40.1099 64.3594H220.652C220.963 64.3594 221.265 64.4789 221.492 64.6898L236.537 78.7214C236.908 79.0675 237.028 79.6025 236.842 80.0745C236.659 80.5434 236.203 80.855 235.697 80.855ZM28.193 78.3878H232.569L220.167 66.8202H40.5977L28.193 78.3878Z" fill="#424242"/>
</svg>
