<svg width="261" height="263" viewBox="0 0 261 263" fill="none" xmlns="http://www.w3.org/2000/svg">
<path d="M255.628 28.5783C255.684 27.8797 255.719 27.1748 255.719 26.4605C255.719 11.9223 243.934 0.140625 229.399 0.140625C217.759 0.140625 207.891 7.69927 204.42 18.1718C203.976 18.1372 203.532 18.1057 203.079 18.1057C193.503 18.1057 185.74 25.8689 185.74 35.4447C185.74 45.0204 193.503 52.7836 203.079 52.7836H244.198C252.371 52.7836 258.998 46.1564 258.998 37.9841C259.001 34.4094 257.736 31.1335 255.628 28.5783Z" fill="#E8EAF6"/>
<path d="M64.2108 57.1872C63.701 57.1872 63.1975 57.2156 62.7003 57.2628C59.3773 48.436 50.8841 42.1455 40.8961 42.1455C30.9082 42.1455 22.4117 48.436 19.0887 57.2628C18.5915 57.2156 18.0881 57.1872 17.5783 57.1872C8.85533 57.1872 1.78125 64.2581 1.78125 72.9842C1.78125 81.7072 8.85533 88.7812 17.5783 88.7812H64.2139C72.9368 88.7812 80.0109 81.7103 80.0109 72.9842C80.0078 64.2581 72.9338 57.1872 64.2108 57.1872Z" fill="#E8EAF6"/>
<path d="M247.12 179.468C247.123 179.386 247.126 179.301 247.126 179.219C247.305 170.584 240.442 163.17 231.813 162.724C222.489 162.239 214.777 169.659 214.777 178.876C214.777 179.207 214.786 179.534 214.805 179.858C215.23 186.91 212.8 193.833 208.565 199.488C204.773 204.548 202.658 210.939 203.045 217.837C203.854 232.196 215.727 243.735 230.102 244.16C245.924 244.629 258.901 231.941 258.901 216.222C258.901 209.938 256.827 204.142 253.328 199.475C249.011 193.71 246.858 186.665 247.12 179.468Z" fill="#FFC107"/>
<path d="M230.962 245.402C230.666 245.402 230.367 245.399 230.068 245.39C215.067 244.946 202.659 232.875 201.816 217.906C201.429 211.03 203.474 204.226 207.578 198.748C211.832 193.068 213.963 186.387 213.572 179.93C213.55 179.581 213.541 179.228 213.541 178.876C213.541 174.055 215.467 169.571 218.966 166.251C222.462 162.931 227.044 161.244 231.877 161.493C241.157 161.974 248.549 169.939 248.357 179.247L248.351 179.515C248.099 186.447 250.22 193.272 254.317 198.735C258.125 203.811 260.139 209.859 260.139 216.222C260.139 224.18 256.992 231.616 251.284 237.161C245.783 242.495 238.599 245.402 230.962 245.402ZM230.946 163.932C227.094 163.932 223.472 165.373 220.665 168.038C217.663 170.889 216.008 174.738 216.008 178.876C216.008 179.181 216.017 179.483 216.036 179.782C216.458 186.818 214.158 194.078 209.554 200.224C205.797 205.237 203.924 211.467 204.28 217.764C205.051 231.465 216.411 242.517 230.143 242.926C237.435 243.134 244.339 240.465 249.562 235.389C254.792 230.313 257.672 223.504 257.672 216.219C257.672 210.394 255.831 204.859 252.344 200.211C247.91 194.298 245.616 186.916 245.887 179.42C245.887 179.42 245.887 179.42 245.887 179.417L245.893 179.19C246.06 171.198 239.716 164.363 231.751 163.95C231.481 163.938 231.213 163.932 230.946 163.932Z" fill="#424242"/>
<path d="M230.95 262.375C230.271 262.375 229.717 261.824 229.717 261.141V202.482C229.717 201.802 230.267 201.248 230.95 201.248C231.63 201.248 232.184 201.799 232.184 202.482V261.141C232.184 261.824 231.63 262.375 230.95 262.375Z" fill="#424242"/>
<path d="M230.949 229.366C230.716 229.366 230.48 229.3 230.272 229.161L219.488 222.053C218.922 221.678 218.765 220.913 219.139 220.347C219.513 219.777 220.278 219.62 220.848 219.998L231.632 227.106C232.201 227.481 232.356 228.245 231.981 228.812C231.742 229.171 231.349 229.366 230.949 229.366Z" fill="#424242"/>
<path d="M244.51 262.373H217.398C216.718 262.373 216.164 261.823 216.164 261.14C216.164 260.46 216.715 259.906 217.398 259.906H244.51C245.19 259.906 245.744 260.457 245.744 261.14C245.744 261.823 245.19 262.373 244.51 262.373Z" fill="#424242"/>
<path d="M45.4992 179.468C45.5023 179.386 45.5054 179.301 45.5054 179.219C45.6848 170.584 38.8216 163.17 30.1962 162.724C20.8722 162.239 13.1594 169.659 13.1594 178.876C13.1594 179.207 13.1689 179.534 13.1877 179.858C13.6126 186.91 11.1864 193.833 6.94761 199.488C3.15571 204.548 1.04106 210.939 1.42812 217.837C2.23684 232.196 14.1097 243.735 28.4843 244.16C44.3065 244.629 57.2808 231.941 57.2808 216.222C57.2808 209.938 55.207 204.142 51.7078 199.475C47.3872 193.71 45.238 186.665 45.4992 179.468Z" fill="#FFC107"/>
<path d="M29.3386 245.402C29.0428 245.402 28.7438 245.399 28.4449 245.39C13.4441 244.946 1.03621 232.875 0.192867 217.906C-0.194191 211.03 1.85121 204.226 5.95465 198.748C10.2091 193.068 12.3395 186.387 11.9493 179.93C11.9273 179.581 11.9178 179.228 11.9178 178.876C11.9178 174.055 13.8437 169.571 17.3429 166.251C20.839 162.931 25.4176 161.244 30.2542 161.493C39.5342 161.974 46.926 169.939 46.7341 179.247L46.7278 179.515C46.4761 186.447 48.597 193.272 52.6942 198.735C56.5018 203.811 58.5158 209.859 58.5158 216.222C58.5158 224.18 55.369 231.616 49.6607 237.161C44.1632 242.495 36.9759 245.402 29.3386 245.402ZM29.3228 163.932C25.4711 163.932 21.8492 165.373 19.0422 168.038C16.0402 170.889 14.3849 174.738 14.3849 178.876C14.3849 179.181 14.3943 179.483 14.4132 179.782C14.8349 186.818 12.5346 194.078 7.93082 200.224C4.17353 205.237 2.30119 211.467 2.65678 217.764C3.42775 231.465 14.7877 242.517 28.5204 242.926C35.8147 243.134 42.7156 240.465 47.9425 235.389C53.1724 230.313 56.0518 223.504 56.0518 216.219C56.0518 210.394 54.2109 204.859 50.7242 200.211C46.2904 194.298 43.9964 186.916 44.267 179.42C44.267 179.42 44.267 179.42 44.267 179.417L44.2733 179.19C44.4401 171.198 38.0961 164.363 30.1315 163.95C29.8609 163.938 29.5903 163.932 29.3228 163.932Z" fill="#424242"/>
<path d="M29.5 262C28.6735 262 28 261.459 28 260.789V203.211C28 202.544 28.6696 202 29.5 202C30.3265 202 31 202.541 31 203.211V260.789C30.9962 261.459 30.3265 262 29.5 262Z" fill="#424242"/>
<path d="M29.3318 229.366C29.099 229.366 28.8629 229.3 28.6552 229.161L17.8712 222.053C17.3048 221.678 17.1473 220.913 17.5218 220.347C17.8963 219.777 18.661 219.62 19.2305 219.998L30.0146 227.106C30.5811 227.481 30.7384 228.245 30.3639 228.812C30.1248 229.171 29.7315 229.366 29.3318 229.366Z" fill="#424242"/>
<path d="M42.8906 262.373H15.7746C15.0948 262.373 14.541 261.823 14.541 261.14C14.541 260.46 15.0917 259.906 15.7746 259.906H42.8906C43.5703 259.906 44.1242 260.457 44.1242 261.14C44.121 261.823 43.5703 262.373 42.8906 262.373Z" fill="#424242"/>
<path d="M220.949 175.199H38.7988V260.692H220.949V175.199Z" fill="#ECEFF1"/>
<path d="M220.948 261.923H38.798C38.1183 261.923 37.5645 261.373 37.5645 260.69V175.197C37.5645 174.518 38.1151 173.964 38.798 173.964H220.948C221.627 173.964 222.181 174.515 222.181 175.197V260.69C222.181 261.373 221.627 261.923 220.948 261.923ZM40.0315 259.459H219.714V176.431H40.0315V259.459Z" fill="#424242"/>
<path d="M153.327 175.199H108.396V260.692H153.327V175.199Z" fill="#ECEFF1"/>
<path d="M153.332 261.923H108.402C107.722 261.923 107.168 261.373 107.168 260.69V175.197C107.168 174.518 107.719 173.964 108.402 173.964H153.332C154.011 173.964 154.565 174.515 154.565 175.197V260.69C154.562 261.373 154.011 261.923 153.332 261.923ZM109.632 259.459H152.098V176.431H109.632V259.459Z" fill="#424242"/>
<path d="M145.913 227.932H145.054C143.802 227.932 142.785 226.915 142.785 225.663V214.687C142.785 213.434 143.802 212.418 145.054 212.418H145.913C147.165 212.418 148.179 213.434 148.179 214.687V225.663C148.182 226.915 147.165 227.932 145.913 227.932Z" fill="#FFC107"/>
<path d="M145.487 229.166C143.319 229.166 141.557 227.404 141.557 225.236V215.119C141.557 212.951 143.319 211.188 145.487 211.188C147.655 211.188 149.417 212.951 149.417 215.119V225.236C149.414 227.404 147.652 229.166 145.487 229.166ZM145.487 213.652C144.678 213.652 144.021 214.31 144.021 215.119V225.236C144.021 226.045 144.678 226.702 145.487 226.702C146.296 226.702 146.953 226.045 146.953 225.236V215.119C146.95 214.31 146.293 213.652 145.487 213.652Z" fill="#424242"/>
<path d="M230.955 261.923H29.3332C28.6534 261.923 28.0996 261.372 28.0996 260.69C28.0996 260.01 28.6503 259.456 29.3332 259.456H230.955C231.635 259.456 232.189 260.007 232.189 260.69C232.189 261.372 231.635 261.923 230.955 261.923Z" fill="#424242"/>
<path d="M220.804 97.8662H40.2617V123.528H220.804V97.8662Z" fill="#7E57C2"/>
<path d="M220.803 124.763H40.2609C39.5812 124.763 39.0273 124.212 39.0273 123.53V97.8674C39.0273 97.1877 39.578 96.6338 40.2609 96.6338H220.803C221.482 96.6338 222.036 97.1845 222.036 97.8674V123.53C222.036 124.212 221.485 124.763 220.803 124.763ZM41.4944 122.299H219.572V99.1009H41.4944V122.299V122.299Z" fill="#424242"/>
<path d="M220.949 229.166H160.896C160.216 229.166 159.662 228.615 159.662 227.932V175.201C159.662 174.522 160.213 173.968 160.896 173.968H220.949C221.629 173.968 222.183 174.518 222.183 175.201V227.932C222.183 228.612 221.629 229.166 220.949 229.166ZM162.126 226.699H219.716V176.432H162.126V226.699Z" fill="#424242"/>
<mask id="mask0" mask-type="alpha" maskUnits="userSpaceOnUse" x="160" y="175" width="61" height="53">
<path d="M220.952 227.931H190.925H160.898V175.2H220.952V227.931Z" fill="#C5CAE9"/>
</mask>
<g mask="url(#mask0)">
<path d="M220.952 227.931H190.925H160.898V175.2H220.952V227.931Z" fill="#C5CAE9"/>
<path d="M160.285 230.988L152.104 222.876L202.906 172.508L211.084 180.62L160.285 230.988Z" fill="#E8EAF6"/>
<path d="M187.419 246.983L172.84 232.527L221.304 184.472L235.886 198.931L187.419 246.983Z" fill="#E8EAF6"/>
</g>
<path d="M220.949 229.166H160.896C160.216 229.166 159.662 228.615 159.662 227.932V175.201C159.662 174.522 160.213 173.968 160.896 173.968H220.949C221.629 173.968 222.183 174.518 222.183 175.201V227.932C222.183 228.612 221.629 229.166 220.949 229.166ZM162.126 226.699H219.716V176.432H162.126V226.699Z" fill="#424242"/>
<path d="M190.919 229.166C190.239 229.166 189.686 228.615 189.686 227.932V175.201C189.686 174.522 190.236 173.968 190.919 173.968C191.599 173.968 192.153 174.518 192.153 175.201V227.932C192.153 228.612 191.599 229.166 190.919 229.166Z" fill="#424242"/>
<path d="M98.8517 229.166H38.798C38.1183 229.166 37.5645 228.615 37.5645 227.932V175.201C37.5645 174.522 38.1151 173.968 38.798 173.968H98.8517C99.5314 173.968 100.085 174.518 100.085 175.201V227.932C100.082 228.612 99.5314 229.166 98.8517 229.166ZM40.0285 226.699H97.6182V176.432H40.0285V226.699Z" fill="#424242"/>
<mask id="mask1" mask-type="alpha" maskUnits="userSpaceOnUse" x="38" y="175" width="61" height="53">
<path d="M98.8498 227.931H68.8198H38.793V175.2H98.8498V227.931Z" fill="#C5CAE9"/>
</mask>
<g mask="url(#mask1)">
<path d="M98.8498 227.931H68.8198H38.793V175.2H98.8498V227.931Z" fill="#C5CAE9"/>
<path d="M38.1856 230.988L30.0039 222.876L80.806 172.508L88.9876 180.62L38.1856 230.988Z" fill="#E8EAF6"/>
<path d="M65.3245 246.983L50.7422 232.527L99.2093 184.472L113.788 198.931L65.3245 246.983Z" fill="#E8EAF6"/>
</g>
<path d="M98.8517 229.166H38.798C38.1183 229.166 37.5645 228.615 37.5645 227.932V175.201C37.5645 174.522 38.1151 173.968 38.798 173.968H98.8517C99.5314 173.968 100.085 174.518 100.085 175.201V227.932C100.082 228.612 99.5314 229.166 98.8517 229.166ZM40.0285 226.699H97.6182V176.432H40.0285V226.699Z" fill="#424242"/>
<path d="M68.8214 229.166C68.1417 229.166 67.5879 228.615 67.5879 227.932V175.201C67.5879 174.522 68.1386 173.968 68.8214 173.968C69.5011 173.968 70.055 174.518 70.055 175.201V227.932C70.055 228.612 69.5043 229.166 68.8214 229.166Z" fill="#424242"/>
<path d="M42.6608 192.406H37.8618C30.879 192.406 25.2148 186.745 25.2148 179.759V137.561H55.3046V179.759C55.3077 186.745 49.6435 192.406 42.6608 192.406Z" fill="#5E35B1"/>
<path d="M40.2647 193.641C31.29 193.641 23.9863 186.34 23.9863 177.362V137.562C23.9863 136.882 24.537 136.328 25.2199 136.328H55.3096C55.9893 136.328 56.5431 136.879 56.5431 137.562V177.362C56.54 186.337 49.2394 193.641 40.2647 193.641ZM26.4502 138.795V177.362C26.4502 184.978 32.6463 191.174 40.2616 191.174C47.8769 191.174 54.0729 184.978 54.0729 177.362V138.795H26.4502Z" fill="#424242"/>
<path d="M72.7545 192.406H67.9557C60.9729 192.406 55.3086 186.745 55.3086 179.759V137.561H85.3984V179.759C85.4015 186.745 79.7404 192.406 72.7545 192.406Z" fill="#7E57C2"/>
<path d="M70.3566 193.641C61.3819 193.641 54.0781 186.34 54.0781 177.362V137.562C54.0781 136.882 54.6288 136.328 55.3117 136.328H85.4015C86.0812 136.328 86.635 136.879 86.635 137.562V177.362C86.6319 186.337 79.3313 193.641 70.3566 193.641ZM56.542 138.795V177.362C56.542 184.978 62.7381 191.174 70.3534 191.174C77.9687 191.174 84.1648 184.978 84.1648 177.362V138.795H56.542Z" fill="#424242"/>
<path d="M102.841 192.406H98.0454C91.0595 192.406 85.3984 186.745 85.3984 179.759V137.561H115.488V179.759C115.488 186.745 109.827 192.406 102.841 192.406Z" fill="#5E35B1"/>
<path d="M100.441 193.641C91.4659 193.641 84.1621 186.34 84.1621 177.362V137.562C84.1621 136.882 84.7128 136.328 85.3957 136.328H115.485C116.165 136.328 116.719 136.879 116.719 137.562V177.362C116.719 186.337 109.415 193.641 100.441 193.641ZM86.626 138.795V177.362C86.626 184.978 92.8221 191.174 100.441 191.174C108.056 191.174 114.252 184.978 114.252 177.362V138.795H86.626Z" fill="#424242"/>
<path d="M132.928 192.406H128.129C121.147 192.406 115.482 186.745 115.482 179.759V137.561H145.572V179.759C145.575 186.745 139.914 192.406 132.928 192.406Z" fill="#7E57C2"/>
<path d="M130.532 193.641C121.558 193.641 114.254 186.34 114.254 177.362V137.562C114.254 136.882 114.805 136.328 115.487 136.328H145.577C146.257 136.328 146.811 136.879 146.811 137.562V177.362C146.811 186.337 139.507 193.641 130.532 193.641ZM116.721 138.795V177.362C116.721 184.978 122.917 191.174 130.532 191.174C138.148 191.174 144.344 184.978 144.344 177.362V138.795H116.721Z" fill="#424242"/>
<path d="M163.026 192.406H158.227C151.241 192.406 145.58 186.745 145.58 179.759V137.561H175.67V179.759C175.67 186.745 170.009 192.406 163.026 192.406Z" fill="#5E35B1"/>
<path d="M160.624 193.641C151.649 193.641 144.346 186.34 144.346 177.362V137.562C144.346 136.882 144.896 136.328 145.579 136.328H175.669C176.349 136.328 176.903 136.879 176.903 137.562V177.362C176.903 186.337 169.599 193.641 160.624 193.641ZM146.813 138.795V177.362C146.813 184.978 153.009 191.174 160.624 191.174C168.239 191.174 174.436 184.978 174.436 177.362V138.795H146.813Z" fill="#424242"/>
<path d="M193.12 192.406H188.321C181.335 192.406 175.674 186.745 175.674 179.759V137.561H205.764V179.759C205.764 186.745 200.102 192.406 193.12 192.406Z" fill="#7E57C2"/>
<path d="M190.716 193.641C181.741 193.641 174.438 186.34 174.438 177.362V137.562C174.438 136.882 174.988 136.328 175.671 136.328H205.761C206.44 136.328 206.994 136.879 206.994 137.562V177.362C206.994 186.337 199.694 193.641 190.716 193.641ZM176.905 138.795V177.362C176.905 184.978 183.101 191.174 190.716 191.174C198.331 191.174 204.527 184.978 204.527 177.362V138.795H176.905Z" fill="#424242"/>
<path d="M223.202 192.406H218.403C211.417 192.406 205.756 186.745 205.756 179.759V137.561H235.846V179.759C235.849 186.745 230.185 192.406 223.202 192.406Z" fill="#5E35B1"/>
<path d="M220.8 193.641C211.825 193.641 204.521 186.34 204.521 177.362V137.562C204.521 136.882 205.072 136.328 205.755 136.328H235.845C236.525 136.328 237.078 136.879 237.078 137.562V177.362C237.078 186.337 229.778 193.641 220.8 193.641ZM206.989 138.795V177.362C206.989 184.978 213.185 191.174 220.8 191.174C228.415 191.174 234.614 184.978 234.614 177.362V138.795H206.989Z" fill="#424242"/>
<path d="M235.846 137.561H25.2148L40.2597 123.529H220.798L235.846 137.561Z" fill="#5E35B1"/>
<path d="M235.849 138.795H25.2174C24.7108 138.795 24.2576 138.487 24.0719 138.015C23.8863 137.543 24.0091 137.008 24.3772 136.662L39.422 122.63C39.6518 122.416 39.9507 122.3 40.2622 122.3H220.804C221.116 122.3 221.418 122.419 221.644 122.63L236.689 136.662C237.06 137.008 237.18 137.543 236.994 138.015C236.809 138.484 236.352 138.795 235.849 138.795ZM28.3453 136.331H232.721L220.319 124.764H40.75L28.3453 136.331Z" fill="#424242"/>
</svg>
